<svg width="60" height="60" viewBox="0 0 60 60" fill="none" xmlns="http://www.w3.org/2000/svg">
<g clip-path="url(#clip0_48_99)">
<path d="M28.0625 0C29.3125 0 30.5625 0 31.8125 0C31.9688 0.03125 32.1094 0.078125 32.2656 0.09375C36.7656 0.4375 41.0156 1.67188 44.8594 4.01562C54.4219 9.82812 59.5 18.3594 59.8438 29.5625C60.0469 36.25 58.0469 42.3594 54.0625 47.7344C49.3125 54.1406 43 58.0938 35.1562 59.5312C34.0469 59.7344 32.9219 59.8438 31.8125 60C30.5625 60 29.3125 60 28.0625 60C27.9375 59.9688 27.7969 59.9219 27.6719 59.9062C22 59.4688 16.8438 57.5938 12.2812 54.2031C5.875 49.4375 1.90625 43.1094 0.46875 35.2188C0.265625 34.1094 0.15625 32.9844 0 31.8594C0 30.6094 0 29.3594 0 28.1094C0.09375 27.3906 0.15625 26.6875 0.265625 25.9688C1.125 19.875 3.57812 14.4844 7.70312 9.92188C12.3125 4.82812 18.0312 1.64062 24.8438 0.453125C25.9062 0.265625 27 0.15625 28.0625 0ZM3 29.9844C2.98438 44.9062 15.0469 56.9844 29.9375 56.9844C44.8125 56.9844 56.8438 44.9531 56.875 30.0312C56.9062 15.125 44.875 3.03125 29.9688 3C15.0938 2.98438 3.01563 15.0625 3 29.9844Z" fill="white"/>
<path d="M20.9531 30C20.9531 26.4532 20.9531 22.8907 20.9531 19.3438C20.9531 18.0938 21.625 17.2344 22.7656 17.0469C23.4219 16.9375 23.9688 17.2188 24.5 17.5625C28.5625 20.2813 32.625 23 36.7031 25.7032C37.9219 26.5157 39.1406 27.3125 40.3438 28.1407C41.8125 29.1407 41.8125 30.8594 40.3438 31.8438C35.0313 35.4063 29.7188 38.9375 24.4063 42.5C23.6719 43 22.9062 43.1563 22.0937 42.7344C21.2656 42.2969 20.9531 41.5625 20.9531 40.6563C20.9531 37.0938 20.9531 33.5469 20.9531 30ZM23.9844 39.1719C28.5938 36.0938 33.125 33.0625 37.7188 30C33.1094 26.9219 28.5781 23.8907 23.9844 20.8282C23.9844 26.9688 23.9844 33.0157 23.9844 39.1719Z" fill="white"/>
</g>
<defs>
<clipPath id="clip0_48_99">
<rect width="59.8594" height="60" fill="white"/>
</clipPath>
</defs>
</svg>
