<svg width="50" height="50" viewBox="0 0 50 50" fill="none" xmlns="http://www.w3.org/2000/svg">
<circle cx="25" cy="25" r="25" fill="#262626"/>
<g clip-path="url(#clip0_14_130)">
<path d="M36.5058 30.7633C36.3568 30.7633 36.2503 30.7633 36.1545 30.7633C33.9832 30.7633 31.8226 30.7633 29.6513 30.7633C29.1297 30.7633 28.9807 30.5827 29.0552 30.0622C29.0978 29.8072 29.1297 29.5628 29.1617 29.3079C29.1404 29.2972 29.1297 29.2866 29.1084 29.276C27.8099 30.6146 26.5008 31.9638 25.2022 33.3024C26.2347 34.7578 27.2565 36.1708 28.2995 37.6368C28.3527 37.4031 28.3847 37.2331 28.4273 37.0631C28.4592 36.8932 28.4911 36.7232 28.5337 36.5532C28.6188 36.1601 28.7359 36.0751 29.1404 36.0751C30.258 36.0751 31.3755 36.0645 32.4825 36.0751C33.1424 36.0858 33.6001 35.8202 33.9194 35.2465C34.707 33.8548 35.5266 32.4737 36.3248 31.082C36.378 30.997 36.4313 30.9014 36.5058 30.7633ZM28.4379 39.1666C28.3315 39.0604 28.1931 38.9648 28.1079 38.8373C26.8626 37.1163 25.628 35.3952 24.3933 33.6742C24.1272 33.3024 24.1379 33.1643 24.4572 32.8349C26.0963 31.1458 27.7354 29.4566 29.3639 27.7674C29.5235 27.5975 29.6938 27.47 29.9493 27.5762C30.1728 27.6718 30.2473 27.8631 30.1941 28.1818C30.0877 28.7342 29.9919 29.2866 29.8854 29.8497C30.9179 29.8497 31.9184 29.8497 32.9614 29.8497C32.8976 29.7328 32.8444 29.6372 32.7911 29.5416C31.7906 27.8418 30.7795 26.1526 29.779 24.4529C29.5235 24.0279 29.5768 23.8473 30.0025 23.603C31.6736 22.6468 33.3446 21.6907 35.0157 20.7346C35.4627 20.4796 35.6223 20.5221 35.8884 20.9683C36.857 22.6043 37.8043 24.2404 38.7835 25.8658C39.2625 26.6732 39.3157 27.47 38.8793 28.2986C38.6558 28.7129 38.4748 29.1379 38.262 29.5841C37.9959 29.4566 37.7404 29.3291 37.4637 29.2016C37.6979 28.7236 37.9107 28.2561 38.1449 27.7993C38.3684 27.3425 38.3684 26.8857 38.113 26.4501C37.187 24.8672 36.2503 23.2949 35.3243 21.7119C35.303 21.6801 35.2817 21.6588 35.2498 21.6057C33.7384 22.4662 32.227 23.3267 30.705 24.2085C30.7582 24.3041 30.8008 24.3785 30.8434 24.4529C31.8226 26.0252 32.8018 27.5975 33.781 29.1698C33.8874 29.3397 33.9939 29.4035 34.1961 29.4035C35.2392 29.3929 36.2822 29.3929 37.3253 29.4035C37.9001 29.4035 38.0917 29.7328 37.7936 30.2321C36.7293 32.07 35.6649 33.8973 34.6112 35.7352C34.1429 36.5426 33.451 36.9357 32.5144 36.9357C31.5778 36.925 30.6305 36.9357 29.6938 36.9357C29.5981 36.9357 29.4916 36.9357 29.3745 36.9357C29.2681 37.4668 29.1617 37.9768 29.0765 38.4973C29.0339 38.7736 28.9275 38.9967 28.6827 39.156C28.5763 39.1666 28.5018 39.1666 28.4379 39.1666Z" fill="#B2CC26"/>
<path d="M26.4582 18.7161C26.522 18.7479 26.5433 18.7479 26.5646 18.7586C28.2569 19.1729 29.9386 19.5872 31.631 20.0122C31.8332 20.0653 31.8651 19.9484 31.9183 19.8209C32.5357 18.3867 33.153 16.9419 33.7597 15.5077C33.7916 15.4334 33.8129 15.3696 33.8448 15.2846C33.8129 15.274 33.8023 15.274 33.7916 15.274C33.5255 15.3909 33.2488 15.4971 32.9827 15.614C32.5995 15.7733 32.4399 15.7202 32.2377 15.359C31.7055 14.4241 31.1626 13.4892 30.6411 12.5543C30.3218 11.9807 29.8641 11.7045 29.2042 11.7151C27.5757 11.7257 25.9579 11.7151 24.3401 11.7151C24.2549 11.7151 24.1698 11.7151 24.0421 11.7151C24.1166 11.8426 24.1591 11.9276 24.2124 12.0125C25.3193 13.8611 26.4156 15.7202 27.5225 17.5687C27.778 17.9937 27.6928 18.2168 27.2351 18.3974C26.9691 18.5036 26.7349 18.5992 26.4582 18.7161ZM29.7045 10.8333C30.5985 11.0245 31.152 11.5982 31.5565 12.3844C31.9609 13.1599 32.4186 13.9036 32.8763 14.6791C32.9614 14.6472 33.0359 14.626 33.1104 14.6047C33.5468 14.4135 33.9939 14.2329 34.4302 14.031C34.6538 13.9248 34.8666 13.8717 35.0689 14.0735C35.2498 14.2648 35.1966 14.4666 35.1008 14.6897C34.5047 16.0602 33.9193 17.4306 33.3339 18.8011C33.0679 19.4066 32.8124 20.0228 32.5463 20.6283C32.3867 21.0002 32.2483 21.0745 31.8545 20.9789C29.5661 20.4052 27.2777 19.8316 24.9893 19.2685C24.7445 19.2048 24.5742 19.0985 24.553 18.8436C24.5317 18.578 24.702 18.4505 24.9361 18.3655C25.4683 18.1636 25.9898 17.9406 26.5646 17.7175C26.0643 16.8888 25.5747 16.0708 25.0745 15.2209C25 15.3377 24.9468 15.4227 24.9042 15.5077C23.9143 17.2288 22.9351 18.9392 21.9453 20.6602C21.7005 21.0852 21.5302 21.1277 21.0938 20.8833C19.4121 19.8847 17.7304 18.9073 16.0593 17.9299C15.6762 17.7068 15.6229 17.5262 15.8358 17.1438C16.8044 15.4334 17.773 13.7336 18.7309 12.0232C19.0928 11.3645 19.6569 11.0139 20.3487 10.8333C21.0086 10.8333 21.6792 10.8333 22.3391 10.8333C22.3391 11.1202 22.3391 11.4176 22.3391 11.7151C21.8175 11.7151 21.3386 11.7257 20.8596 11.7151C20.221 11.6938 19.7633 11.97 19.4547 12.5331C18.6564 13.9779 17.8368 15.4015 17.0173 16.8357C16.9321 16.9844 16.847 17.1332 16.7512 17.3138C18.2732 18.2061 19.7846 19.0773 21.2747 19.959C21.3066 19.9272 21.3279 19.9166 21.3386 19.8953C22.3817 18.0893 23.4354 16.2726 24.4678 14.4666C24.5104 14.3922 24.4891 14.2329 24.4359 14.1585C23.9463 13.3299 23.4354 12.5012 22.9351 11.6726C22.701 11.2795 22.7222 11.1414 23.0522 10.8439C25.2767 10.8333 27.4906 10.8333 29.7045 10.8333Z" fill="#B2CC26"/>
<path d="M19.3163 26.8219C19.3376 26.8113 19.3589 26.8007 19.3802 26.7901C18.8799 25.0478 18.3797 23.3161 17.8794 21.5632C16.1551 21.7651 14.4415 21.9775 12.664 22.19C12.962 22.4131 13.1856 22.5831 13.4091 22.7531C13.771 23.0293 13.8029 23.1886 13.5794 23.5711C13.0472 24.506 12.5257 25.4515 11.9722 26.3757C11.6422 26.9282 11.6422 27.4487 11.9722 28.0118C12.7917 29.4035 13.6007 30.8164 14.4096 32.2188C14.4522 32.3038 14.5054 32.3781 14.5799 32.4844C14.6544 32.3569 14.7076 32.2719 14.7608 32.1763C15.8039 30.2959 16.847 28.4049 17.9007 26.5245C18.1136 26.142 18.3584 26.0889 18.7096 26.3545C18.9118 26.5032 19.1141 26.6626 19.3163 26.8219ZM10.8333 26.8857C11.0462 26.0464 11.589 25.3771 11.9828 24.6335C12.217 24.2085 12.4618 23.7942 12.7172 23.348C12.2596 23.008 11.8232 22.6787 11.3761 22.36C11.1846 22.2219 11.0036 22.0732 11.0781 21.7969C11.1526 21.5207 11.3655 21.4782 11.6103 21.4464C13.7497 21.1914 15.889 20.9364 18.0284 20.6815C18.4116 20.639 18.55 20.724 18.6564 21.0958C19.3056 23.348 19.9549 25.6108 20.6042 27.8631C20.6787 28.1074 20.668 28.3199 20.4232 28.4686C20.1997 28.6067 20.0081 28.5217 19.8165 28.373C19.3802 28.0224 18.9331 27.6718 18.4648 27.3106C17.9965 28.1605 17.5282 28.9892 17.0492 29.8497C17.1769 29.8603 17.2727 29.8603 17.3685 29.8603C19.2631 29.8603 21.1683 29.8603 23.0628 29.8603C23.4992 29.8603 23.6482 30.009 23.6482 30.434C23.6482 32.3887 23.6482 34.3435 23.6482 36.2983C23.6482 36.6488 23.3928 36.9144 23.0416 36.9144C21.1683 36.9144 19.295 36.9463 17.4217 36.9038C16.698 36.8826 16.0274 36.5639 15.4633 36.0964C15.3994 36.0433 15.3462 35.9795 15.3036 35.9052C15.0695 35.4802 14.846 35.0447 14.5905 34.5878C14.8566 34.4604 15.1121 34.3435 15.3994 34.2054C15.591 34.5666 15.7933 34.8959 15.9529 35.2571C16.2296 35.8733 16.7938 36.0645 17.3579 36.0858C19.1354 36.1283 20.9128 36.107 22.7329 36.107C22.7329 34.2904 22.7329 32.5375 22.7329 30.7633C22.669 30.7633 22.5839 30.7527 22.5094 30.7527C20.5935 30.7527 18.6777 30.7527 16.7512 30.7421C16.5596 30.7421 16.4638 30.8058 16.368 30.9758C15.9103 31.8044 15.4527 32.6437 14.9737 33.4617C14.8779 33.6211 14.7076 33.7804 14.5373 33.8229C14.3244 33.8761 14.1967 33.653 14.0903 33.4724C13.1111 31.7832 12.1318 30.094 11.1633 28.3942C11.0143 28.1287 10.9185 27.8206 10.8014 27.5337C10.8333 27.3319 10.8333 27.1088 10.8333 26.8857Z" fill="#B2CC26"/>
</g>
<defs>
<clipPath id="clip0_14_130">
<rect width="28.3333" height="28.3333" fill="white" transform="translate(10.8334 10.8333)"/>
</clipPath>
</defs>
</svg>
