<svg width="95" height="30" viewBox="0 0 95 30" fill="none" xmlns="http://www.w3.org/2000/svg">
<g clip-path="url(#clip0_28_260)">
<path d="M39.3855 19.2496C39.4813 19.2017 39.3616 19.1299 39.3855 19.106C39.2419 19.1778 39.4574 19.1778 39.3855 19.2496Z" fill="#B13675"/>
<path d="M43.5518 19.1777H43.5278C43.5278 19.1777 43.5278 19.1777 43.5039 19.2017L43.5518 19.1777Z" fill="#B13675"/>
<path d="M43.6714 19.1777L43.6475 19.2496C43.7193 19.2735 43.6953 19.1777 43.6714 19.1777Z" fill="#B13675"/>
<path d="M41.2534 19.1781C41.3013 19.226 41.3492 19.202 41.3731 19.1542C41.3731 19.1302 41.3013 19.1781 41.2534 19.1781Z" fill="#B13675"/>
<path d="M49.0106 19.2257C49.1063 19.1778 48.9866 19.106 49.0106 19.082C48.8669 19.1299 49.1063 19.1539 49.0106 19.2257Z" fill="#B13675"/>
<path d="M53.1768 19.1538H53.1528C53.1528 19.1538 53.1528 19.1538 53.1289 19.1777L53.1768 19.1538Z" fill="#B13675"/>
<path d="M53.2964 19.1299L53.2725 19.2017C53.3443 19.2496 53.3443 19.1538 53.2964 19.1299Z" fill="#B13675"/>
<path d="M50.9019 19.154C50.9497 19.2019 50.9976 19.1779 51.0216 19.13C50.9976 19.1061 50.9497 19.13 50.9019 19.154Z" fill="#B13675"/>
<path d="M58.6594 19.1778C58.7552 19.1299 58.6355 19.0581 58.6594 19.0342C58.5157 19.106 58.7313 19.1299 58.6594 19.1778Z" fill="#B13675"/>
<path d="M62.8252 19.106H62.8013C62.8013 19.106 62.8013 19.106 62.7773 19.1299L62.8252 19.106Z" fill="#B13675"/>
<path d="M62.9453 19.106L62.9214 19.1778C62.9932 19.2017 62.9693 19.1299 62.9453 19.106Z" fill="#B13675"/>
<path d="M60.5269 19.106C60.5748 19.1539 60.6227 19.1299 60.6467 19.082C60.6467 19.082 60.5748 19.106 60.5269 19.106Z" fill="#B13675"/>
<path d="M89.9521 19.2496C89.8564 19.1778 90.0958 19.1778 89.9521 19.106C89.9521 19.1299 89.8324 19.2017 89.9521 19.2496Z" fill="#B13675"/>
<path d="M85.6666 19.2496L85.6427 19.1777C85.6187 19.1777 85.5948 19.2735 85.6666 19.2496Z" fill="#B13675"/>
<path d="M87.917 19.1542C87.9409 19.202 88.0128 19.226 88.0367 19.1781C88.0128 19.1781 87.9649 19.1302 87.917 19.1542Z" fill="#B13675"/>
<path d="M80.3033 19.2257C80.2076 19.1539 80.447 19.1539 80.3033 19.082C80.3273 19.082 80.2076 19.1778 80.3033 19.2257Z" fill="#B13675"/>
<path d="M75.4673 19.1776C75.4673 19.1537 75.4434 19.1537 75.4673 19.1776C75.4434 19.1776 75.4434 19.1776 75.4434 19.1776C75.4434 19.1776 75.4434 19.1776 75.4673 19.1776Z" fill="#B13675"/>
<path d="M76.0417 19.2256L76.0178 19.1538C75.9699 19.1538 75.9699 19.2496 76.0417 19.2256Z" fill="#B13675"/>
<path d="M78.2925 19.13C78.3164 19.1779 78.3883 19.2019 78.4122 19.154C78.3643 19.13 78.3164 19.1061 78.2925 19.13Z" fill="#B13675"/>
<path d="M70.6786 19.1778C70.5828 19.106 70.8222 19.106 70.6786 19.0342C70.7025 19.0581 70.5589 19.1539 70.6786 19.1778Z" fill="#B13675"/>
<path d="M66.5366 19.1298C66.5366 19.1058 66.5127 19.1058 66.5366 19.1298H66.4888H66.5366Z" fill="#B13675"/>
<path d="M66.3931 19.1778L66.3692 19.106C66.3452 19.1299 66.3213 19.2017 66.3931 19.1778Z" fill="#B13675"/>
<path d="M68.6435 19.082C68.6674 19.1299 68.7392 19.1539 68.7632 19.106C68.7392 19.106 68.6913 19.082 68.6435 19.082Z" fill="#B13675"/>
<path d="M35.2915 18.3159C35.2915 18.3877 35.2915 19.1539 35.2915 19.2497C35.507 19.2257 35.7943 19.2736 35.914 19.1778C36.1534 19.2257 36.345 19.3215 36.6083 19.3215V19.2976C36.7041 19.2736 36.8717 19.2497 36.8717 19.13C37.0633 19.1539 37.183 19.3215 37.3984 19.2736L37.3506 19.2257C37.3984 19.2018 37.4942 19.2497 37.5182 19.2736C37.5421 19.2736 37.5182 19.2497 37.5182 19.2257C37.566 19.1778 37.6139 19.2497 37.6379 19.2497L37.6139 19.2018C37.7815 19.13 38.0688 19.2736 38.3083 19.2497C38.2604 19.2497 38.2843 19.2018 38.3083 19.1778C38.404 19.2976 38.6674 19.2736 38.7632 19.2976L38.7153 19.2497C38.9068 19.3215 38.8829 19.13 39.0744 19.2018L38.9787 19.2736C39.0505 19.2497 39.1223 19.2736 39.0984 19.3215C39.1941 19.2736 39.0984 19.2257 39.242 19.2257C39.242 19.2018 39.1463 19.2018 39.1941 19.1539L39.3857 19.0581C39.3857 19.0581 39.3857 19.0581 39.4096 19.0581H39.3857C39.3857 19.0581 39.4096 19.0342 39.4814 19.0581C39.4575 19.2257 39.6251 19.0581 39.5533 19.2257C39.8166 19.2497 40.0321 19.13 40.2716 19.2018C40.3673 19.0581 40.7265 19.2018 40.7025 19.0103C40.8222 19.0103 40.9419 19.0581 41.0138 19.13C40.9898 19.1539 40.9659 19.13 40.9419 19.106C40.9659 19.1539 41.1335 19.1539 41.1814 19.1539C41.1095 19.106 40.9659 19.0581 40.8941 18.9863C41.0138 19.0103 41.1814 19.0821 41.2293 19.106L41.2532 19.0103C41.349 19.0821 41.325 18.9384 41.4208 19.0342L41.3969 19.0581C41.5645 19.0581 41.5884 19.1539 41.7321 19.1778V19.13C41.7799 19.106 41.8757 19.2018 41.9236 19.13H41.8039C41.8039 19.0581 41.8996 19.0342 41.9475 18.9863C42.0672 19.0103 41.9954 19.106 42.0433 19.106C42.0672 19.0342 42.0433 19.0821 42.0194 19.0103C42.1391 19.0342 42.3306 19.0581 42.4024 19.1539V19.13C42.5461 19.13 42.6419 19.2497 42.7376 19.1778H42.7137C42.8095 19.0821 43.001 19.2736 43.001 19.106C43.0489 19.0821 42.8813 19.106 42.9771 19.0342C43.1447 18.9863 43.0728 19.1778 43.2165 19.13C43.1925 19.13 43.1925 19.13 43.1925 19.106C43.2883 19.106 43.432 19.13 43.5277 19.1539C43.6714 19.0103 43.9348 19.2018 44.1024 19.0342C44.0545 19.0821 44.1502 19.106 44.1502 19.13V19.106C44.1981 19.106 44.2221 19.1539 44.246 19.1778C44.2939 19.13 44.4136 19.2257 44.4376 19.2018C44.4376 19.2257 44.4854 19.2257 44.5333 19.2257C44.4376 19.1778 44.5094 19.1539 44.4615 19.106C44.6052 19.0821 44.6291 19.2736 44.7967 19.2257L44.8925 19.1539C44.8925 19.2018 44.9404 19.2257 44.9643 19.2257C45.1798 19.2018 45.4671 19.2257 45.5868 19.13C45.8262 19.1778 46.0178 19.2736 46.2811 19.2736V19.2497C46.3769 19.2257 46.5445 19.2018 46.5445 19.0821C46.736 19.106 46.8558 19.2736 47.0712 19.2257L47.0234 19.1778C47.0712 19.1539 47.167 19.2018 47.191 19.2257C47.2149 19.2257 47.191 19.2018 47.191 19.1778C47.2388 19.13 47.2867 19.2018 47.3107 19.2018L47.2867 19.1539C47.4543 19.0821 47.7416 19.2257 47.9811 19.2018C47.9332 19.2018 47.9571 19.1539 47.9811 19.13C48.0768 19.2497 48.3402 19.2257 48.436 19.2497L48.3881 19.2018C48.5796 19.2736 48.5557 19.0821 48.7472 19.1539L48.6514 19.2257C48.7233 19.2018 48.7951 19.2257 48.7712 19.2736C48.8669 19.2257 48.7712 19.1778 48.9148 19.1778C48.9148 19.1539 48.819 19.1539 48.8669 19.106L49.0585 19.0103C49.0585 19.0103 49.0585 19.0103 49.0824 19.0103H49.0585C49.0585 19.0103 49.0824 18.9863 49.1542 19.0103C49.1303 19.1778 49.2979 19.0103 49.2261 19.1778C49.4894 19.2018 49.7049 19.0821 49.9443 19.1539C50.0401 19.0103 50.3993 19.1539 50.3753 18.9624C50.495 18.9624 50.6147 19.0103 50.6866 19.0821C50.6626 19.106 50.6387 19.0821 50.6147 19.0581C50.6387 19.106 50.8063 19.106 50.8542 19.106C50.7823 19.0581 50.6387 19.0103 50.5668 18.9384C50.6866 18.9624 50.8542 19.0342 50.902 19.0581L50.926 18.9624C51.0218 19.0342 50.9978 18.8905 51.0936 18.9863L51.0696 19.0103C51.2372 19.0103 51.2612 19.106 51.4048 19.13V19.0821C51.4527 19.0581 51.5485 19.1539 51.5964 19.0821H51.4767C51.4767 19.0103 51.5724 18.9863 51.6203 18.9384C51.74 18.9624 51.6682 19.0581 51.7161 19.0581C51.74 18.9863 51.7161 19.0342 51.6921 18.9624C51.8119 18.9863 52.0034 19.0103 52.0752 19.106V19.0821C52.2189 19.0821 52.3147 19.2018 52.4104 19.13H52.3865C52.4823 19.0342 52.6738 19.2257 52.6738 19.0581C52.7217 19.0342 52.5541 19.0581 52.6498 18.9863C52.8174 18.9384 52.7456 19.13 52.8893 19.0821C52.8653 19.0821 52.8653 19.0821 52.8653 19.0581C52.9611 19.0581 53.1048 19.0821 53.2005 19.106C53.3442 18.9624 53.6076 19.1539 53.7752 18.9863C53.7273 19.0342 53.823 19.0581 53.823 19.0821V19.0581C53.8709 19.0581 53.8949 19.106 53.9188 19.13C53.9667 19.0821 54.0864 19.1778 54.1103 19.1539C54.1103 19.1778 54.1582 19.1778 54.2061 19.1778C54.1103 19.13 54.1822 19.106 54.1343 19.0581C54.2779 19.0342 54.3019 19.2257 54.4695 19.1778L54.5653 19.106C54.5653 19.1539 54.6131 19.1778 54.6371 19.1778C54.8526 19.1539 55.1399 19.1778 55.2596 19.0821C55.499 19.13 55.6906 19.2257 55.9539 19.2257V19.2018C56.0497 19.1778 56.2173 19.1539 56.2173 19.0342C56.4088 19.0581 56.5285 19.2257 56.744 19.1778L56.6961 19.13C56.744 19.106 56.8398 19.1539 56.8637 19.1778C56.8877 19.1778 56.8637 19.1539 56.8637 19.13C56.9116 19.0821 56.9595 19.1539 56.9835 19.1539L56.9595 19.106C57.1271 19.0342 57.4144 19.1778 57.6538 19.1539C57.606 19.1539 57.6299 19.106 57.6538 19.0821C57.7496 19.2018 58.013 19.1778 58.1087 19.2018L58.0609 19.1539C58.2524 19.2257 58.2285 19.0342 58.42 19.106L58.3242 19.1778C58.3961 19.1539 58.4679 19.1778 58.4439 19.2257C58.5397 19.1778 58.4439 19.13 58.5876 19.13C58.5876 19.106 58.4918 19.106 58.5397 19.0581L58.7313 18.9624C58.7313 18.9624 58.7313 18.9624 58.7552 18.9624H58.7313C58.7313 18.9624 58.7552 18.9384 58.827 18.9624C58.8031 19.13 58.9707 18.9624 58.8989 19.13C59.1622 19.1539 59.3777 19.0342 59.6171 19.106C59.7129 18.9624 60.072 19.106 60.0481 18.9145C60.1678 18.9145 60.2875 18.9624 60.3594 19.0342C60.3354 19.0581 60.3115 19.0342 60.2875 19.0103C60.3115 19.0581 60.4791 19.0581 60.5269 19.0581C60.4551 19.0103 60.3115 18.9624 60.2396 18.8905C60.3594 18.9145 60.5269 18.9863 60.5748 19.0103L60.5988 18.9145C60.6945 18.9863 60.6706 18.8427 60.7664 18.9384L60.7424 18.9624C60.91 18.9624 60.934 19.0581 61.0776 19.0821V19.0342C61.1255 19.0103 61.2213 19.106 61.2692 19.0342H61.1495C61.1495 18.9624 61.2452 18.9384 61.2931 18.8905C61.4128 18.9145 61.341 19.0103 61.3889 19.0103C61.4128 18.9384 61.3889 18.9863 61.3649 18.9145C61.4846 18.9384 61.6762 18.9624 61.748 19.0581V19.0342C61.8917 19.0342 61.9874 19.1539 62.0832 19.0821H62.0593C62.155 18.9863 62.3466 19.1778 62.3466 19.0103C62.3945 18.9863 62.2269 19.0103 62.3226 18.9384C62.4902 18.8905 62.4184 19.0821 62.5621 19.0342C62.5381 19.0342 62.5381 19.0342 62.5381 19.0103C62.6339 19.0103 62.7775 19.0342 62.8733 19.0581C63.017 18.9145 63.2803 19.106 63.4479 18.9384C63.4001 18.9863 63.4958 19.0103 63.4958 19.0342V19.0103C63.5437 19.0103 63.5677 19.0581 63.5916 19.0821C63.6395 19.0342 63.7592 19.13 63.7831 19.106C63.7831 19.13 63.831 19.13 63.8789 19.13C63.7831 19.0821 63.855 19.0581 63.8071 19.0103C63.9507 18.9863 63.9747 19.1778 64.1423 19.13L64.238 19.0581C64.238 19.0581 64.262 19.0581 64.3099 19.0821C64.4535 19.2018 64.5254 19.0342 64.5254 19.106C64.5014 19.2257 64.7648 19.106 64.7887 19.106C64.8127 19.106 65.076 19.2257 65.0521 19.106C65.0281 19.0581 65.1 19.2257 65.2676 19.0821C65.2915 19.0581 65.3394 19.0821 65.3394 19.0581L65.4352 19.13C65.6028 19.1539 65.6267 18.9863 65.7704 19.0103C65.7225 19.0581 65.7943 19.106 65.6985 19.13C65.7464 19.13 65.7943 19.13 65.7943 19.106C65.8182 19.13 65.938 19.0342 65.9858 19.0821C66.0098 19.0581 66.0098 19.0103 66.0816 19.0103V19.0342C66.0816 19.0103 66.1774 19.0103 66.1295 18.9384C66.2971 19.106 66.5605 18.9145 66.7041 19.0581C66.8238 19.0342 66.9436 19.0342 67.0393 19.0103C67.0393 19.0342 67.0393 19.0342 67.0154 19.0342C67.159 19.0821 67.1111 18.8905 67.2548 18.9384C67.3266 19.0103 67.159 18.9863 67.2309 19.0103C67.2548 19.1778 67.4224 18.9863 67.5182 19.0821H67.4942C67.5661 19.13 67.6858 19.0103 67.8294 19.0342V19.0581C67.9252 18.9624 68.0928 18.9384 68.2125 18.9145C68.1646 18.9863 68.1646 18.9384 68.1886 19.0103C68.2364 19.0103 68.1646 18.9145 68.2843 18.8905C68.3322 18.9145 68.404 18.9624 68.428 19.0342H68.3083C68.3562 19.13 68.4519 19.0342 68.4998 19.0342V19.0821C68.6674 19.0581 68.6674 18.9624 68.835 18.9624L68.8111 18.9384C68.9068 18.8427 68.8829 18.9863 68.9787 18.9145L69.0026 19.0103C69.0744 18.9863 69.2181 18.9145 69.3378 18.8905C69.266 18.9624 69.1463 19.0103 69.0505 19.0581C69.1223 19.0581 69.266 19.0581 69.2899 19.0103C69.266 19.0103 69.242 19.0342 69.2181 19.0342C69.2899 18.9624 69.4096 18.9145 69.5293 18.9145C69.5054 19.106 69.8645 18.9624 69.9603 19.106C70.1758 19.0342 70.4152 19.13 70.6786 19.13C70.5828 18.9863 70.7504 19.13 70.7504 18.9624C70.8222 18.9624 70.8222 18.9624 70.8462 18.9624H70.8222C70.8222 18.9624 70.8222 18.9624 70.8462 18.9624L71.0377 19.0581C71.0856 19.106 70.9898 19.0821 70.9898 19.13C71.1335 19.13 71.0377 19.2018 71.1335 19.2257C71.1096 19.1778 71.1814 19.1539 71.2532 19.1778L71.1574 19.106C71.349 19.0103 71.325 19.2257 71.5166 19.1539L71.4687 19.2018C71.5645 19.1778 71.8278 19.2018 71.9236 19.0821C71.9475 19.106 71.9715 19.1539 71.9236 19.1539C72.163 19.1778 72.4264 19.0103 72.6179 19.106L72.594 19.1539C72.6419 19.1539 72.6658 19.0821 72.7137 19.13C72.7137 19.1539 72.6898 19.1778 72.7137 19.1778C72.7376 19.1539 72.8334 19.106 72.8813 19.13L72.8334 19.1778C73.0489 19.2257 73.1686 19.0821 73.3601 19.0342C73.3601 19.1539 73.5277 19.1778 73.6235 19.2018V19.2257C73.8869 19.2497 74.0784 19.13 74.3179 19.0821C74.4376 19.1778 74.7249 19.1539 74.9404 19.1778C74.9643 19.1778 75.0122 19.1539 75.0122 19.106L75.108 19.1778C75.2756 19.2018 75.2995 19.0342 75.4432 19.0581C75.3953 19.106 75.4671 19.1539 75.3713 19.1778C75.4192 19.1778 75.4671 19.1778 75.4671 19.1539C75.491 19.1778 75.6108 19.0821 75.6586 19.13C75.6826 19.106 75.6826 19.0581 75.7544 19.0581V19.0821C75.7544 19.0581 75.8502 19.0581 75.8023 18.9863C75.9699 19.1539 76.2333 18.9624 76.3769 19.106C76.4966 19.0821 76.6163 19.0821 76.7121 19.0581C76.7121 19.0821 76.7121 19.0821 76.6882 19.0821C76.8318 19.13 76.7839 18.9384 76.9276 18.9863C76.9994 19.0581 76.8318 19.0342 76.9037 19.0581C76.9276 19.2257 77.0952 19.0342 77.191 19.13H77.167C77.2388 19.1778 77.3586 19.0581 77.5022 19.0821V19.106C77.598 19.0103 77.7656 18.9863 77.8853 18.9624C77.8374 19.0342 77.8374 18.9863 77.8614 19.0581C77.9092 19.0581 77.8374 18.9624 77.9571 18.9384C78.005 18.9624 78.0768 19.0103 78.1008 19.0821H77.9811C78.0289 19.1778 78.1247 19.0821 78.1726 19.0821V19.13C78.3402 19.106 78.3402 19.0103 78.5078 19.0103L78.4839 18.9863C78.5796 18.8905 78.5557 19.0342 78.6515 18.9624L78.6754 19.0581C78.7472 19.0342 78.8909 18.9624 79.0106 18.9384C78.9388 19.0103 78.819 19.0581 78.7233 19.106C78.7951 19.106 78.9388 19.106 78.9627 19.0581C78.9388 19.0581 78.9148 19.0821 78.8909 19.0821C78.9627 19.0103 79.0824 18.9624 79.2021 18.9624C79.1782 19.1539 79.5373 19.0103 79.6331 19.1539C79.8486 19.0821 80.088 19.1778 80.3514 19.1778C80.2556 19.0342 80.4232 19.1778 80.4232 19.0103C80.495 19.0103 80.495 19.0103 80.519 19.0103H80.495C80.495 19.0103 80.495 19.0103 80.519 19.0103L80.7105 19.106C80.7584 19.1539 80.6626 19.13 80.6626 19.1778C80.8063 19.1778 80.7105 19.2497 80.8063 19.2736C80.7823 19.2257 80.8542 19.2018 80.926 19.2257L80.8302 19.1539C81.0218 19.0581 80.9978 19.2736 81.1894 19.2018L81.1415 19.2497C81.2372 19.2257 81.5006 19.2497 81.5964 19.13C81.6203 19.1539 81.6443 19.2018 81.5964 19.2018C81.8358 19.2257 82.0992 19.0581 82.2907 19.1539L82.2668 19.2018C82.3147 19.2018 82.3386 19.13 82.3865 19.1778C82.3865 19.2018 82.3625 19.2257 82.3865 19.2257C82.4104 19.2018 82.5062 19.1539 82.5541 19.1778L82.5062 19.2257C82.7217 19.2736 82.8414 19.13 83.0329 19.0821C83.0329 19.2018 83.2005 19.2257 83.2963 19.2497V19.2736C83.5597 19.2976 83.7512 19.1778 83.9906 19.13C84.1104 19.2257 84.3977 19.2018 84.6131 19.2257C84.6371 19.2257 84.685 19.2018 84.685 19.1539L84.7807 19.2257C84.9483 19.2497 84.9723 19.0821 85.1159 19.106C85.0681 19.1539 85.1399 19.2018 85.0441 19.2257C85.092 19.2257 85.1399 19.2257 85.1399 19.2018C85.1638 19.2257 85.2835 19.13 85.3314 19.1778C85.3554 19.1539 85.3554 19.106 85.4272 19.106V19.13C85.4272 19.106 85.523 19.106 85.4751 19.0342C85.6427 19.2018 85.906 19.0103 86.0497 19.1539C86.1694 19.13 86.2891 19.13 86.3849 19.106C86.3849 19.13 86.3849 19.13 86.361 19.13C86.5046 19.1778 86.4567 18.9863 86.6004 19.0342C86.6722 19.106 86.5046 19.0821 86.5764 19.106C86.6004 19.2736 86.768 19.0821 86.8637 19.1778H86.8398C86.9116 19.2257 87.0313 19.106 87.175 19.13V19.1539C87.2708 19.0581 87.4384 19.0342 87.5581 19.0103C87.5102 19.0821 87.5102 19.0342 87.5341 19.106C87.582 19.106 87.5102 19.0103 87.6299 18.9863C87.6778 19.0103 87.7496 19.0581 87.7736 19.13H87.6539C87.7017 19.2257 87.7975 19.13 87.8454 19.13V19.1778C88.013 19.1539 88.013 19.0581 88.1806 19.0581L88.1566 19.0342C88.2524 18.9384 88.2285 19.0821 88.3242 19.0103L88.3482 19.106C88.42 19.0821 88.5637 19.0103 88.6834 18.9863C88.6116 19.0581 88.4918 19.106 88.3961 19.1539C88.4679 19.1539 88.6116 19.1539 88.6355 19.106C88.6116 19.106 88.5876 19.13 88.5637 19.13C88.6355 19.0581 88.7552 19.0103 88.8749 19.0103C88.851 19.2018 89.2101 19.0581 89.3059 19.2018C89.5214 19.13 89.7608 19.2257 90.0242 19.2257C89.9284 19.0821 90.096 19.2257 90.096 19.0581C90.1678 19.0581 90.1678 19.0581 90.1918 19.0581H90.1678C90.1678 19.0581 90.1678 19.0581 90.1918 19.0581L90.3833 19.1539C90.4312 19.2018 90.3354 19.1778 90.3354 19.2257C90.4791 19.2257 90.3833 19.2976 90.4791 19.3215C90.4551 19.2736 90.527 19.2497 90.5988 19.2736L90.503 19.2018C90.6946 19.106 90.6706 19.3215 90.8622 19.2497L90.8143 19.2976C90.91 19.2736 91.1734 19.2976 91.2692 19.1778C91.2931 19.2018 91.3171 19.2497 91.2692 19.2497C91.5086 19.2736 91.772 19.106 91.9635 19.2018L91.9396 19.2497C91.9875 19.2497 92.0114 19.1778 92.0593 19.2257C92.0593 19.2497 92.0353 19.2736 92.0593 19.2736C92.0832 19.2497 92.179 19.2018 92.2269 19.2257L92.179 19.2736C92.3945 19.3215 92.5142 19.1778 92.7057 19.13C92.7057 19.2497 92.8733 19.2736 92.9691 19.2976V19.3215C93.2325 19.3454 93.424 19.2257 93.6634 19.1778C93.7831 19.2736 94.0704 19.2257 94.2859 19.2497C94.2859 19.13 94.2859 18.3877 94.2859 18.3159H35.2915Z" fill="#B13675"/>
<path d="M41.0616 14.2458L36.6083 7.70952V14.2458H35.3872V5.55469H36.5125L41.3728 12.6417L46.2811 5.55469H47.4064V14.2219H46.1614V7.66163L41.6602 14.2458H41.0616Z" fill="#F2F2F2"/>
<path d="M59.4016 6.63212H53.3441C53.0329 6.63212 52.7216 6.70395 52.4104 6.82366C52.0991 6.94337 51.8118 7.13491 51.5724 7.35039C51.3329 7.58982 51.1175 7.85319 50.9499 8.16444C50.7823 8.47569 50.7104 8.81089 50.6865 9.17003H59.3298V10.1996H50.6865V10.3911C50.6865 10.7981 50.7583 11.1812 50.902 11.5164C51.0456 11.8516 51.2611 12.1389 51.5005 12.4023C51.7639 12.6417 52.0512 12.8332 52.3864 12.9769C52.7216 13.1205 53.0807 13.1684 53.4878 13.1684H59.3776V14.198H53.0807C52.6019 14.198 52.147 14.1022 51.716 13.9346C51.2851 13.767 50.878 13.5036 50.5428 13.1684C50.2076 12.8332 49.9203 12.4502 49.7049 11.9952C49.4894 11.5403 49.3936 11.0375 49.3936 10.4629V9.24185C49.3936 8.69118 49.4894 8.18838 49.7288 7.73347C49.9443 7.27857 50.2316 6.89549 50.5907 6.56029C50.9499 6.22509 51.3329 5.98567 51.7879 5.79413C52.2428 5.60259 52.6977 5.53076 53.1526 5.53076H59.3776V6.63212H59.4016Z" fill="#F2F2F2"/>
<path d="M71.0377 14.2458H64.7886C64.2619 14.2458 63.7831 14.15 63.3521 13.9824C62.9211 13.8148 62.538 13.5515 62.2028 13.2402C61.8916 12.929 61.6282 12.5219 61.4606 12.067C61.2691 11.6121 61.1973 11.0854 61.1973 10.5108V5.57861H62.4662V10.415C62.4662 10.846 62.538 11.2291 62.6578 11.5882C62.7775 11.9234 62.969 12.2107 63.1845 12.4741C63.4239 12.7135 63.6873 12.905 63.9985 13.0247C64.3098 13.1445 64.6689 13.2163 65.052 13.2163H71.0377V14.2458Z" fill="#F2F2F2"/>
<path d="M73.3363 5.57861V9.24182H77.9093C78.2685 9.24182 78.5558 9.19394 78.8192 9.09817C79.0586 9.0024 79.298 8.78691 79.4896 8.45172C79.5374 8.35595 79.6571 8.18835 79.8008 7.90104C79.9684 7.61373 80.136 7.32642 80.3036 7.01517C80.4951 6.70391 80.6627 6.39266 80.8064 6.12929C80.95 5.84198 81.0698 5.67438 81.1176 5.57861H82.4824L80.6388 8.88268C80.5191 9.09817 80.3994 9.26576 80.2557 9.43336C80.1121 9.60096 79.9205 9.72067 79.6811 9.7925V9.81644C79.9684 9.86433 80.2078 9.9601 80.3754 10.1038C80.567 10.2474 80.7106 10.4629 80.8543 10.7263L82.7697 14.2698H81.405L79.729 11.1572C79.6572 10.9896 79.5614 10.8699 79.4417 10.7502C79.3459 10.6305 79.2022 10.5587 79.0586 10.4868C78.9149 10.415 78.7234 10.3671 78.5319 10.3432C78.3164 10.3192 78.0769 10.2953 77.7896 10.2953H73.3363V14.2698H72.0913V5.57861H73.3363Z" fill="#F2F2F2"/>
<path d="M94.1183 6.63212H88.0608C87.7495 6.63212 87.4383 6.70395 87.127 6.82366C86.8158 6.94337 86.5285 7.13491 86.289 7.35039C86.0496 7.58982 85.8341 7.85319 85.6665 8.16444C85.4989 8.47569 85.4271 8.81089 85.4032 9.17003H94.0464V10.1996H85.4032V10.3911C85.4032 10.7981 85.475 11.1812 85.6186 11.5164C85.7623 11.8516 85.9778 12.1389 86.2172 12.4023C86.4806 12.6417 86.7679 12.8332 87.1031 12.9769C87.4383 13.1205 87.7974 13.1684 88.2044 13.1684H94.0943V14.198H87.7974C87.3186 14.198 86.8637 14.1022 86.4327 13.9346C86.0017 13.767 85.5947 13.5036 85.2595 13.1684C84.9243 12.8332 84.637 12.4502 84.4215 11.9952C84.206 11.5403 84.1103 11.0375 84.1103 10.4629V9.24185C84.1103 8.69118 84.206 8.18838 84.4455 7.73347C84.6849 7.27857 84.9482 6.89549 85.3074 6.56029C85.6665 6.22509 86.0496 5.98567 86.5045 5.79413C86.9594 5.60259 87.4143 5.53076 87.8692 5.53076H94.0943V6.63212H94.1183Z" fill="#F2F2F2"/>
<path d="M28.9946 7.49422L24.4455 1.10156V6.68017C24.4216 6.68017 24.3976 6.68017 24.3737 6.68017C24.3258 6.70412 24.3018 6.70412 24.2779 6.752H24.3018C24.3018 6.77594 24.2779 6.77594 24.254 6.77594C24.254 6.79989 24.23 6.77594 24.23 6.79989C24.2061 6.84777 24.1342 6.87171 24.1103 6.89566C24.0864 6.89566 24.0385 6.94354 24.0145 6.94354H24.0385C23.9906 6.96748 24.0385 6.99143 23.9906 7.01537V6.99143C23.9906 7.01537 23.9666 7.01537 23.9666 6.99143C23.9666 7.01537 23.9666 7.01537 23.9666 7.03931H23.9906L23.9666 7.0872C23.9666 7.0872 23.9666 7.0872 23.9427 7.11114C23.9188 7.0872 23.9188 7.13508 23.9188 7.0872C23.8709 7.13508 23.8469 7.18297 23.799 7.20691C23.799 7.25479 23.7272 7.27874 23.7512 7.30268C23.7272 7.32662 23.7033 7.32662 23.6793 7.32662C23.6793 7.32662 23.6793 7.32662 23.7033 7.32662C23.6793 7.32662 23.6554 7.35056 23.6554 7.35056C23.6793 7.35056 23.7033 7.32662 23.7272 7.32662C23.7033 7.35056 23.6554 7.35056 23.6554 7.37451V7.39845C23.6315 7.39845 23.6554 7.42239 23.6315 7.42239C23.6075 7.44633 23.5836 7.44633 23.5596 7.47028C23.5596 7.47028 23.5357 7.47028 23.5357 7.49422L23.5596 7.47028C23.5596 7.49422 23.5596 7.49422 23.5596 7.51816C23.5357 7.5421 23.5357 7.51816 23.5357 7.51816C23.5357 7.5421 23.5357 7.51816 23.5596 7.51816C23.5357 7.5421 23.5117 7.56605 23.4639 7.56605C23.4399 7.58999 23.416 7.58999 23.392 7.61393C23.392 7.63787 23.3202 7.63787 23.3441 7.66182C23.3441 7.68576 23.3681 7.63787 23.3681 7.66182C23.3441 7.68576 23.3202 7.66182 23.3202 7.68576C23.2963 7.7097 23.2723 7.7097 23.2484 7.73364C23.2484 7.78153 23.1765 7.80547 23.1765 7.85336C23.1765 7.82941 23.1526 7.85336 23.1526 7.85336H23.1287C23.1287 7.8773 23.1047 7.8773 23.1047 7.8773C23.1047 7.8773 23.1047 7.8773 23.0808 7.8773C23.1047 7.8773 23.1047 7.8773 23.1047 7.8773C23.0808 7.90124 23.0568 7.8773 23.0329 7.90124V7.92518H23.0089C22.985 7.97307 22.9132 7.99701 22.9132 8.0449C22.8653 8.06884 22.8174 8.09278 22.7695 8.14067C22.7456 8.16461 22.7216 8.18855 22.7456 8.21249C22.6977 8.23644 22.6737 8.23644 22.6259 8.28432H22.6498C22.6498 8.30826 22.6259 8.30827 22.6019 8.30827C22.6019 8.33221 22.578 8.30827 22.578 8.33221C22.554 8.38009 22.4822 8.40404 22.4583 8.42798C22.4343 8.42798 22.3864 8.47586 22.3625 8.47586H22.3864C22.3386 8.49981 22.3864 8.52375 22.3386 8.54769V8.52375C22.3386 8.54769 22.3146 8.54769 22.3146 8.52375C22.3146 8.54769 22.3146 8.54769 22.3146 8.57163H22.3386L22.3146 8.61952C22.3146 8.61952 22.3146 8.61952 22.2907 8.64346C22.2667 8.61952 22.2667 8.6674 22.2667 8.61952C22.2188 8.6674 22.1949 8.71529 22.147 8.73923C22.147 8.78712 22.0752 8.81106 22.0991 8.835C22.0752 8.85894 22.0512 8.85894 22.0273 8.85894C22.0273 8.85894 22.0273 8.85894 22.0512 8.85894C22.0273 8.85894 22.0034 8.88289 22.0034 8.88289C22.0273 8.88289 22.0512 8.85894 22.0752 8.85894C22.0512 8.88289 22.0034 8.88289 22.0034 8.90683V8.93077C21.9794 8.93077 22.0034 8.95471 21.9794 8.95471C21.9555 8.97866 21.9315 8.97866 21.9076 9.0026C21.9076 9.0026 21.8836 9.0026 21.8836 9.02654L21.9076 9.0026C21.9076 9.02654 21.9076 9.02654 21.9076 9.05048C21.8836 9.07443 21.8836 9.05048 21.8836 9.05048C21.8836 9.07443 21.8836 9.05048 21.9076 9.05048C21.8836 9.07443 21.8597 9.09837 21.8118 9.09837C21.7879 9.12231 21.7639 9.12231 21.74 9.14625C21.74 9.1702 21.6682 9.1702 21.6921 9.19414C21.6921 9.21808 21.716 9.1702 21.716 9.19414C21.6921 9.21808 21.6682 9.19414 21.6682 9.21808C21.6442 9.24202 21.6203 9.24202 21.5963 9.26597C21.5963 9.31385 21.5245 9.3378 21.5245 9.38568C21.5245 9.36174 21.5006 9.38568 21.5006 9.38568H21.4766C21.4766 9.40962 21.4527 9.40962 21.4527 9.40962C21.4527 9.40962 21.4527 9.40962 21.4287 9.40962C21.4527 9.40962 21.4527 9.40962 21.4527 9.40962C21.4287 9.43357 21.4048 9.40962 21.3809 9.43357V9.45751H21.3569C21.333 9.50539 21.2611 9.52934 21.2611 9.57722C21.2133 9.60116 21.1654 9.62511 21.1175 9.67299C21.0935 9.69693 21.0696 9.72088 21.0935 9.74482C21.0457 9.76876 21.0217 9.76876 20.9738 9.81665H20.9978C20.9978 9.84059 20.9738 9.84059 20.9499 9.84059C20.9499 9.86453 20.9259 9.84059 20.9259 9.86453C20.902 9.91242 20.8302 9.93636 20.8062 9.9603C20.7823 9.9603 20.7344 10.0082 20.7105 10.0082H20.7344C20.6865 10.0321 20.7344 10.0561 20.6865 10.08V10.0561C20.6865 10.08 20.6626 10.08 20.6626 10.0561C20.6626 10.08 20.6626 10.08 20.6626 10.104H20.6865L20.6626 10.1518C20.6626 10.1518 20.6626 10.1518 20.6386 10.1758C20.6147 10.1518 20.6147 10.1997 20.6147 10.1518C20.5668 10.1997 20.5429 10.2476 20.495 10.2716C20.495 10.3194 20.4232 10.3434 20.4471 10.3673C20.4232 10.3913 20.3992 10.3913 20.3753 10.3913C20.3753 10.3913 20.3753 10.3913 20.3992 10.3913C20.3753 10.3913 20.3513 10.4152 20.3513 10.4152C20.3753 10.4152 20.3992 10.3913 20.4232 10.3913C20.3992 10.4152 20.3513 10.4152 20.3513 10.4392V10.4631C20.3274 10.4631 20.3513 10.487 20.3274 10.487C20.3034 10.511 20.2795 10.511 20.2556 10.5349C20.2556 10.5349 20.2316 10.5349 20.2316 10.5589L20.2556 10.5349C20.2556 10.5589 20.2556 10.5589 20.2556 10.5828C20.2316 10.6067 20.2316 10.5828 20.2316 10.5828C20.2316 10.6067 20.2316 10.5828 20.2556 10.5828C20.2316 10.6067 20.2077 10.6307 20.1598 10.6307C20.1358 10.6546 20.1119 10.6546 20.088 10.6786C20.088 10.7025 20.0161 10.7025 20.0401 10.7265C20.0401 10.7504 20.064 10.7025 20.064 10.7265C20.0401 10.7504 20.0161 10.7265 20.0161 10.7504C19.9922 10.7743 19.9682 10.7743 19.9443 10.7983C19.9443 10.8462 19.8725 10.8701 19.8725 10.918C19.8725 10.8941 19.8485 10.918 19.8485 10.918H19.8246C19.8246 10.9419 19.8006 10.9419 19.8006 10.9419C19.8006 10.9419 19.8006 10.9419 19.7767 10.9419C19.8006 10.9419 19.8006 10.9419 19.8006 10.9419C19.7767 10.9659 19.7528 10.9419 19.7288 10.9659V10.9898C19.7288 10.9898 19.7288 10.9898 19.7049 10.9898C19.657 10.9898 19.6809 11.0377 19.657 11.0138C19.657 10.9898 19.6091 11.0617 19.6091 11.0617C19.6091 11.0617 19.5373 11.0856 19.5612 11.1095C19.5612 11.1095 19.5373 11.1095 19.5373 11.1335C19.5373 11.1335 19.5373 11.1335 19.5373 11.1574H19.5133C19.4894 11.1814 19.5133 11.2053 19.4655 11.2293C19.4655 11.2053 19.4415 11.2293 19.4655 11.2053L19.4415 11.2293L19.4176 11.2532V11.2771V11.3011C19.3697 11.3011 19.3457 11.3729 19.2979 11.3729C19.2739 11.3969 19.25 11.4208 19.25 11.4447C19.226 11.4687 19.25 11.4687 19.226 11.4926C19.2021 11.4926 19.226 11.4687 19.226 11.4687C19.2021 11.4447 19.2021 11.4926 19.1542 11.5166C19.1303 11.5166 19.1303 11.5645 19.1063 11.5884C19.1063 11.6123 19.0824 11.6363 19.0584 11.6842C19.0584 11.6602 19.0584 11.6602 19.0584 11.6602C19.0584 11.6602 19.0824 11.6842 19.0584 11.6842C19.0584 11.6842 19.0345 11.6842 19.0105 11.6842L19.0345 11.6602C19.0105 11.6602 19.0105 11.6842 19.0105 11.6842C18.9866 11.7081 18.9866 11.732 18.9627 11.756C18.9627 11.7799 18.9387 11.756 18.9387 11.7799H18.9148C18.9148 11.8039 18.8908 11.8278 18.8669 11.8518C18.8669 11.8278 18.8908 11.8039 18.8908 11.7799C18.8908 11.7799 18.8429 11.8278 18.8669 11.8278V11.8039C18.8669 11.8278 18.8429 11.8518 18.819 11.8757C18.7951 11.8518 18.7472 11.9236 18.7232 11.9236C18.6993 11.9715 18.6514 11.9954 18.6035 12.0433C18.6514 12.0433 18.5796 12.0672 18.6035 12.0672L18.5796 12.0912L18.5317 12.1151C18.5077 12.1151 18.5317 12.0912 18.5317 12.0912C18.5077 12.1151 18.5077 12.0912 18.4838 12.0912C18.4838 12.0912 18.4838 12.1151 18.4599 12.1151H18.4838C18.4599 12.163 18.4359 12.1151 18.412 12.163V12.1391C18.388 12.163 18.3401 12.187 18.3401 12.2348C18.3401 12.2348 18.3162 12.2348 18.3401 12.2348C18.2923 12.2588 18.2683 12.3306 18.2204 12.3546C18.2204 12.3546 18.2204 12.3785 18.1965 12.3785C18.1965 12.3785 18.1965 12.4024 18.1726 12.4024V12.3785C18.1247 12.4024 18.1247 12.4503 18.1007 12.4743C18.0768 12.4503 18.0528 12.4743 18.0289 12.4982C17.981 12.5461 17.9571 12.594 17.9331 12.6419C17.9092 12.6419 17.8613 12.6897 17.8134 12.7376V12.7616H17.7895C17.7655 12.7855 17.7895 12.8095 17.7416 12.8334C17.7416 12.8095 17.7176 12.8334 17.7416 12.8095L17.7176 12.8334L17.6937 12.8573V12.8813V12.9052C17.6458 12.9052 17.6219 12.9771 17.574 12.9771C17.55 13.001 17.5261 13.0249 17.5261 13.0489C17.5022 13.0728 17.5261 13.0728 17.5022 13.0968C17.4782 13.0968 17.5022 13.0728 17.5022 13.0728C17.4782 13.0489 17.4782 13.0968 17.4303 13.1207C17.4064 13.1207 17.4064 13.1686 17.3824 13.1925C17.3824 13.2165 17.3585 13.2404 17.3346 13.2883C17.3346 13.2644 17.3346 13.2644 17.3346 13.2644C17.3346 13.2644 17.3585 13.2883 17.3346 13.2883C17.3346 13.2883 17.3106 13.2883 17.2867 13.2883L17.3106 13.2644C17.2867 13.2644 17.2867 13.2883 17.2867 13.2883C17.2627 13.3123 17.2627 13.3362 17.2388 13.3601C17.2388 13.3841 17.2149 13.3601 17.2149 13.3841H17.1909C17.1909 13.408 17.167 13.432 17.143 13.4559C17.143 13.432 17.167 13.408 17.167 13.3841C17.167 13.3841 17.1191 13.432 17.143 13.432V13.408C17.143 13.432 17.1191 13.4559 17.0951 13.4799C17.0712 13.4559 17.0233 13.5277 16.9994 13.5277C16.9754 13.5756 16.9275 13.5996 16.8797 13.6475C16.9275 13.6475 16.8557 13.6714 16.8797 13.6714L16.8557 13.6953L16.8078 13.7193C16.7839 13.7193 16.8078 13.6953 16.8078 13.6953C16.7839 13.7193 16.7839 13.6953 16.7599 13.6953C16.7599 13.6953 16.7599 13.7193 16.736 13.7193H16.7599C16.736 13.7672 16.7121 13.7193 16.6881 13.7672V13.7432C16.6642 13.7672 16.6163 13.7911 16.6163 13.839C16.6163 13.839 16.5923 13.839 16.6163 13.839C16.5684 13.8629 16.5445 13.9348 16.4966 13.9587C16.4966 13.9587 16.4966 13.9826 16.4726 13.9826C16.4726 13.9826 16.4726 14.0066 16.4487 14.0066V13.9826C16.4008 14.0066 16.4008 14.0545 16.3769 14.0784C16.3529 14.0545 16.329 14.0784 16.305 14.1024C16.2571 14.1502 16.2332 14.1981 16.2093 14.246C16.1853 14.246 16.1374 14.2939 16.0896 14.3418V14.3657H16.0656C16.0417 14.3897 16.0656 14.4136 16.0177 14.4376C16.0177 14.4136 15.9938 14.4376 16.0177 14.4136L15.9938 14.4376L15.9698 14.4615V14.4854V14.5094C15.922 14.5094 15.898 14.5812 15.8501 14.5812C15.8262 14.6052 15.8022 14.6291 15.8022 14.653C15.7783 14.677 15.8022 14.677 15.7783 14.7009C15.7544 14.7009 15.7783 14.677 15.7783 14.677C15.7544 14.653 15.7544 14.7009 15.7065 14.7249C15.6825 14.7249 15.6825 14.7727 15.6586 14.7967C15.6586 14.8206 15.6346 14.8446 15.6107 14.8925C15.6107 14.8685 15.6107 14.8685 15.6107 14.8685C15.6107 14.8685 15.6346 14.8925 15.6107 14.8925C15.6107 14.8925 15.5868 14.8925 15.5628 14.8925L15.5868 14.8685C15.5628 14.8685 15.5628 14.8925 15.5628 14.8925C15.5389 14.9164 15.5389 14.9403 15.5149 14.9643C15.5149 14.9882 15.491 14.9643 15.491 14.9882H15.467C15.467 15.0122 15.4431 15.0361 15.4192 15.0601C15.4192 15.0361 15.4431 15.0122 15.4431 14.9882C15.4431 14.9882 15.3952 15.0361 15.4192 15.0361V15.0122C15.4192 15.0361 15.3952 15.0601 15.3713 15.084C15.3473 15.0601 15.2994 15.1319 15.2755 15.1319C15.2516 15.1798 15.2037 15.2037 15.1558 15.2516C15.2037 15.2516 15.1319 15.2755 15.1558 15.2755L15.1319 15.2995L15.084 15.3234C15.06 15.3234 15.084 15.2995 15.084 15.2995C15.06 15.3234 15.06 15.2995 15.0361 15.2995C15.0361 15.2995 15.0361 15.3234 15.0121 15.3234H15.0361C15.0121 15.3713 14.9882 15.3234 14.9643 15.3713V15.3474C14.9403 15.3713 14.8924 15.3953 14.8924 15.4431C14.8924 15.4431 14.8685 15.4431 14.8924 15.4431C14.8445 15.4671 14.8206 15.5389 14.7727 15.5629C14.7727 15.5629 14.7727 15.5868 14.7488 15.5868C14.7488 15.5868 14.7488 15.6107 14.7248 15.6107V15.5868C14.6769 15.6107 14.6769 15.6586 14.653 15.6826C14.6291 15.6586 14.6051 15.6826 14.5812 15.7065C14.5333 15.7544 14.5093 15.8023 14.4854 15.8502C14.4615 15.8502 14.4615 15.8502 14.4136 15.898C14.4136 15.922 14.4136 15.9699 14.4136 15.9938V30.0241L18.9387 22.9372V12.2348L24.3737 7.15902V14.5333L28.9946 7.49422Z" fill="#AB3473"/>
<path d="M15.1797 15.2754C15.1797 15.2754 15.1797 15.2515 15.1558 15.2515C15.1797 15.2515 15.1558 15.2993 15.1797 15.2754Z" fill="#AB3473"/>
<path d="M15.4912 14.9644C15.4912 14.9644 15.5152 14.9644 15.5152 14.9404C15.5152 14.9404 15.4912 14.9404 15.4912 14.9644Z" fill="#AB3473"/>
<path d="M16.8555 13.7193C16.8555 13.7193 16.8555 13.6953 16.8315 13.6953C16.8555 13.6953 16.8315 13.7432 16.8555 13.7193Z" fill="#AB3473"/>
<path d="M17.167 13.4082C17.167 13.4082 17.1909 13.4082 17.1909 13.3843C17.1909 13.3843 17.167 13.3843 17.167 13.4082Z" fill="#AB3473"/>
<path d="M18.5317 12.1631C18.5317 12.1631 18.5317 12.1392 18.5078 12.1392C18.5317 12.1392 18.5078 12.187 18.5317 12.1631Z" fill="#AB3473"/>
<path d="M18.8428 11.8516C18.8428 11.8516 18.8667 11.8516 18.8667 11.8276C18.8667 11.8276 18.8428 11.8276 18.8428 11.8516Z" fill="#AB3473"/>
<path d="M23.9189 7.06348C23.9189 7.08742 23.9429 7.08742 23.9189 7.06348C23.9668 7.06348 23.9189 7.08742 23.9189 7.06348Z" fill="#AB3473"/>
<path d="M23.1049 7.85352C23.0809 7.85352 23.0809 7.87746 23.1049 7.85352C23.0809 7.87746 23.1049 7.85352 23.1049 7.85352Z" fill="#AB3473"/>
<path d="M23.5836 7.42238C23.5836 7.42238 23.5836 7.39844 23.6075 7.39844C23.6075 7.39844 23.5836 7.39844 23.5836 7.42238Z" fill="#AB3473"/>
<path d="M22.2667 8.64363C22.2428 8.66757 22.2907 8.64363 22.2667 8.64363C22.2907 8.61969 22.2667 8.66757 22.2667 8.64363Z" fill="#AB3473"/>
<path d="M21.9316 8.97853C21.9316 8.97853 21.9316 8.95459 21.9556 8.95459C21.9316 8.95459 21.9316 8.95459 21.9316 8.97853Z" fill="#AB3473"/>
<path d="M20.5907 10.1997C20.5907 10.2236 20.6147 10.2236 20.5907 10.1997C20.6386 10.1997 20.5907 10.2236 20.5907 10.1997Z" fill="#AB3473"/>
<path d="M20.2554 10.5347C20.2554 10.5347 20.2554 10.5107 20.2793 10.5107C20.2554 10.5107 20.2554 10.5347 20.2554 10.5347Z" fill="#AB3473"/>
<path d="M13.8388 15.2515C13.8148 15.2515 13.8148 15.2754 13.8148 15.2754C13.8627 15.2993 13.8148 15.2515 13.8388 15.2515Z" fill="#CDD430"/>
<path d="M13.4795 14.9404C13.4795 14.9404 13.5034 14.9404 13.5034 14.9644C13.5034 14.9404 13.5034 14.9404 13.4795 14.9404Z" fill="#CDD430"/>
<path d="M12.1626 13.6953C12.1387 13.6953 12.1387 13.7193 12.1387 13.7193C12.1866 13.7432 12.1387 13.6953 12.1626 13.6953Z" fill="#CDD430"/>
<path d="M11.8037 13.3843C11.8037 13.3843 11.8276 13.3843 11.8276 13.4082C11.8276 13.3843 11.8276 13.3843 11.8037 13.3843Z" fill="#CDD430"/>
<path d="M10.4868 12.1392C10.4629 12.1392 10.4629 12.1631 10.4629 12.1631C10.5108 12.187 10.4629 12.1392 10.4868 12.1392Z" fill="#CDD430"/>
<path d="M10.1279 11.8276C10.1279 11.8276 10.1519 11.8276 10.1519 11.8516C10.1519 11.8276 10.1519 11.8276 10.1279 11.8276Z" fill="#CDD430"/>
<path d="M5.07558 7.06348C5.07558 7.08742 5.05164 7.06348 5.07558 7.06348C5.05164 7.08742 5.09952 7.08742 5.07558 7.06348Z" fill="#CDD430"/>
<path d="M5.81787 7.75781C5.81787 7.78176 5.84181 7.75781 5.81787 7.75781V7.75781Z" fill="#CDD430"/>
<path d="M5.38721 7.39844L5.41115 7.42238C5.41115 7.39844 5.41115 7.39844 5.38721 7.39844Z" fill="#CDD430"/>
<path d="M6.7518 8.64363C6.7518 8.66757 6.70391 8.61969 6.7518 8.64363C6.72785 8.64363 6.7518 8.66757 6.7518 8.64363Z" fill="#CDD430"/>
<path d="M7.06305 8.95459L7.08699 8.97853C7.08699 8.95459 7.06305 8.95459 7.06305 8.95459Z" fill="#CDD430"/>
<path d="M8.40382 10.1997C8.42777 10.2236 8.37988 10.1997 8.40382 10.1997C8.37988 10.2236 8.42777 10.2236 8.40382 10.1997Z" fill="#CDD430"/>
<path d="M9.14606 10.894C9.14606 10.918 9.17 10.894 9.14606 10.894V10.894Z" fill="#CDD430"/>
<path d="M8.73926 10.5107L8.7632 10.5347C8.73926 10.5347 8.73926 10.5107 8.73926 10.5107Z" fill="#CDD430"/>
<path d="M14.5092 15.8741C14.4613 15.8502 14.4852 15.8262 14.4374 15.8262C14.3895 15.7783 14.3895 15.7305 14.3416 15.6826C14.3176 15.6826 14.2937 15.6586 14.2698 15.6586C14.2458 15.6347 14.2458 15.5868 14.1979 15.5629V15.5868C14.174 15.5868 14.174 15.5629 14.174 15.5629C14.15 15.5629 14.174 15.5389 14.15 15.5389C14.1022 15.515 14.0782 15.4431 14.0303 15.4192C14.0303 15.3953 13.9824 15.3474 13.9585 15.3234V15.3474C13.9346 15.2995 13.9106 15.3474 13.8867 15.2995H13.9106C13.8867 15.2995 13.8867 15.2755 13.8867 15.2755C13.8627 15.2755 13.8627 15.2995 13.8388 15.2755C13.8388 15.2755 13.8627 15.2995 13.8388 15.2995L13.7909 15.2755C13.7909 15.2755 13.7909 15.2755 13.767 15.2516C13.7909 15.2277 13.743 15.2277 13.767 15.2277C13.7191 15.1798 13.6712 15.1558 13.6472 15.1079C13.5994 15.1079 13.5754 15.0361 13.5515 15.0601C13.5275 15.0361 13.5275 15.0122 13.5036 14.9882C13.5036 14.9882 13.5036 14.9882 13.5036 15.0122C13.5036 14.9882 13.4796 14.9643 13.4796 14.9643C13.4796 14.9882 13.5036 15.0122 13.5036 15.0361C13.4796 15.0122 13.4796 14.9882 13.4557 14.9643H13.4318C13.4318 14.9403 13.4078 14.9643 13.4078 14.9403C13.3839 14.9164 13.3839 14.8925 13.3599 14.8685C13.336 14.8685 13.336 14.8446 13.336 14.8446L13.3599 14.8685C13.3599 14.8685 13.336 14.8685 13.3121 14.8685C13.2881 14.8446 13.3121 14.8446 13.3121 14.8446C13.2881 14.8446 13.3121 14.8446 13.3121 14.8685C13.2881 14.8446 13.2642 14.8206 13.2642 14.7728C13.2402 14.7488 13.2402 14.7249 13.2163 14.7009C13.1923 14.7009 13.1923 14.653 13.1445 14.653C13.1205 14.653 13.1684 14.677 13.1445 14.677C13.1205 14.653 13.1445 14.6291 13.1205 14.6291C13.0966 14.6052 13.0726 14.5812 13.0726 14.5573C13.0247 14.5573 13.0008 14.4854 12.9529 14.4854C12.9769 14.4854 12.9529 14.4615 12.9529 14.4615V14.4376C12.929 14.4376 12.929 14.4136 12.929 14.4136C12.929 14.4136 12.929 14.4136 12.905 14.3897C12.929 14.4136 12.905 14.4136 12.905 14.4136C12.8811 14.3897 12.905 14.3657 12.8571 14.3418H12.8332V14.3178C12.7853 14.2939 12.7374 14.246 12.7135 14.2221C12.6656 14.1742 12.6656 14.1263 12.6177 14.0784C12.5938 14.0784 12.5698 14.0545 12.5459 14.0545C12.5219 14.0305 12.5219 13.9826 12.4741 13.9587V13.9826C12.4501 13.9826 12.4501 13.9587 12.4501 13.9587C12.4262 13.9587 12.4501 13.9348 12.4262 13.9348C12.3783 13.9108 12.3544 13.839 12.3065 13.8151C12.3065 13.7911 12.2586 13.7432 12.2346 13.7193V13.7432C12.2107 13.6953 12.1868 13.7432 12.1628 13.6953H12.1868C12.1628 13.6953 12.1628 13.6714 12.1628 13.6714C12.1389 13.6714 12.1389 13.6953 12.1149 13.6714C12.1149 13.6714 12.1389 13.6953 12.1149 13.6953L12.067 13.6714C12.067 13.6714 12.067 13.6714 12.0431 13.6475C12.067 13.6235 12.0192 13.6235 12.0431 13.6235C11.9952 13.5756 11.9473 13.5517 11.9234 13.5038C11.8755 13.5038 11.8516 13.432 11.8276 13.4559C11.8037 13.432 11.8037 13.408 11.7797 13.3841C11.7797 13.3841 11.7797 13.3841 11.7797 13.408C11.7797 13.3841 11.7558 13.3601 11.7558 13.3601C11.7558 13.3841 11.7797 13.408 11.7797 13.432C11.7558 13.408 11.7558 13.3841 11.7318 13.3601H11.7079C11.7079 13.3362 11.684 13.3601 11.684 13.3362C11.66 13.3123 11.66 13.2883 11.6361 13.2644C11.6121 13.2644 11.6121 13.2404 11.6121 13.2404L11.6361 13.2644C11.6361 13.2644 11.6121 13.2644 11.5882 13.2644C11.5642 13.2404 11.5882 13.2404 11.5882 13.2404C11.5642 13.2404 11.5882 13.2404 11.5882 13.2644C11.5642 13.2404 11.5403 13.2165 11.5403 13.1686C11.5164 13.1447 11.5164 13.1207 11.4924 13.0968C11.4685 13.0968 11.4685 13.0489 11.4206 13.0489C11.3966 13.0489 11.4445 13.0728 11.4206 13.0728C11.3966 13.0489 11.4206 13.0249 11.3966 13.0249C11.3727 13.001 11.3488 12.9771 11.3488 12.9531C11.3009 12.9531 11.2769 12.8813 11.2291 12.8813C11.253 12.8813 11.2291 12.8573 11.2291 12.8573V12.8334C11.2051 12.8334 11.2051 12.8095 11.2051 12.8095C11.2051 12.8095 11.2051 12.8095 11.1812 12.7855C11.2051 12.8095 11.1812 12.8095 11.1812 12.8095C11.1572 12.7855 11.1812 12.7616 11.1333 12.7376H11.1093V12.7137C11.0615 12.6898 11.0136 12.6419 10.9896 12.6179C10.9417 12.57 10.9417 12.5222 10.8939 12.4743C10.8699 12.4743 10.846 12.4503 10.822 12.4503C10.7981 12.4264 10.7981 12.3785 10.7502 12.3546V12.3785C10.7263 12.3785 10.7263 12.3546 10.7263 12.3546C10.7023 12.3546 10.7263 12.3306 10.7023 12.3306C10.6544 12.3067 10.6305 12.2348 10.5826 12.2109C10.5826 12.187 10.5347 12.1391 10.5108 12.1151V12.1391C10.4868 12.0912 10.4629 12.1391 10.4389 12.0912H10.4629C10.4389 12.0912 10.4389 12.0672 10.4389 12.0672C10.415 12.0672 10.415 12.0912 10.3911 12.0672C10.3911 12.0672 10.415 12.0912 10.3911 12.0912L10.3432 12.0672C10.3432 12.0672 10.3432 12.0672 10.3192 12.0433C10.3432 12.0194 10.2953 12.0194 10.3192 12.0194C10.2713 11.9715 10.2235 11.9475 10.1995 11.8996C10.1516 11.8996 10.1277 11.8278 10.1038 11.8518C10.0798 11.8278 10.0798 11.8039 10.0559 11.7799C10.0559 11.7799 10.0559 11.7799 10.0559 11.8039C10.0559 11.7799 10.0319 11.756 10.0319 11.756C10.0319 11.7799 10.0559 11.8039 10.0559 11.8278C10.0319 11.8039 10.0319 11.7799 10.008 11.756H9.98404C9.98404 11.732 9.9601 11.756 9.9601 11.732C9.93615 11.7081 9.93615 11.6842 9.91221 11.6602C9.88827 11.6602 9.88827 11.6363 9.88827 11.6363L9.91221 11.6602C9.91221 11.6602 9.88827 11.6602 9.86433 11.6602C9.84038 11.6363 9.86433 11.6363 9.86433 11.6363C9.84038 11.6363 9.86433 11.6363 9.86433 11.6602C9.84038 11.6363 9.81644 11.6123 9.81644 11.5645C9.7925 11.5405 9.7925 11.5166 9.76855 11.4926C9.74461 11.4926 9.74461 11.4447 9.69673 11.4447C9.67278 11.4447 9.72067 11.4687 9.69673 11.4687C9.67278 11.4447 9.69673 11.4208 9.67279 11.4208C9.64884 11.3969 9.6249 11.3729 9.6249 11.349C9.57701 11.349 9.55307 11.2771 9.50519 11.2771C9.52913 11.2771 9.50519 11.2532 9.50519 11.2532V11.2293C9.48125 11.2293 9.48124 11.2053 9.48124 11.2053C9.48124 11.2053 9.48125 11.2053 9.4573 11.1814C9.48125 11.2053 9.4573 11.2053 9.4573 11.2053C9.43336 11.1814 9.4573 11.1574 9.40942 11.1335H9.38548C9.38548 11.1335 9.38548 11.1335 9.38548 11.1095C9.38548 11.0617 9.33759 11.0856 9.36153 11.0856C9.38547 11.0856 9.31365 11.0377 9.31365 11.0377C9.31365 11.0377 9.2897 10.9659 9.26576 10.9898C9.26576 10.9898 9.26576 10.9659 9.21788 10.9659H9.19393V10.9419C9.16999 10.918 9.14605 10.9419 9.12211 10.918C9.14605 10.918 9.12211 10.8941 9.14605 10.918C9.14605 10.918 9.12211 10.8941 9.12211 10.918L9.09816 10.8941H9.07422H9.05028C9.05028 10.8462 8.97845 10.8222 8.97845 10.7743C8.95451 10.7504 8.93057 10.7504 8.90662 10.7265C8.88268 10.7025 8.88268 10.7265 8.85874 10.7025C8.85874 10.6786 8.88268 10.7025 8.88268 10.7025C8.90662 10.6786 8.8348 10.6786 8.8348 10.6546C8.8348 10.6307 8.78691 10.6307 8.76297 10.6068C8.73903 10.6068 8.69114 10.5828 8.6672 10.5589C8.69114 10.5589 8.69114 10.5589 8.69114 10.5589C8.69114 10.5589 8.69114 10.5828 8.6672 10.5589C8.6672 10.5589 8.6672 10.5349 8.6672 10.511L8.69114 10.5349C8.69114 10.511 8.6672 10.511 8.6672 10.511C8.64326 10.487 8.61931 10.511 8.59537 10.4631C8.57143 10.4631 8.59537 10.4392 8.57143 10.4392V10.4152C8.54749 10.4152 8.52354 10.3913 8.4996 10.3673C8.52354 10.3673 8.54749 10.3913 8.57143 10.3913L8.52354 10.3673H8.54749C8.52354 10.3673 8.4996 10.3673 8.47566 10.3434C8.4996 10.3194 8.42777 10.2716 8.42777 10.2476C8.37989 10.2237 8.35595 10.1758 8.30806 10.1279C8.30806 10.1758 8.28412 10.1279 8.28412 10.1518L8.26018 10.1279L8.37989 10.1758C8.37989 10.1518 8.40383 10.1758 8.40383 10.1758C8.37989 10.1518 8.40383 10.1518 8.40383 10.1279H8.37989V10.1518C8.332 10.1279 8.37989 10.104 8.332 10.08H8.35595C8.332 10.08 8.28412 10.0321 8.26018 10.0321C8.26018 10.0321 8.26018 10.0082 8.26018 10.0321C8.21229 9.98424 8.1644 9.9603 8.14046 9.93636C8.14046 9.93636 8.11652 9.93636 8.11652 9.91242C8.11652 9.91242 8.09258 9.91242 8.06863 9.88847H8.09258C8.06863 9.84059 8.02075 9.84059 7.97286 9.81665C7.99681 9.7927 7.97287 9.76876 7.94892 9.74482C7.90104 9.69693 7.85315 9.69693 7.80527 9.64905C7.80527 9.62511 7.75738 9.57722 7.7095 9.52934H7.68555V9.50539C7.66161 9.48145 7.63767 9.50539 7.61373 9.48145C7.63767 9.48145 7.61373 9.45751 7.63767 9.48145C7.63767 9.48145 7.61373 9.45751 7.61373 9.48145L7.58978 9.45751H7.56584H7.5419C7.5419 9.40962 7.47007 9.38568 7.47007 9.3378C7.44613 9.31385 7.42219 9.31385 7.39824 9.28991C7.3743 9.26597 7.3743 9.28991 7.35036 9.26597C7.35036 9.24203 7.3743 9.26597 7.3743 9.26597C7.39824 9.24203 7.32642 9.24203 7.32642 9.21808C7.32642 9.19414 7.27853 9.19414 7.25459 9.1702C7.23065 9.1702 7.18276 9.14626 7.15882 9.12231C7.18276 9.12231 7.18276 9.12231 7.18276 9.12231C7.18276 9.12231 7.18276 9.14626 7.15882 9.12231C7.15882 9.12231 7.15882 9.09837 7.15882 9.07443L7.18276 9.09837C7.18276 9.07443 7.15882 9.07443 7.15882 9.07443C7.13488 9.05049 7.11093 9.07443 7.08699 9.02654C7.06305 9.02654 7.08699 9.0026 7.06305 9.0026V8.97866C7.03911 8.97866 7.01516 8.95472 6.99122 8.93077C7.01516 8.93077 7.03911 8.95472 7.06305 8.95472L7.01516 8.93077H7.03911C7.01516 8.93077 6.99122 8.93077 6.96728 8.90683C6.99122 8.88289 6.91939 8.835 6.91939 8.81106C6.87151 8.78712 6.84757 8.73923 6.79968 8.69135C6.79968 8.73923 6.77574 8.69135 6.77574 8.71529L6.7518 8.69135L6.70391 8.61952C6.70391 8.59558 6.72785 8.61952 6.72785 8.61952C6.70391 8.59558 6.72785 8.59558 6.72785 8.57163H6.70391V8.59558C6.65603 8.57163 6.70391 8.54769 6.65603 8.52375H6.67997C6.65603 8.52375 6.60814 8.47586 6.5842 8.47586C6.5842 8.47586 6.5842 8.45192 6.5842 8.47586C6.53631 8.42798 6.48843 8.40404 6.46449 8.38009C6.46449 8.38009 6.44054 8.38009 6.44054 8.35615C6.44054 8.35615 6.4166 8.35615 6.39266 8.33221H6.4166C6.39266 8.28432 6.34477 8.28432 6.29689 8.26038C6.32083 8.23644 6.29689 8.2125 6.27294 8.18855C6.22506 8.14067 6.17717 8.14067 6.12929 8.09278C6.12929 8.06884 6.0814 8.02096 6.03352 7.97307H6.00958V7.94913C5.98563 7.92519 5.96169 7.94913 5.93775 7.92519C5.96169 7.92519 5.93775 7.90124 5.96169 7.92519C5.96169 7.92519 5.93775 7.90124 5.93775 7.92519L5.91381 7.90124H5.88986H5.86592C5.86592 7.85336 5.79409 7.82942 5.79409 7.78153C5.77015 7.75759 5.74621 7.75759 5.72227 7.73364C5.69832 7.7097 5.69832 7.73365 5.67438 7.7097C5.67438 7.68576 5.69832 7.7097 5.69832 7.7097C5.72227 7.68576 5.65044 7.68576 5.65044 7.66182C5.65044 7.63788 5.60255 7.63788 5.57861 7.61393C5.55467 7.61393 5.50678 7.58999 5.48284 7.56605C5.50678 7.56605 5.50678 7.56605 5.50678 7.56605C5.50678 7.56605 5.50678 7.58999 5.48284 7.56605C5.48284 7.56605 5.48284 7.5421 5.48284 7.51816L5.50678 7.54211C5.50678 7.51816 5.48284 7.51816 5.48284 7.51816C5.4589 7.49422 5.43496 7.51816 5.41101 7.47028C5.38707 7.47028 5.41101 7.44633 5.38707 7.44633V7.42239C5.36313 7.42239 5.33919 7.39845 5.31524 7.37451C5.33919 7.37451 5.36313 7.39845 5.38707 7.39845L5.33919 7.37451H5.36313C5.33919 7.37451 5.31524 7.37451 5.2913 7.35056C5.31524 7.32662 5.24342 7.27874 5.24342 7.25479C5.19553 7.23085 5.17159 7.18297 5.1237 7.13508C5.1237 7.18297 5.09976 7.13508 5.09976 7.15902L5.07582 7.13508L5.02793 7.03931C5.02793 7.01537 5.05188 7.03931 5.05188 7.03931C5.02793 7.01537 5.05188 7.01537 5.05188 6.99143H5.02793V7.01537C4.98005 6.99143 5.02793 6.96748 4.98005 6.94354H5.00399C4.98005 6.94354 4.93216 6.89566 4.90822 6.89566C4.90822 6.89566 4.90822 6.87171 4.90822 6.89566C4.86034 6.84777 4.81245 6.82383 4.78851 6.79989C4.78851 6.79989 4.76456 6.79989 4.76456 6.77594C4.76456 6.77594 4.74062 6.77594 4.71668 6.752H4.74062C4.71668 6.70412 4.66879 6.72806 4.64485 6.68017C4.62091 6.68017 4.62091 6.65623 4.57302 6.68017V1.10156L0 7.49422L4.54908 14.5333V7.15902L9.98404 12.2348V22.9132L14.5092 30.0002V15.9699C14.5092 15.9459 14.5092 15.922 14.5092 15.8741Z" fill="#CDD430"/>
<path d="M14.5093 0V8.54749L23.6553 0H14.5093Z" fill="#B1618D"/>
<path d="M14.5093 8.54749V0H5.33936L14.5093 8.54749Z" fill="#D4DB62"/>
<path d="M14.5093 8.54749V1.84358L5.33936 0L14.5093 8.54749Z" fill="#C4CA2F"/>
<path d="M14.5093 8.54749V1.84358L23.6553 0L14.5093 8.54749Z" fill="#B13675"/>
<path d="M9.98389 12.2349L14.509 30.0002L9.98389 22.9132V12.2349Z" fill="#C1C724"/>
<path d="M19.0105 12.2349V22.9132L14.5093 30.0002L19.0105 12.2349Z" fill="#A13069"/>
<path d="M0 7.49422L4.54908 6.68018V1.10156L0 7.49422Z" fill="#DCE329"/>
<path d="M28.9944 7.49422L24.4453 6.68018V1.10156L28.9944 7.49422Z" fill="#B14A80"/>
<path d="M50.2077 25.5705H50.0401L49.2739 23.7509C49.1781 23.5114 49.0584 23.2241 48.9627 22.9368H48.9387C48.9627 23.3678 48.9627 23.7509 48.9627 24.11V25.5944H48.6035V22.5059H49.1303L49.8485 24.2297C49.9204 24.4213 50.0161 24.6607 50.1119 24.948C50.2316 24.6367 50.3034 24.3973 50.3753 24.2297L51.0935 22.5059H51.6203V25.5466H51.2372V24.0621C51.2372 23.7269 51.2372 23.3199 51.2611 22.8889H51.2372C51.1175 23.2002 51.0217 23.4636 50.9259 23.703L50.2077 25.5705Z" fill="#F2F2F2"/>
<path d="M53.6553 25.3315C53.6074 25.3794 53.5834 25.4033 53.5355 25.4512C53.4877 25.4751 53.4398 25.523 53.3919 25.5469C53.344 25.5709 53.2722 25.5948 53.2003 25.6188C53.1285 25.6427 53.0567 25.6427 52.9849 25.6427C52.8891 25.6427 52.7933 25.6188 52.6976 25.5948C52.6018 25.5709 52.53 25.523 52.4821 25.4512C52.4102 25.3794 52.3624 25.3075 52.3384 25.2357C52.3145 25.1399 52.2905 25.0442 52.2905 24.9484C52.2905 24.8287 52.3145 24.7329 52.3384 24.6611C52.3863 24.5653 52.4342 24.4935 52.506 24.4456C52.5778 24.3977 52.6497 24.3498 52.7694 24.3019C52.8651 24.278 52.9849 24.2541 53.1046 24.2541C53.2243 24.2541 53.3201 24.2541 53.4158 24.278C53.5116 24.3019 53.6074 24.3259 53.6792 24.3498V24.1822C53.6792 24.1343 53.6792 24.0625 53.6792 24.0146C53.6792 23.9667 53.6553 23.9189 53.6313 23.8949C53.5834 23.8231 53.5355 23.7513 53.4398 23.7034C53.344 23.6555 53.2243 23.6315 53.0806 23.6315C52.9609 23.6315 52.8651 23.6315 52.7694 23.6555C52.6736 23.6794 52.5778 23.7034 52.4821 23.7513V23.464C52.53 23.44 52.5539 23.44 52.6018 23.4161C52.6497 23.3921 52.6975 23.3921 52.7694 23.3682C52.8173 23.3682 52.8891 23.3442 52.937 23.3442C53.0088 23.3442 53.0567 23.3442 53.1285 23.3442C53.344 23.3442 53.5355 23.3921 53.6553 23.464C53.7989 23.5358 53.8947 23.6555 53.9665 23.7752C53.9904 23.8231 54.0144 23.871 54.0144 23.9428C54.0144 23.9907 54.0383 24.0625 54.0383 24.1343V25.5709H53.751L53.6553 25.3315ZM53.6313 24.6132C53.5595 24.5892 53.4877 24.5892 53.3919 24.5653C53.2961 24.5414 53.2003 24.5414 53.1046 24.5414C52.9609 24.5414 52.8412 24.5653 52.7454 24.6371C52.6497 24.709 52.6257 24.8047 52.6257 24.9244C52.6257 24.9963 52.6257 25.0442 52.6497 25.092C52.6736 25.1399 52.6976 25.1878 52.7454 25.2118C52.7933 25.2357 52.8173 25.2596 52.8651 25.2836C52.913 25.3075 52.9609 25.3075 53.0327 25.3075C53.1046 25.3075 53.1764 25.3075 53.2482 25.2836C53.3201 25.2596 53.3679 25.2357 53.4158 25.2118C53.4637 25.1878 53.5116 25.1399 53.5355 25.116C53.5595 25.092 53.6074 25.0681 53.6074 25.0442V24.6132H53.6313Z" fill="#F2F2F2"/>
<path d="M54.5415 24.4933C54.5415 24.3496 54.5654 24.2059 54.5894 24.0862C54.6133 23.9665 54.6612 23.8708 54.7091 23.775C54.757 23.6792 54.8049 23.6074 54.8767 23.5595C54.9485 23.5116 55.0204 23.4637 55.0682 23.4158C55.1161 23.368 55.2119 23.344 55.2837 23.344C55.3555 23.3201 55.4274 23.3201 55.4992 23.3201C55.6429 23.3201 55.7386 23.344 55.8344 23.3919C55.9302 23.4398 56.0259 23.5116 56.0978 23.5834V22.2666H56.4569V25.5707H56.1935L56.1217 25.3312C56.0978 25.3552 56.0738 25.4031 56.0259 25.427C55.9781 25.451 55.9541 25.4988 55.9062 25.5228C55.8583 25.5467 55.8105 25.5707 55.7386 25.5946C55.6668 25.6186 55.595 25.6186 55.5231 25.6186C55.4034 25.6186 55.2837 25.5946 55.164 25.5467C55.0443 25.4988 54.9485 25.451 54.8528 25.3552C54.757 25.2594 54.6852 25.1397 54.6373 25.02C54.5654 24.8763 54.5415 24.7087 54.5415 24.4933ZM54.9246 24.4933C54.9246 24.613 54.9485 24.7327 54.9725 24.8285C54.9964 24.9242 55.0443 25.02 55.0922 25.0918C55.1401 25.1636 55.2119 25.2115 55.2837 25.2594C55.3555 25.3073 55.4513 25.3073 55.5471 25.3073C55.6189 25.3073 55.6907 25.3073 55.7386 25.2834C55.8105 25.2594 55.8583 25.2355 55.9062 25.2115C55.9541 25.1876 56.002 25.1397 56.0259 25.1158C56.0499 25.0918 56.0978 25.0439 56.0978 25.02V23.8947C56.0259 23.8229 55.9302 23.751 55.8344 23.7271C55.7386 23.6792 55.6429 23.6553 55.5231 23.6553C55.4513 23.6553 55.3795 23.6792 55.3077 23.7032C55.2358 23.7271 55.164 23.775 55.0922 23.8468C55.0204 23.9186 54.9725 23.9905 54.9246 24.1102C54.9485 24.182 54.9246 24.3257 54.9246 24.4933Z" fill="#F2F2F2"/>
<path d="M58.2045 25.3075C58.3242 25.3075 58.42 25.3075 58.5157 25.2836C58.6115 25.2596 58.7073 25.2357 58.803 25.2117V25.499C58.7312 25.5469 58.6354 25.5709 58.5157 25.5948C58.396 25.6187 58.2763 25.6187 58.1566 25.6187C58.0129 25.6187 57.8453 25.5948 57.7256 25.5709C57.582 25.523 57.4623 25.4751 57.3665 25.3793C57.2707 25.2836 57.1989 25.1878 57.1271 25.0441C57.0792 24.9005 57.0313 24.7329 57.0313 24.5413C57.0313 24.3498 57.0552 24.1822 57.1031 24.0385C57.151 23.8949 57.2228 23.7752 57.3186 23.6794C57.4144 23.5836 57.5101 23.5118 57.6299 23.4639C57.7496 23.416 57.8693 23.3921 57.989 23.3921C58.1087 23.3921 58.2284 23.416 58.3242 23.4639C58.42 23.5118 58.5157 23.5597 58.5876 23.6555C58.6594 23.7512 58.7312 23.847 58.7791 23.9907C58.827 24.1343 58.8509 24.3019 58.8509 24.4934C58.8509 24.5174 58.8509 24.5174 58.8509 24.5413C58.8509 24.5653 58.8509 24.5892 58.8509 24.6371H57.3665C57.3665 24.7808 57.3904 24.9005 57.4383 24.9962C57.4862 25.092 57.5341 25.1638 57.6059 25.2357C57.6777 25.3075 57.7735 25.3314 57.8693 25.3554C57.989 25.3075 58.0848 25.3075 58.2045 25.3075ZM58.0129 23.6315C57.9411 23.6315 57.8453 23.6555 57.7975 23.6794C57.7256 23.7033 57.6777 23.7512 57.6059 23.7991C57.5341 23.847 57.5101 23.9188 57.4862 23.9907C57.4623 24.0625 57.4383 24.1343 57.4144 24.2301H58.5157C58.5157 24.1343 58.5157 24.0625 58.4918 23.9907C58.4678 23.9188 58.4439 23.847 58.396 23.7991C58.3481 23.7512 58.3002 23.7033 58.2284 23.6794C58.1805 23.6555 58.1087 23.6315 58.0129 23.6315Z" fill="#F2F2F2"/>
<path d="M60.4551 22.8889V22.5059H60.8142V22.8889H60.4551ZM60.4551 25.5705V23.4157H60.8142V25.5705H60.4551Z" fill="#F2F2F2"/>
<path d="M61.8679 23.7034C61.9158 23.6555 61.9637 23.6076 62.0116 23.5597C62.0595 23.5118 62.1074 23.4879 62.1792 23.44C62.2271 23.4161 62.2989 23.3921 62.3707 23.3682C62.4425 23.3442 62.5144 23.3442 62.6101 23.3442C62.7059 23.3442 62.8017 23.3682 62.8975 23.3921C62.9932 23.4161 63.0651 23.464 63.1129 23.5358C63.1848 23.6076 63.2327 23.6794 63.2566 23.7752C63.2805 23.871 63.3045 23.9907 63.3045 24.1343V25.5948H62.9453V24.2062C62.9453 24.0146 62.8975 23.8949 62.8256 23.7991C62.7538 23.7273 62.658 23.6794 62.5144 23.6794C62.3947 23.6794 62.275 23.7034 62.1552 23.7752C62.0355 23.847 61.9398 23.9428 61.8679 24.0625V25.5948H61.5088V23.44H61.7722L61.8679 23.7034Z" fill="#F2F2F2"/>
<path d="M65.3391 25.5705H64.9561V22.5059H66.7757V22.8411H65.3391V23.8227H66.632V24.1579H65.3391V25.5705Z" fill="#F2F2F2"/>
<path d="M68.452 23.6794H68.428C68.3562 23.6794 68.2604 23.6794 68.1886 23.7034C68.1168 23.7273 68.021 23.7513 67.9731 23.7752C67.9013 23.7991 67.8295 23.847 67.7816 23.8949C67.7337 23.9428 67.6858 23.9907 67.6379 24.0625V25.5709H67.2788V23.4161H67.5422L67.614 23.7513C67.6379 23.7034 67.6858 23.6315 67.7337 23.5837C67.7816 23.5358 67.8534 23.4879 67.9013 23.464C67.9731 23.4161 68.045 23.3921 68.1168 23.3682C68.1886 23.3442 68.2844 23.3442 68.3562 23.3442C68.3802 23.3442 68.3802 23.3442 68.4041 23.3442C68.4281 23.3442 68.428 23.3442 68.452 23.3442V23.6794Z" fill="#F2F2F2"/>
<path d="M68.5718 23.3921H68.9309L69.6013 25.092H69.6252L70.3196 23.3921H70.6787L69.3379 26.6243H68.9549L69.4098 25.523L68.5718 23.3921Z" fill="#F2F2F2"/>
<path d="M72.3545 25.3315C72.3066 25.3794 72.2827 25.4033 72.2348 25.4512C72.1869 25.4751 72.139 25.523 72.0912 25.547C72.0433 25.5709 71.9714 25.5948 71.8996 25.6188C71.8278 25.6427 71.756 25.6427 71.6841 25.6427C71.5884 25.6427 71.4926 25.6188 71.3968 25.5948C71.301 25.5709 71.2292 25.523 71.1813 25.4512C71.1095 25.3794 71.0616 25.3075 71.0377 25.2357C71.0137 25.1399 70.9898 25.0442 70.9898 24.9484C70.9898 24.8287 71.0137 24.7329 71.0377 24.6611C71.0616 24.5893 71.1334 24.4935 71.2053 24.4456C71.2771 24.3977 71.3489 24.3498 71.4686 24.3019C71.5644 24.278 71.6841 24.2541 71.8038 24.2541C71.9235 24.2541 72.0193 24.2541 72.1151 24.278C72.2109 24.3019 72.3066 24.3259 72.3785 24.3498V24.1822C72.3785 24.1343 72.3785 24.0625 72.3785 24.0146C72.3785 23.9667 72.3545 23.9189 72.3306 23.8949C72.2827 23.8231 72.2348 23.7513 72.139 23.7034C72.0433 23.6555 71.9235 23.6315 71.7799 23.6315C71.6602 23.6315 71.5644 23.6315 71.4686 23.6555C71.3729 23.6794 71.2771 23.7034 71.1813 23.7513V23.464C71.2292 23.44 71.2532 23.44 71.301 23.4161C71.3489 23.3921 71.3968 23.3921 71.4686 23.3682C71.5165 23.3682 71.5884 23.3442 71.6362 23.3442C71.7081 23.3442 71.756 23.3442 71.8278 23.3442C72.0433 23.3442 72.2348 23.3921 72.3545 23.464C72.4742 23.5358 72.5939 23.6555 72.6658 23.7752C72.6897 23.8231 72.7137 23.871 72.7137 23.9428C72.7137 23.9907 72.7376 24.0625 72.7376 24.1343V25.5709H72.4503L72.3545 25.3315ZM72.3306 24.6132C72.2587 24.5893 72.1869 24.5892 72.0912 24.5653C71.9954 24.5414 71.8996 24.5414 71.8038 24.5414C71.6602 24.5414 71.5405 24.5653 71.4447 24.6371C71.3489 24.709 71.325 24.8047 71.325 24.9244C71.325 24.9963 71.325 25.0442 71.3489 25.092C71.3729 25.1399 71.3968 25.1878 71.4447 25.2118C71.4926 25.2357 71.5165 25.2596 71.5644 25.2836C71.6123 25.3075 71.6602 25.3075 71.732 25.3075C71.8038 25.3075 71.8757 25.3075 71.9475 25.2836C72.0193 25.2596 72.0672 25.2357 72.1151 25.2118C72.163 25.1878 72.2109 25.1399 72.2348 25.116C72.2587 25.092 72.3066 25.0681 72.3066 25.0442V24.6132H72.3306Z" fill="#F2F2F2"/>
<path d="M74.4134 23.7033H73.2163V23.3921H74.8444V23.6076L73.6473 25.2357H74.9402V25.5469H73.1924V25.3793L74.4134 23.7033Z" fill="#F2F2F2"/>
<path d="M75.4429 22.8889V22.5059H75.802V22.8889H75.4429ZM75.4668 25.5705V23.4157H75.826V25.5705H75.4668Z" fill="#F2F2F2"/>
<path d="M76.8558 23.7034C76.9036 23.6555 76.9515 23.6076 76.9994 23.5597C77.0473 23.5118 77.0952 23.4879 77.167 23.44C77.2149 23.4161 77.2867 23.3921 77.3585 23.3682C77.4304 23.3442 77.5022 23.3442 77.598 23.3442C77.6937 23.3442 77.7895 23.3682 77.8853 23.3921C77.981 23.4161 78.0529 23.464 78.1008 23.5358C78.1726 23.6076 78.2205 23.6794 78.2444 23.7752C78.2684 23.871 78.2923 23.9907 78.2923 24.1343V25.5948H77.9332V24.2062C77.9332 24.0146 77.8853 23.8949 77.8135 23.7991C77.7416 23.7034 77.6459 23.6794 77.5022 23.6794C77.3825 23.6794 77.2628 23.7034 77.1431 23.7752C77.0234 23.847 76.9276 23.9428 76.8558 24.0625V25.5948H76.4966V23.44H76.76L76.8558 23.7034Z" fill="#F2F2F2"/>
<path d="M80.9258 24.4696C80.9258 24.6372 80.9018 24.8047 80.854 24.9245C80.8061 25.0681 80.7342 25.1878 80.6385 25.2836C80.5427 25.3794 80.4469 25.4512 80.3272 25.523C80.2075 25.5709 80.0639 25.5949 79.8963 25.5949C79.7287 25.5949 79.585 25.5709 79.4653 25.523C79.3456 25.4751 79.2259 25.3794 79.1301 25.2836C79.0343 25.1878 78.9625 25.0681 78.9146 24.9245C78.8667 24.7808 78.8428 24.6372 78.8428 24.4696C78.8428 24.302 78.8667 24.1344 78.9146 23.9907C78.9625 23.847 79.0343 23.7273 79.1301 23.6316C79.2259 23.5358 79.3216 23.464 79.4653 23.3921C79.585 23.3443 79.7287 23.3203 79.8963 23.3203C80.0639 23.3203 80.2075 23.3443 80.3272 23.3921C80.4469 23.44 80.5666 23.5358 80.6624 23.6316C80.7582 23.7273 80.83 23.847 80.854 23.9907C80.9018 24.1583 80.9258 24.302 80.9258 24.4696ZM80.5427 24.4696C80.5427 24.3259 80.5188 24.2062 80.4948 24.1104C80.4709 24.0146 80.423 23.9189 80.3512 23.847C80.3033 23.7752 80.2314 23.7273 80.1357 23.6795C80.0399 23.6316 79.9681 23.6316 79.8723 23.6316C79.7765 23.6316 79.6808 23.6555 79.6089 23.6795C79.5371 23.7034 79.4653 23.7752 79.3935 23.847C79.3456 23.9189 79.2977 24.0146 79.2498 24.1104C79.2259 24.2062 79.2019 24.3259 79.2019 24.4696C79.2019 24.6132 79.2259 24.709 79.2498 24.8287C79.2737 24.9245 79.3216 25.0202 79.3935 25.0921C79.4413 25.1639 79.5132 25.2118 79.6089 25.2597C79.6808 25.3075 79.7765 25.3075 79.8723 25.3075C79.9681 25.3075 80.0639 25.2836 80.1357 25.2597C80.2075 25.2118 80.2793 25.1639 80.3512 25.0921C80.399 25.0202 80.4469 24.9245 80.4948 24.8287C80.5427 24.7329 80.5427 24.6132 80.5427 24.4696Z" fill="#F2F2F2"/>
</g>
<defs>
<clipPath id="clip0_28_260">
<rect width="94.1181" height="30" fill="white"/>
</clipPath>
</defs>
</svg>
