<svg width="251" height="80" viewBox="0 0 251 80" fill="none" xmlns="http://www.w3.org/2000/svg">
<g clip-path="url(#clip0_14_13)">
<path d="M105.028 51.3328C105.283 51.2051 104.964 51.0136 105.028 50.9497C104.645 51.1413 105.219 51.1413 105.028 51.3328Z" fill="#B13675"/>
<path d="M116.137 51.1413H116.073C116.073 51.1413 116.073 51.1412 116.01 51.2051L116.137 51.1413Z" fill="#B13675"/>
<path d="M116.456 51.1413L116.393 51.3328C116.584 51.3966 116.52 51.1413 116.456 51.1413Z" fill="#B13675"/>
<path d="M110.008 51.1413C110.136 51.269 110.263 51.2051 110.327 51.0774C110.327 51.0136 110.136 51.1413 110.008 51.1413Z" fill="#B13675"/>
<path d="M130.694 51.2689C130.95 51.1413 130.631 50.9497 130.694 50.8859C130.311 51.0136 130.95 51.0774 130.694 51.2689Z" fill="#B13675"/>
<path d="M141.804 51.0774H141.74C141.74 51.0774 141.74 51.0774 141.676 51.1413L141.804 51.0774Z" fill="#B13675"/>
<path d="M142.123 51.0136L142.059 51.2051C142.251 51.3328 142.251 51.0774 142.123 51.0136Z" fill="#B13675"/>
<path d="M135.738 51.0774C135.866 51.2051 135.994 51.1413 136.058 51.0136C135.994 50.9497 135.866 51.0136 135.738 51.0774Z" fill="#B13675"/>
<path d="M156.424 51.1413C156.68 51.0136 156.361 50.822 156.424 50.7582C156.041 50.9497 156.616 51.0136 156.424 51.1413Z" fill="#B13675"/>
<path d="M167.534 50.9497H167.47C167.47 50.9497 167.47 50.9497 167.406 51.0136L167.534 50.9497Z" fill="#B13675"/>
<path d="M167.853 50.9497L167.789 51.1413C167.981 51.2051 167.917 51.0136 167.853 50.9497Z" fill="#B13675"/>
<path d="M161.405 50.9497C161.532 51.0774 161.66 51.0136 161.724 50.8859C161.724 50.8859 161.532 50.9497 161.405 50.9497Z" fill="#B13675"/>
<path d="M239.872 51.3328C239.617 51.1413 240.255 51.1413 239.872 50.9497C239.872 51.0136 239.553 51.2051 239.872 51.3328Z" fill="#B13675"/>
<path d="M228.444 51.3328L228.38 51.1413C228.316 51.1413 228.252 51.3966 228.444 51.3328Z" fill="#B13675"/>
<path d="M234.445 51.0774C234.509 51.2051 234.701 51.269 234.765 51.1413C234.701 51.1413 234.573 51.0136 234.445 51.0774Z" fill="#B13675"/>
<path d="M214.142 51.2689C213.887 51.0774 214.525 51.0774 214.142 50.8859C214.206 50.8859 213.887 51.1413 214.142 51.2689Z" fill="#B13675"/>
<path d="M201.245 51.1413C201.245 51.0774 201.181 51.0774 201.245 51.1413C201.181 51.1413 201.181 51.1413 201.181 51.1413C201.181 51.1413 201.181 51.1413 201.245 51.1413Z" fill="#B13675"/>
<path d="M202.777 51.269L202.713 51.0774C202.586 51.0774 202.586 51.3328 202.777 51.269Z" fill="#B13675"/>
<path d="M208.779 51.0136C208.843 51.1413 209.034 51.2051 209.098 51.0774C208.97 51.0136 208.843 50.9497 208.779 51.0136Z" fill="#B13675"/>
<path d="M188.476 51.1413C188.22 50.9497 188.859 50.9497 188.476 50.7582C188.539 50.822 188.156 51.0774 188.476 51.1413Z" fill="#B13675"/>
<path d="M177.43 51.0136C177.43 50.9497 177.366 50.9497 177.43 51.0136H177.302H177.43Z" fill="#B13675"/>
<path d="M177.047 51.1413L176.983 50.9497C176.919 51.0136 176.856 51.2051 177.047 51.1413Z" fill="#B13675"/>
<path d="M183.049 50.8859C183.112 51.0136 183.304 51.0774 183.368 50.9497C183.304 50.9497 183.176 50.8859 183.049 50.8859Z" fill="#B13675"/>
<path d="M94.1101 48.8428C94.1101 49.0343 94.1101 51.0774 94.1101 51.3328C94.6847 51.269 95.4509 51.3966 95.7701 51.1413C96.4086 51.2689 96.9194 51.5243 97.6217 51.5243V51.4605C97.8771 51.3966 98.324 51.3328 98.324 51.0136C98.8348 51.0774 99.154 51.5243 99.7286 51.3966L99.6009 51.269C99.7286 51.2051 99.984 51.3328 100.048 51.3966C100.112 51.3966 100.048 51.3328 100.048 51.269C100.176 51.1413 100.303 51.3328 100.367 51.3328L100.303 51.2051C100.75 51.0136 101.516 51.3966 102.155 51.3328C102.027 51.3328 102.091 51.2051 102.155 51.1413C102.41 51.4605 103.113 51.3966 103.368 51.4605L103.24 51.3328C103.751 51.5243 103.687 51.0136 104.198 51.2051L103.943 51.3966C104.134 51.3328 104.326 51.3966 104.262 51.5243C104.517 51.3966 104.262 51.269 104.645 51.269C104.645 51.2051 104.389 51.2051 104.517 51.0774L105.028 50.822C105.028 50.822 105.028 50.822 105.092 50.822H105.028C105.028 50.822 105.092 50.7582 105.283 50.822C105.219 51.2689 105.666 50.822 105.475 51.269C106.177 51.3328 106.752 51.0136 107.39 51.2051C107.646 50.822 108.603 51.2051 108.539 50.6943C108.859 50.6943 109.178 50.822 109.369 51.0136C109.306 51.0774 109.242 51.0136 109.178 50.9497C109.242 51.0774 109.689 51.0774 109.816 51.0774C109.625 50.9497 109.242 50.822 109.05 50.6305C109.369 50.6943 109.816 50.8859 109.944 50.9497L110.008 50.6943C110.263 50.8859 110.199 50.5028 110.455 50.7582L110.391 50.822C110.838 50.822 110.902 51.0774 111.285 51.1413V51.0136C111.413 50.9497 111.668 51.2051 111.796 51.0136H111.476C111.476 50.822 111.732 50.7582 111.86 50.6305C112.179 50.6943 111.987 50.9497 112.115 50.9497C112.179 50.7582 112.115 50.8859 112.051 50.6943C112.37 50.7582 112.881 50.822 113.073 51.0774V51.0136C113.456 51.0136 113.711 51.3328 113.966 51.1413H113.903C114.158 50.8859 114.669 51.3966 114.669 50.9497C114.796 50.8859 114.35 50.9497 114.605 50.7582C115.052 50.6305 114.86 51.1413 115.243 51.0136C115.18 51.0136 115.18 51.0136 115.18 50.9497C115.435 50.9497 115.818 51.0136 116.073 51.0774C116.456 50.6943 117.159 51.2051 117.606 50.7582C117.478 50.8859 117.733 50.9497 117.733 51.0136V50.9497C117.861 50.9497 117.925 51.0774 117.989 51.1413C118.116 51.0136 118.436 51.2689 118.5 51.2051C118.5 51.2689 118.627 51.269 118.755 51.269C118.5 51.1413 118.691 51.0774 118.563 50.9497C118.947 50.8859 119.01 51.3966 119.457 51.269L119.713 51.0774C119.713 51.2051 119.84 51.269 119.904 51.269C120.479 51.2051 121.245 51.269 121.564 51.0136C122.203 51.1413 122.713 51.3966 123.416 51.3966V51.3328C123.671 51.269 124.118 51.2051 124.118 50.8859C124.629 50.9497 124.948 51.3966 125.523 51.269L125.395 51.1413C125.523 51.0774 125.778 51.2051 125.842 51.269C125.906 51.269 125.842 51.2051 125.842 51.1413C125.97 51.0136 126.097 51.2051 126.161 51.2051L126.097 51.0774C126.544 50.8859 127.31 51.2689 127.949 51.2051C127.821 51.2051 127.885 51.0774 127.949 51.0136C128.204 51.3328 128.907 51.269 129.162 51.3328L129.034 51.2051C129.545 51.3966 129.481 50.8859 129.992 51.0774L129.737 51.269C129.928 51.2051 130.12 51.269 130.056 51.3966C130.311 51.269 130.056 51.1413 130.439 51.1413C130.439 51.0774 130.184 51.0774 130.311 50.9497L130.822 50.6943C130.822 50.6943 130.822 50.6943 130.886 50.6943H130.822C130.822 50.6943 130.886 50.6305 131.077 50.6943C131.014 51.1413 131.46 50.6943 131.269 51.1413C131.971 51.2051 132.546 50.8859 133.184 51.0774C133.44 50.6943 134.397 51.0774 134.334 50.5666C134.653 50.5666 134.972 50.6943 135.164 50.8859C135.1 50.9497 135.036 50.8859 134.972 50.822C135.036 50.9497 135.483 50.9497 135.611 50.9497C135.419 50.822 135.036 50.6943 134.844 50.5028C135.164 50.5666 135.611 50.7582 135.738 50.822L135.802 50.5666C136.057 50.7582 135.994 50.3751 136.249 50.6305L136.185 50.6943C136.632 50.6943 136.696 50.9497 137.079 51.0136V50.8859C137.207 50.822 137.462 51.0774 137.59 50.8859H137.271C137.271 50.6943 137.526 50.6305 137.654 50.5028C137.973 50.5666 137.781 50.822 137.909 50.822C137.973 50.6305 137.909 50.7582 137.845 50.5666C138.164 50.6305 138.675 50.6943 138.867 50.9497V50.8859C139.25 50.8859 139.505 51.2051 139.761 51.0136H139.697C139.952 50.7582 140.463 51.2689 140.463 50.822C140.591 50.7582 140.144 50.822 140.399 50.6305C140.846 50.5028 140.654 51.0136 141.037 50.8859C140.974 50.8859 140.974 50.8859 140.974 50.822C141.229 50.822 141.612 50.8859 141.867 50.9497C142.251 50.5666 142.953 51.0774 143.4 50.6305C143.272 50.7582 143.528 50.822 143.528 50.8859V50.822C143.655 50.822 143.719 50.9497 143.783 51.0136C143.911 50.8859 144.23 51.1413 144.294 51.0774C144.294 51.1413 144.421 51.1413 144.549 51.1413C144.294 51.0136 144.485 50.9497 144.358 50.822C144.741 50.7582 144.804 51.2689 145.251 51.1413L145.507 50.9497C145.507 51.0774 145.634 51.1413 145.698 51.1413C146.273 51.0774 147.039 51.1413 147.358 50.8859C147.997 51.0136 148.508 51.269 149.21 51.269V51.2051C149.465 51.1413 149.912 51.0774 149.912 50.7582C150.423 50.822 150.742 51.2689 151.317 51.1413L151.189 51.0136C151.317 50.9497 151.572 51.0774 151.636 51.1413C151.7 51.1413 151.636 51.0774 151.636 51.0136C151.764 50.8859 151.891 51.0774 151.955 51.0774L151.891 50.9497C152.338 50.7582 153.105 51.1413 153.743 51.0774C153.615 51.0774 153.679 50.9497 153.743 50.8859C153.998 51.2051 154.701 51.1413 154.956 51.2051L154.828 51.0774C155.339 51.269 155.275 50.7582 155.786 50.9497L155.531 51.1413C155.722 51.0774 155.914 51.1413 155.85 51.269C156.105 51.1413 155.85 51.0136 156.233 51.0136C156.233 50.9497 155.978 50.9497 156.105 50.822L156.616 50.5666C156.616 50.5666 156.616 50.5666 156.68 50.5666H156.616C156.616 50.5666 156.68 50.5028 156.871 50.5666C156.808 51.0136 157.255 50.5666 157.063 51.0136C157.765 51.0774 158.34 50.7582 158.978 50.9497C159.234 50.5666 160.192 50.9497 160.128 50.4389C160.447 50.4389 160.766 50.5666 160.958 50.7582C160.894 50.822 160.83 50.7582 160.766 50.6943C160.83 50.822 161.277 50.822 161.405 50.822C161.213 50.6943 160.83 50.5666 160.638 50.3751C160.958 50.4389 161.405 50.6305 161.532 50.6943L161.596 50.4389C161.852 50.6305 161.788 50.2474 162.043 50.5028L161.979 50.5666C162.426 50.5666 162.49 50.822 162.873 50.8859V50.7582C163.001 50.6943 163.256 50.9497 163.384 50.7582H163.065C163.065 50.5666 163.32 50.5028 163.448 50.3751C163.767 50.4389 163.575 50.6943 163.703 50.6943C163.767 50.5028 163.703 50.6305 163.639 50.4389C163.958 50.5028 164.469 50.5666 164.661 50.822V50.7582C165.044 50.7582 165.299 51.0774 165.555 50.8859H165.491C165.746 50.6305 166.257 51.1413 166.257 50.6943C166.385 50.6305 165.938 50.6943 166.193 50.5028C166.64 50.3751 166.448 50.8859 166.832 50.7582C166.768 50.7582 166.768 50.7582 166.768 50.6943C167.023 50.6943 167.406 50.7582 167.662 50.822C168.045 50.4389 168.747 50.9497 169.194 50.5028C169.066 50.6305 169.322 50.6943 169.322 50.7582V50.6943C169.449 50.6943 169.513 50.822 169.577 50.8859C169.705 50.7582 170.024 51.0136 170.088 50.9497C170.088 51.0136 170.215 51.0136 170.343 51.0136C170.088 50.8859 170.279 50.822 170.152 50.6943C170.535 50.6305 170.599 51.1413 171.045 51.0136L171.301 50.822C171.301 50.822 171.365 50.822 171.492 50.8859C171.875 51.2051 172.067 50.7582 172.067 50.9497C172.003 51.269 172.705 50.9497 172.769 50.9497C172.833 50.9497 173.536 51.269 173.472 50.9497C173.408 50.822 173.599 51.2689 174.046 50.8859C174.11 50.822 174.238 50.8859 174.238 50.822L174.493 51.0136C174.94 51.0774 175.004 50.6305 175.387 50.6943C175.259 50.822 175.451 50.9497 175.196 51.0136C175.323 51.0136 175.451 51.0136 175.451 50.9497C175.515 51.0136 175.834 50.7582 175.962 50.8859C176.026 50.822 176.026 50.6943 176.217 50.6943V50.7582C176.217 50.6943 176.472 50.6943 176.345 50.5028C176.792 50.9497 177.494 50.4389 177.877 50.822C178.196 50.7582 178.516 50.7582 178.771 50.6943C178.771 50.7582 178.771 50.7582 178.707 50.7582C179.09 50.8859 178.962 50.3751 179.346 50.5028C179.537 50.6943 179.09 50.6305 179.282 50.6943C179.346 51.1413 179.792 50.6305 180.048 50.8859H179.984C180.176 51.0136 180.495 50.6943 180.878 50.7582V50.822C181.133 50.5666 181.58 50.5028 181.899 50.4389C181.772 50.6305 181.772 50.5028 181.836 50.6943C181.963 50.6943 181.772 50.4389 182.091 50.3751C182.219 50.4389 182.41 50.5666 182.474 50.7582H182.155C182.282 51.0136 182.538 50.7582 182.666 50.7582V50.8859C183.113 50.822 183.113 50.5666 183.559 50.5666L183.496 50.5028C183.751 50.2474 183.687 50.6305 183.943 50.4389L184.006 50.6943C184.198 50.6305 184.581 50.4389 184.9 50.3751C184.709 50.5666 184.389 50.6943 184.134 50.822C184.326 50.822 184.709 50.822 184.773 50.6943C184.709 50.6943 184.645 50.7582 184.581 50.7582C184.773 50.5666 185.092 50.4389 185.411 50.4389C185.347 50.9497 186.305 50.5666 186.56 50.9497C187.135 50.7582 187.773 51.0136 188.476 51.0136C188.22 50.6305 188.667 51.0136 188.667 50.5666C188.859 50.5666 188.859 50.5666 188.923 50.5666H188.859C188.859 50.5666 188.859 50.5666 188.923 50.5666L189.433 50.822C189.561 50.9497 189.306 50.8859 189.306 51.0136C189.689 51.0136 189.433 51.2051 189.689 51.269C189.625 51.1413 189.816 51.0774 190.008 51.1413L189.753 50.9497C190.263 50.6943 190.2 51.269 190.71 51.0774L190.583 51.2051C190.838 51.1413 191.54 51.2051 191.796 50.8859C191.86 50.9497 191.923 51.0774 191.796 51.0774C192.434 51.1413 193.136 50.6943 193.647 50.9497L193.583 51.0774C193.711 51.0774 193.775 50.8859 193.903 51.0136C193.903 51.0774 193.839 51.1413 193.903 51.1413C193.966 51.0774 194.222 50.9497 194.35 51.0136L194.222 51.1413C194.796 51.2689 195.116 50.8859 195.626 50.7582C195.626 51.0774 196.073 51.1413 196.329 51.2051V51.269C197.031 51.3328 197.542 51.0136 198.18 50.8859C198.5 51.1413 199.266 51.0774 199.84 51.1413C199.904 51.1413 200.032 51.0774 200.032 50.9497L200.287 51.1413C200.734 51.2051 200.798 50.7582 201.181 50.822C201.053 50.9497 201.245 51.0774 200.99 51.1413C201.117 51.1413 201.245 51.1413 201.245 51.0774C201.309 51.1413 201.628 50.8859 201.756 51.0136C201.82 50.9497 201.82 50.822 202.011 50.822V50.8859C202.011 50.822 202.267 50.822 202.139 50.6305C202.586 51.0774 203.288 50.5666 203.671 50.9497C203.99 50.8859 204.31 50.8859 204.565 50.822C204.565 50.8859 204.565 50.8859 204.501 50.8859C204.884 51.0136 204.757 50.5028 205.14 50.6305C205.331 50.822 204.884 50.7582 205.076 50.822C205.14 51.2689 205.587 50.7582 205.842 51.0136H205.778C205.97 51.1413 206.289 50.822 206.672 50.8859V50.9497C206.927 50.6943 207.374 50.6305 207.694 50.5666C207.566 50.7582 207.566 50.6305 207.63 50.822C207.757 50.822 207.566 50.5666 207.885 50.5028C208.013 50.5666 208.204 50.6943 208.268 50.8859H207.949C208.077 51.1413 208.332 50.8859 208.46 50.8859V51.0136C208.907 50.9497 208.907 50.6943 209.354 50.6943L209.29 50.6305C209.545 50.3751 209.481 50.7582 209.737 50.5666L209.8 50.822C209.992 50.7582 210.375 50.5666 210.694 50.5028C210.503 50.6943 210.184 50.822 209.928 50.9497C210.12 50.9497 210.503 50.9497 210.567 50.822C210.503 50.822 210.439 50.8859 210.375 50.8859C210.567 50.6943 210.886 50.5666 211.205 50.5666C211.141 51.0774 212.099 50.6943 212.354 51.0774C212.929 50.8859 213.567 51.1413 214.27 51.1413C214.014 50.7582 214.461 51.1413 214.461 50.6943C214.653 50.6943 214.653 50.6943 214.717 50.6943H214.653C214.653 50.6943 214.653 50.6943 214.717 50.6943L215.227 50.9497C215.355 51.0774 215.1 51.0136 215.1 51.1413C215.483 51.1413 215.227 51.3328 215.483 51.3966C215.419 51.269 215.611 51.2051 215.802 51.269L215.547 51.0774C216.057 50.822 215.994 51.3966 216.504 51.2051L216.377 51.3328C216.632 51.269 217.334 51.3328 217.59 51.0136C217.654 51.0774 217.717 51.2051 217.59 51.2051C218.228 51.2689 218.931 50.822 219.441 51.0774L219.377 51.2051C219.505 51.2051 219.569 51.0136 219.697 51.1413C219.697 51.2051 219.633 51.269 219.697 51.269C219.761 51.2051 220.016 51.0774 220.144 51.1413L220.016 51.269C220.591 51.3966 220.91 51.0136 221.421 50.8859C221.421 51.2051 221.868 51.269 222.123 51.3328V51.3966C222.825 51.4605 223.336 51.1413 223.974 51.0136C224.294 51.269 225.06 51.2051 225.634 51.269C225.698 51.269 225.826 51.2051 225.826 51.0774L226.081 51.269C226.528 51.3328 226.592 50.8859 226.975 50.9497C226.848 51.0774 227.039 51.2051 226.784 51.269C226.911 51.269 227.039 51.2689 227.039 51.2051C227.103 51.2689 227.422 51.0136 227.55 51.1413C227.614 51.0774 227.614 50.9497 227.805 50.9497V51.0136C227.805 50.9497 228.061 50.9497 227.933 50.7582C228.38 51.2051 229.082 50.6943 229.465 51.0774C229.785 51.0136 230.104 51.0136 230.359 50.9497C230.359 51.0136 230.359 51.0136 230.295 51.0136C230.678 51.1413 230.551 50.6305 230.934 50.7582C231.125 50.9497 230.678 50.8859 230.87 50.9497C230.934 51.3966 231.381 50.8859 231.636 51.1413H231.572C231.764 51.2689 232.083 50.9497 232.466 51.0136V51.0774C232.721 50.822 233.168 50.7582 233.488 50.6943C233.36 50.8859 233.36 50.7582 233.424 50.9497C233.551 50.9497 233.36 50.6943 233.679 50.6305C233.807 50.6943 233.998 50.822 234.062 51.0136H233.743C233.871 51.269 234.126 51.0136 234.254 51.0136V51.1413C234.701 51.0774 234.701 50.822 235.148 50.822L235.084 50.7582C235.339 50.5028 235.275 50.8859 235.531 50.6943L235.595 50.9497C235.786 50.8859 236.169 50.6943 236.488 50.6305C236.297 50.822 235.978 50.9497 235.722 51.0774C235.914 51.0774 236.297 51.0774 236.361 50.9497C236.297 50.9497 236.233 51.0136 236.169 51.0136C236.361 50.822 236.68 50.6943 236.999 50.6943C236.935 51.2051 237.893 50.822 238.148 51.2051C238.723 51.0136 239.362 51.269 240.064 51.269C239.808 50.8859 240.255 51.2689 240.255 50.822C240.447 50.822 240.447 50.822 240.511 50.822H240.447C240.447 50.822 240.447 50.822 240.511 50.822L241.022 51.0774C241.149 51.2051 240.894 51.1413 240.894 51.269C241.277 51.269 241.022 51.4605 241.277 51.5243C241.213 51.3966 241.405 51.3328 241.596 51.3966L241.341 51.2051C241.852 50.9497 241.788 51.5243 242.298 51.3328L242.171 51.4605C242.426 51.3966 243.128 51.4605 243.384 51.1413C243.448 51.2051 243.512 51.3328 243.384 51.3328C244.022 51.3966 244.725 50.9497 245.235 51.2051L245.172 51.3328C245.299 51.3328 245.363 51.1413 245.491 51.269C245.491 51.3328 245.427 51.3966 245.491 51.3966C245.555 51.3328 245.81 51.2051 245.938 51.269L245.81 51.3966C246.385 51.5243 246.704 51.1413 247.215 51.0136C247.215 51.3328 247.662 51.3966 247.917 51.4605V51.5243C248.619 51.5882 249.13 51.2689 249.769 51.1413C250.088 51.3966 250.854 51.269 251.429 51.3328C251.429 51.0136 251.429 49.0343 251.429 48.8428H94.1101Z" fill="#B13675"/>
<path d="M109.497 37.9888L97.6217 20.5586V37.9888H94.3655V14.8124H97.3663L110.327 33.7111L123.416 14.8124H126.417V37.925H123.097V20.431L111.093 37.9888H109.497Z" fill="#F2F2F2"/>
<path d="M158.404 17.6855H142.251C141.421 17.6855 140.591 17.8771 139.761 18.1963C138.931 18.5156 138.164 19.0263 137.526 19.601C136.887 20.2394 136.313 20.9417 135.866 21.7717C135.419 22.6017 135.227 23.4956 135.164 24.4533H158.212V27.1987H135.164V27.7095C135.164 28.7949 135.355 29.8164 135.738 30.7103C136.121 31.6041 136.696 32.3703 137.334 33.0726C138.037 33.7111 138.803 34.2219 139.697 34.6049C140.591 34.988 141.548 35.1157 142.634 35.1157H158.34V37.8611H141.548C140.271 37.8611 139.058 37.6057 137.909 37.1588C136.76 36.7119 135.674 36.0096 134.78 35.1157C133.887 34.2219 133.12 33.2003 132.546 31.9872C131.971 30.7741 131.716 29.4334 131.716 27.901V24.6448C131.716 23.1764 131.971 21.8356 132.61 20.6225C133.184 19.4094 133.95 18.3879 134.908 17.494C135.866 16.6002 136.887 15.9617 138.1 15.4509C139.314 14.9401 140.527 14.7486 141.74 14.7486H158.34V17.6855H158.404Z" fill="#F2F2F2"/>
<path d="M189.433 37.9888H172.769C171.365 37.9888 170.088 37.7334 168.939 37.2865C167.789 36.8396 166.768 36.1373 165.874 35.3073C165.044 34.4773 164.342 33.3919 163.895 32.1788C163.384 30.9657 163.192 29.5611 163.192 28.0287V14.8763H166.576V27.7733C166.576 28.9226 166.768 29.9441 167.087 30.9018C167.406 31.7957 167.917 32.5618 168.492 33.2642C169.13 33.9026 169.832 34.4134 170.662 34.7326C171.492 35.0519 172.45 35.2434 173.472 35.2434H189.433V37.9888Z" fill="#F2F2F2"/>
<path d="M195.563 14.8763V24.6448H207.757C208.715 24.6448 209.481 24.5172 210.184 24.2618C210.822 24.0064 211.461 23.4318 211.971 22.5379C212.099 22.2825 212.418 21.8356 212.801 21.0694C213.248 20.3033 213.695 19.5371 214.142 18.7071C214.653 17.8771 215.1 17.0471 215.483 16.3448C215.866 15.5786 216.185 15.1317 216.313 14.8763H219.952L215.036 23.6871C214.717 24.2618 214.398 24.7087 214.014 25.1556C213.631 25.6026 213.121 25.9218 212.482 26.1133V26.1772C213.248 26.3049 213.887 26.5603 214.334 26.9433C214.844 27.3264 215.228 27.901 215.611 28.6033L220.718 38.0527H217.079L212.61 29.7526C212.418 29.3057 212.163 28.9864 211.844 28.6672C211.588 28.348 211.205 28.1564 210.822 27.9649C210.439 27.7733 209.928 27.6456 209.417 27.5818C208.843 27.518 208.204 27.4541 207.438 27.4541H195.563V38.0527H192.243V14.8763H195.563Z" fill="#F2F2F2"/>
<path d="M250.982 17.6855H234.828C233.998 17.6855 233.168 17.8771 232.338 18.1963C231.508 18.5156 230.742 19.0263 230.104 19.601C229.465 20.2394 228.891 20.9417 228.444 21.7717C227.997 22.6017 227.805 23.4956 227.741 24.4533H250.79V27.1987H227.741V27.7095C227.741 28.7949 227.933 29.8164 228.316 30.7103C228.699 31.6041 229.274 32.3703 229.912 33.0726C230.615 33.7111 231.381 34.2219 232.275 34.6049C233.168 34.988 234.126 35.1157 235.212 35.1157H250.918V37.8611H234.126C232.849 37.8611 231.636 37.6057 230.487 37.1588C229.338 36.7119 228.252 36.0096 227.358 35.1157C226.465 34.2219 225.698 33.2003 225.124 31.9872C224.549 30.7741 224.294 29.4334 224.294 27.901V24.6448C224.294 23.1764 224.549 21.8356 225.188 20.6225C225.826 19.4094 226.528 18.3879 227.486 17.494C228.444 16.6002 229.465 15.9617 230.678 15.4509C231.891 14.9401 233.105 14.7486 234.318 14.7486H250.918V17.6855H250.982Z" fill="#F2F2F2"/>
<path d="M77.3185 19.984L65.1876 2.93695V17.8132C65.1237 17.8132 65.0599 17.8132 64.996 17.8132C64.8684 17.8771 64.8045 17.8771 64.7407 18.0048H64.8045C64.8045 18.0686 64.7407 18.0686 64.6768 18.0686C64.6768 18.1325 64.613 18.0686 64.613 18.1325C64.5491 18.2602 64.3576 18.324 64.2937 18.3879C64.2299 18.3879 64.1022 18.5156 64.0383 18.5156H64.1022C63.9745 18.5794 64.1022 18.6433 63.9745 18.7071V18.6433C63.9745 18.7071 63.9107 18.7071 63.9107 18.6433C63.9107 18.7071 63.9107 18.7071 63.9107 18.7709H63.9745L63.9107 18.8986C63.9107 18.8986 63.9107 18.8986 63.8468 18.9625C63.783 18.8986 63.783 19.0263 63.783 18.8986C63.6553 19.0263 63.5914 19.154 63.4637 19.2179C63.4637 19.3456 63.2722 19.4094 63.336 19.4733C63.2722 19.5371 63.2083 19.5371 63.1445 19.5371C63.1445 19.5371 63.1445 19.5371 63.2083 19.5371C63.1445 19.5371 63.0806 19.601 63.0806 19.601C63.1445 19.601 63.2083 19.5371 63.2722 19.5371C63.2083 19.601 63.0806 19.601 63.0806 19.6648V19.7286C63.0168 19.7286 63.0806 19.7925 63.0168 19.7925C62.9529 19.8563 62.8891 19.8563 62.8253 19.9202C62.8253 19.9202 62.7614 19.9202 62.7614 19.984L62.8253 19.9202C62.8253 19.984 62.8253 19.984 62.8253 20.0479C62.7614 20.1117 62.7614 20.0479 62.7614 20.0479C62.7614 20.1117 62.7614 20.0479 62.8253 20.0479C62.7614 20.1117 62.6976 20.1756 62.5699 20.1756C62.506 20.2394 62.4422 20.2394 62.3783 20.3033C62.3783 20.3671 62.1868 20.3671 62.2506 20.431C62.2506 20.4948 62.3145 20.3671 62.3145 20.431C62.2506 20.4948 62.1868 20.431 62.1868 20.4948C62.1229 20.5587 62.0591 20.5587 61.9952 20.6225C61.9952 20.7502 61.8037 20.814 61.8037 20.9417C61.8037 20.8779 61.7399 20.9417 61.7399 20.9417H61.676C61.676 21.0056 61.6122 21.0056 61.6122 21.0056C61.6122 21.0056 61.6122 21.0056 61.5483 21.0056C61.6122 21.0056 61.6122 21.0056 61.6122 21.0056C61.5483 21.0694 61.4845 21.0056 61.4206 21.0694V21.1333H61.3568C61.2929 21.261 61.1014 21.3248 61.1014 21.4525C60.9737 21.5164 60.846 21.5802 60.7183 21.7079C60.6545 21.7717 60.5906 21.8356 60.6545 21.8994C60.5268 21.9633 60.4629 21.9633 60.3352 22.091H60.3991C60.3991 22.1548 60.3352 22.1548 60.2714 22.1548C60.2714 22.2187 60.2075 22.1548 60.2075 22.2187C60.1437 22.3464 59.9522 22.4102 59.8883 22.4741C59.8245 22.4741 59.6968 22.6018 59.6329 22.6018H59.6968C59.5691 22.6656 59.6968 22.7294 59.5691 22.7933V22.7294C59.5691 22.7933 59.5052 22.7933 59.5052 22.7294C59.5052 22.7933 59.5052 22.7933 59.5052 22.8571H59.5691L59.5052 22.9848C59.5052 22.9848 59.5052 22.9848 59.4414 23.0487C59.3775 22.9848 59.3775 23.1125 59.3775 22.9848C59.2498 23.1125 59.186 23.2402 59.0583 23.3041C59.0583 23.4318 58.8668 23.4956 58.9306 23.5595C58.8668 23.6233 58.8029 23.6233 58.7391 23.6233C58.7391 23.6233 58.7391 23.6233 58.8029 23.6233C58.7391 23.6233 58.6752 23.6871 58.6752 23.6871C58.7391 23.6871 58.8029 23.6233 58.8668 23.6233C58.8029 23.6871 58.6752 23.6871 58.6752 23.751V23.8148C58.6114 23.8148 58.6752 23.8787 58.6114 23.8787C58.5475 23.9425 58.4837 23.9425 58.4198 24.0064C58.4198 24.0064 58.356 24.0064 58.356 24.0702L58.4198 24.0064C58.4198 24.0702 58.4198 24.0702 58.4198 24.1341C58.356 24.1979 58.356 24.1341 58.356 24.1341C58.356 24.1979 58.356 24.1341 58.4198 24.1341C58.356 24.1979 58.2921 24.2618 58.1644 24.2618C58.1006 24.3256 58.0368 24.3256 57.9729 24.3895C57.9729 24.4533 57.7814 24.4533 57.8452 24.5172C57.8452 24.581 57.9091 24.4533 57.9091 24.5172C57.8452 24.581 57.7814 24.5172 57.7814 24.581C57.7175 24.6448 57.6537 24.6449 57.5898 24.7087C57.5898 24.8364 57.3983 24.9002 57.3983 25.0279C57.3983 24.9641 57.3344 25.0279 57.3344 25.0279H57.2706C57.2706 25.0918 57.2067 25.0918 57.2067 25.0918C57.2067 25.0918 57.2067 25.0918 57.1429 25.0918C57.2067 25.0918 57.2067 25.0918 57.2067 25.0918C57.1429 25.1556 57.0791 25.0918 57.0152 25.1556V25.2195H56.9514C56.8875 25.3472 56.696 25.411 56.696 25.5387C56.5683 25.6026 56.4406 25.6664 56.3129 25.7941C56.249 25.8579 56.1852 25.9218 56.249 25.9856C56.1213 26.0495 56.0575 26.0495 55.9298 26.1772H55.9937C55.9937 26.241 55.9298 26.241 55.866 26.241C55.866 26.3049 55.8021 26.241 55.8021 26.3049C55.7383 26.4326 55.5467 26.4964 55.4829 26.5603C55.419 26.5603 55.2913 26.6879 55.2275 26.6879H55.2913C55.1636 26.7518 55.2913 26.8156 55.1636 26.8795V26.8156C55.1636 26.8795 55.0998 26.8795 55.0998 26.8156C55.0998 26.8795 55.0998 26.8795 55.0998 26.9433H55.1636L55.0998 27.071C55.0998 27.071 55.0998 27.071 55.0359 27.1349C54.9721 27.071 54.9721 27.1987 54.9721 27.071C54.8444 27.1987 54.7806 27.3264 54.6529 27.3903C54.6529 27.518 54.4613 27.5818 54.5252 27.6456C54.4613 27.7095 54.3975 27.7095 54.3336 27.7095C54.3336 27.7095 54.3336 27.7095 54.3975 27.7095C54.3336 27.7095 54.2698 27.7733 54.2698 27.7733C54.3336 27.7733 54.3975 27.7095 54.4613 27.7095C54.3975 27.7733 54.2698 27.7733 54.2698 27.8372V27.901C54.2059 27.901 54.2698 27.9649 54.2059 27.9649C54.1421 28.0287 54.0782 28.0287 54.0144 28.0926C54.0144 28.0926 53.9506 28.0926 53.9506 28.1564L54.0144 28.0926C54.0144 28.1564 54.0144 28.1564 54.0144 28.2203C53.9506 28.2841 53.9506 28.2203 53.9506 28.2203C53.9506 28.2841 53.9506 28.2203 54.0144 28.2203C53.9506 28.2841 53.8867 28.348 53.759 28.348C53.6952 28.4118 53.6313 28.4118 53.5675 28.4757C53.5675 28.5395 53.3759 28.5395 53.4398 28.6033C53.4398 28.6672 53.5036 28.5395 53.5036 28.6033C53.4398 28.6672 53.3759 28.6033 53.3759 28.6672C53.3121 28.731 53.2482 28.731 53.1844 28.7949C53.1844 28.9226 52.9929 28.9864 52.9929 29.1141C52.9929 29.0503 52.929 29.1141 52.929 29.1141H52.8652C52.8652 29.178 52.8013 29.178 52.8013 29.178C52.8013 29.178 52.8013 29.178 52.7375 29.178C52.8013 29.178 52.8013 29.178 52.8013 29.178C52.7375 29.2418 52.6736 29.178 52.6098 29.2418V29.3057C52.6098 29.3057 52.6098 29.3057 52.5459 29.3057C52.4182 29.3057 52.4821 29.4334 52.4182 29.3695C52.4182 29.3057 52.2905 29.4972 52.2905 29.4972C52.2905 29.4972 52.099 29.5611 52.1628 29.6249C52.1628 29.6249 52.099 29.6249 52.099 29.6887C52.099 29.6887 52.099 29.6887 52.099 29.7526H52.0352C51.9713 29.8164 52.0352 29.8803 51.9075 29.9441C51.9075 29.8803 51.8436 29.9441 51.9075 29.8803L51.8436 29.9441L51.7798 30.008V30.0718V30.1357C51.6521 30.1357 51.5882 30.3272 51.4605 30.3272C51.3967 30.3911 51.3328 30.4549 51.3328 30.5188C51.269 30.5826 51.3328 30.5826 51.269 30.6464C51.2051 30.6464 51.269 30.5826 51.269 30.5826C51.2051 30.5188 51.2051 30.6464 51.0775 30.7103C51.0136 30.7103 51.0136 30.838 50.9498 30.9018C50.9498 30.9657 50.8859 31.0295 50.8221 31.1572C50.8221 31.0934 50.8221 31.0934 50.8221 31.0934C50.8221 31.0934 50.8859 31.1572 50.8221 31.1572C50.8221 31.1572 50.7582 31.1572 50.6944 31.1572L50.7582 31.0934C50.6944 31.0934 50.6944 31.1572 50.6944 31.1572C50.6305 31.2211 50.6305 31.2849 50.5667 31.3488C50.5667 31.4126 50.5028 31.3488 50.5028 31.4126H50.439C50.439 31.4765 50.3751 31.5403 50.3113 31.6041C50.3113 31.5403 50.3751 31.4765 50.3751 31.4126C50.3751 31.4126 50.2474 31.5403 50.3113 31.5403V31.4765C50.3113 31.5403 50.2474 31.6041 50.1836 31.668C50.1197 31.6041 49.9921 31.7957 49.9282 31.7957C49.8644 31.9234 49.7367 31.9872 49.609 32.1149C49.7367 32.1149 49.5451 32.1788 49.609 32.1788L49.5451 32.2426L49.4174 32.3065C49.3536 32.3065 49.4174 32.2426 49.4174 32.2426C49.3536 32.3065 49.3536 32.2426 49.2897 32.2426C49.2897 32.2426 49.2897 32.3065 49.2259 32.3065H49.2897C49.2259 32.4342 49.162 32.3065 49.0982 32.4342V32.3703C49.0344 32.4342 48.9067 32.498 48.9067 32.6257C48.9067 32.6257 48.8428 32.6257 48.9067 32.6257C48.779 32.6895 48.7151 32.8811 48.5874 32.9449C48.5874 32.9449 48.5874 33.0088 48.5236 33.0088C48.5236 33.0088 48.5236 33.0726 48.4597 33.0726V33.0088C48.332 33.0726 48.332 33.2003 48.2682 33.2642C48.2043 33.2003 48.1405 33.2642 48.0767 33.328C47.949 33.4557 47.8851 33.5834 47.8213 33.7111C47.7574 33.7111 47.6297 33.8388 47.502 33.9665V34.0303H47.4382C47.3743 34.0942 47.4382 34.158 47.3105 34.2219C47.3105 34.158 47.2466 34.2219 47.3105 34.158L47.2466 34.2219L47.1828 34.2857V34.3496V34.4134C47.0551 34.4134 46.9913 34.6049 46.8636 34.6049C46.7997 34.6688 46.7359 34.7326 46.7359 34.7965C46.672 34.8603 46.7359 34.8603 46.672 34.9242C46.6082 34.9242 46.672 34.8603 46.672 34.8603C46.6082 34.7965 46.6082 34.9242 46.4805 34.988C46.4166 34.988 46.4166 35.1157 46.3528 35.1796C46.3528 35.2434 46.2889 35.3073 46.2251 35.435C46.2251 35.3711 46.2251 35.3711 46.2251 35.3711C46.2251 35.3711 46.2889 35.435 46.2251 35.435C46.2251 35.435 46.1612 35.435 46.0974 35.435L46.1613 35.3711C46.0974 35.3711 46.0974 35.435 46.0974 35.435C46.0336 35.4988 46.0336 35.5626 45.9697 35.6265C45.9697 35.6903 45.9059 35.6265 45.9059 35.6903H45.842C45.842 35.7542 45.7782 35.818 45.7143 35.8819C45.7143 35.818 45.7782 35.7542 45.7782 35.6903C45.7782 35.6903 45.6505 35.818 45.7143 35.818V35.7542C45.7143 35.818 45.6505 35.8819 45.5866 35.9457C45.5228 35.8819 45.3951 36.0734 45.3312 36.0734C45.2674 36.2011 45.1397 36.265 45.012 36.3927C45.1397 36.3927 44.9482 36.4565 45.012 36.4565L44.9482 36.5203L44.8205 36.5842C44.7566 36.5842 44.8205 36.5203 44.8205 36.5203C44.7566 36.5842 44.7566 36.5203 44.6928 36.5203C44.6928 36.5203 44.6928 36.5842 44.6289 36.5842H44.6928C44.6289 36.7119 44.5651 36.5842 44.5012 36.7119V36.648C44.4374 36.7119 44.3097 36.7757 44.3097 36.9034C44.3097 36.9034 44.2458 36.9034 44.3097 36.9034C44.182 36.9673 44.1182 37.1588 43.9905 37.2227C43.9905 37.2227 43.9905 37.2865 43.9266 37.2865C43.9266 37.2865 43.9266 37.3504 43.8628 37.3504V37.2865C43.7351 37.3504 43.7351 37.4781 43.6712 37.5419C43.6074 37.4781 43.5435 37.5419 43.4797 37.6057C43.352 37.7334 43.2881 37.8611 43.2243 37.9888C43.1604 37.9888 43.0328 38.1165 42.9051 38.2442V38.3081H42.8412C42.7774 38.3719 42.8412 38.4357 42.7135 38.4996C42.7135 38.4357 42.6497 38.4996 42.7135 38.4358L42.6497 38.4996L42.5858 38.5634V38.6273V38.6911C42.4581 38.6911 42.3943 38.8827 42.2666 38.8827C42.2027 38.9465 42.1389 39.0104 42.1389 39.0742C42.0751 39.1381 42.1389 39.1381 42.0751 39.2019C42.0112 39.2019 42.0751 39.1381 42.0751 39.1381C42.0112 39.0742 42.0112 39.2019 41.8835 39.2658C41.8197 39.2658 41.8197 39.3935 41.7558 39.4573C41.7558 39.5211 41.692 39.585 41.6281 39.7127C41.6281 39.6488 41.6281 39.6488 41.6281 39.6488C41.6281 39.6488 41.692 39.7127 41.6281 39.7127C41.6281 39.7127 41.5643 39.7127 41.5004 39.7127L41.5643 39.6488C41.5004 39.6488 41.5004 39.7127 41.5004 39.7127C41.4366 39.7765 41.4366 39.8404 41.3727 39.9042C41.3727 39.9681 41.3089 39.9042 41.3089 39.9681H41.245C41.245 40.0319 41.1812 40.0958 41.1174 40.1596C41.1174 40.0958 41.1812 40.0319 41.1812 39.9681C41.1812 39.9681 41.0535 40.0958 41.1174 40.0958V40.0319C41.1174 40.0958 41.0535 40.1596 40.9897 40.2235C40.9258 40.1596 40.7981 40.3512 40.7343 40.3512C40.6704 40.4788 40.5427 40.5427 40.415 40.6704C40.5427 40.6704 40.3512 40.7342 40.415 40.7342L40.3512 40.7981L40.2235 40.8619C40.1597 40.8619 40.2235 40.7981 40.2235 40.7981C40.1597 40.8619 40.1597 40.7981 40.0958 40.7981C40.0958 40.7981 40.0958 40.8619 40.032 40.8619H40.0958C40.032 40.9896 39.9681 40.8619 39.9043 40.9896V40.9258C39.8404 40.9896 39.7127 41.0535 39.7127 41.1812C39.7127 41.1812 39.6489 41.1812 39.7127 41.1812C39.585 41.245 39.5212 41.4366 39.3935 41.5004C39.3935 41.5004 39.3935 41.5642 39.3296 41.5642C39.3296 41.5642 39.3296 41.6281 39.2658 41.6281V41.5642C39.1381 41.6281 39.1381 41.7558 39.0743 41.8196C39.0104 41.7558 38.9466 41.8196 38.8827 41.8835C38.755 42.0112 38.6912 42.1389 38.6273 42.2666C38.5635 42.2666 38.5635 42.2666 38.4358 42.3943C38.4358 42.4581 38.4358 42.5858 38.4358 42.6496V80.0638L50.5028 61.1652V32.6257L64.996 19.0902V38.755L77.3185 19.984Z" fill="#AB3473"/>
<path d="M40.4789 40.7342C40.4789 40.7342 40.4789 40.6704 40.415 40.6704C40.4789 40.6704 40.415 40.7981 40.4789 40.7342Z" fill="#AB3473"/>
<path d="M41.3088 39.9042C41.3088 39.9042 41.3727 39.9042 41.3727 39.8404C41.3727 39.8404 41.3088 39.8404 41.3088 39.9042Z" fill="#AB3473"/>
<path d="M44.9481 36.5842C44.9481 36.5842 44.9481 36.5204 44.8843 36.5204C44.9481 36.5204 44.8843 36.648 44.9481 36.5842Z" fill="#AB3473"/>
<path d="M45.7782 35.7542C45.7782 35.7542 45.842 35.7542 45.842 35.6903C45.842 35.6903 45.7782 35.6903 45.7782 35.7542Z" fill="#AB3473"/>
<path d="M49.4175 32.4342C49.4175 32.4342 49.4175 32.3703 49.3536 32.3703C49.4175 32.3703 49.3536 32.498 49.4175 32.4342Z" fill="#AB3473"/>
<path d="M50.2474 31.6042C50.2474 31.6042 50.3113 31.6042 50.3113 31.5403C50.3113 31.5403 50.2474 31.5403 50.2474 31.6042Z" fill="#AB3473"/>
<path d="M63.783 18.8348C63.783 18.8986 63.8468 18.8986 63.783 18.8348C63.9107 18.8348 63.783 18.8986 63.783 18.8348Z" fill="#AB3473"/>
<path d="M61.6122 20.9417C61.5484 20.9417 61.5484 21.0056 61.6122 20.9417C61.5484 21.0056 61.6122 20.9417 61.6122 20.9417Z" fill="#AB3473"/>
<path d="M62.889 19.7925C62.889 19.7925 62.889 19.7287 62.9529 19.7287C62.9529 19.7287 62.889 19.7287 62.889 19.7925Z" fill="#AB3473"/>
<path d="M59.3776 23.0487C59.3137 23.1125 59.4414 23.0487 59.3776 23.0487C59.4414 22.9848 59.3776 23.1125 59.3776 23.0487Z" fill="#AB3473"/>
<path d="M58.4836 23.9425C58.4836 23.9425 58.4836 23.8787 58.5475 23.8787C58.4836 23.8787 58.4836 23.8787 58.4836 23.9425Z" fill="#AB3473"/>
<path d="M54.9082 27.1987C54.9082 27.2626 54.972 27.2626 54.9082 27.1987C55.0359 27.1987 54.9082 27.2626 54.9082 27.1987Z" fill="#AB3473"/>
<path d="M54.0144 28.0926C54.0144 28.0926 54.0144 28.0287 54.0783 28.0287C54.0144 28.0287 54.0144 28.0926 54.0144 28.0926Z" fill="#AB3473"/>
<path d="M36.9034 40.6704C36.8396 40.6704 36.8396 40.7342 36.8396 40.7342C36.9673 40.7981 36.8396 40.6704 36.9034 40.6704Z" fill="#CDD430"/>
<path d="M35.9457 39.8404C35.9457 39.8404 36.0095 39.8404 36.0095 39.9042C36.0095 39.8404 36.0095 39.8404 35.9457 39.8404Z" fill="#CDD430"/>
<path d="M32.4342 36.5204C32.3704 36.5204 32.3704 36.5842 32.3704 36.5842C32.498 36.648 32.3704 36.5204 32.4342 36.5204Z" fill="#CDD430"/>
<path d="M31.4764 35.6903C31.4764 35.6903 31.5403 35.6903 31.5403 35.7542C31.5403 35.6903 31.5403 35.6903 31.4764 35.6903Z" fill="#CDD430"/>
<path d="M27.9648 32.3703C27.901 32.3703 27.901 32.4342 27.901 32.4342C28.0287 32.498 27.901 32.3703 27.9648 32.3703Z" fill="#CDD430"/>
<path d="M27.0072 31.5403C27.0072 31.5403 27.0711 31.5403 27.0711 31.6042C27.0711 31.5403 27.071 31.5403 27.0072 31.5403Z" fill="#CDD430"/>
<path d="M13.5355 18.8348C13.5355 18.8986 13.4716 18.8348 13.5355 18.8348C13.4716 18.8986 13.5993 18.8986 13.5355 18.8348Z" fill="#CDD430"/>
<path d="M15.5148 20.6864C15.5148 20.7502 15.5786 20.6864 15.5148 20.6864V20.6864Z" fill="#CDD430"/>
<path d="M14.3655 19.7287L14.4293 19.7925C14.4293 19.7287 14.4293 19.7287 14.3655 19.7287Z" fill="#CDD430"/>
<path d="M18.0047 23.0487C18.0047 23.1125 17.8771 22.9848 18.0047 23.0487C17.9409 23.0487 18.0047 23.1125 18.0047 23.0487Z" fill="#CDD430"/>
<path d="M18.8348 23.8787L18.8987 23.9425C18.8987 23.8787 18.8348 23.8787 18.8348 23.8787Z" fill="#CDD430"/>
<path d="M22.4103 27.1987C22.4741 27.2626 22.3464 27.1987 22.4103 27.1987C22.3464 27.2626 22.4741 27.2626 22.4103 27.1987Z" fill="#CDD430"/>
<path d="M24.3894 29.0503C24.3894 29.1141 24.4532 29.0503 24.3894 29.0503V29.0503Z" fill="#CDD430"/>
<path d="M23.3041 28.0287L23.3679 28.0926C23.3041 28.0926 23.3041 28.0287 23.3041 28.0287Z" fill="#CDD430"/>
<path d="M38.6911 42.3304C38.5634 42.2666 38.6273 42.2027 38.4996 42.2027C38.3719 42.075 38.3719 41.9473 38.2442 41.8196C38.1804 41.8196 38.1165 41.7558 38.0527 41.7558C37.9888 41.6919 37.9888 41.5642 37.8611 41.5004V41.5642C37.7973 41.5642 37.7973 41.5004 37.7973 41.5004C37.7334 41.5004 37.7973 41.4366 37.7334 41.4366C37.6057 41.3727 37.5419 41.1812 37.4142 41.1173C37.4142 41.0535 37.2865 40.9258 37.2227 40.8619V40.9258C37.1588 40.7981 37.095 40.9258 37.0311 40.7981H37.095C37.0311 40.7981 37.0311 40.7342 37.0311 40.7342C36.9673 40.7342 36.9673 40.7981 36.9034 40.7342C36.9034 40.7342 36.9673 40.7981 36.9034 40.7981L36.7757 40.7342C36.7757 40.7342 36.7757 40.7342 36.7119 40.6704C36.7757 40.6065 36.648 40.6065 36.7119 40.6065C36.5842 40.4789 36.4565 40.415 36.3927 40.2873C36.265 40.2873 36.2011 40.0958 36.1373 40.1596C36.0734 40.0958 36.0734 40.0319 36.0096 39.9681C36.0096 39.9681 36.0096 39.9681 36.0096 40.0319C36.0096 39.9681 35.9457 39.9042 35.9457 39.9042C35.9457 39.9681 36.0096 40.0319 36.0096 40.0958C35.9457 40.0319 35.9457 39.9681 35.8819 39.9042H35.818C35.818 39.8404 35.7542 39.9042 35.7542 39.8404C35.6903 39.7765 35.6903 39.7127 35.6265 39.6488C35.5626 39.6488 35.5626 39.585 35.5626 39.585L35.6265 39.6488C35.6265 39.6488 35.5626 39.6488 35.4988 39.6488C35.435 39.585 35.4988 39.585 35.4988 39.585C35.435 39.585 35.4988 39.585 35.4988 39.6488C35.435 39.585 35.3711 39.5211 35.3711 39.3935C35.3073 39.3296 35.3073 39.2658 35.2434 39.2019C35.1796 39.2019 35.1796 39.0742 35.0519 39.0742C34.988 39.0742 35.1157 39.1381 35.0519 39.1381C34.988 39.0742 35.0519 39.0104 34.988 39.0104C34.9242 38.9465 34.8603 38.8827 34.8603 38.8188C34.7326 38.8188 34.6688 38.6273 34.5411 38.6273C34.6049 38.6273 34.5411 38.5634 34.5411 38.5634V38.4996C34.4773 38.4996 34.4773 38.4358 34.4773 38.4358C34.4773 38.4358 34.4773 38.4358 34.4134 38.3719C34.4773 38.4358 34.4134 38.4358 34.4134 38.4358C34.3496 38.3719 34.4134 38.3081 34.2857 38.2442H34.2219V38.1804C34.0942 38.1165 33.9665 37.9888 33.9026 37.925C33.7749 37.7973 33.7749 37.6696 33.6472 37.5419C33.5834 37.5419 33.5196 37.4781 33.4557 37.4781C33.3919 37.4142 33.3919 37.2865 33.2642 37.2227V37.2865C33.2003 37.2865 33.2003 37.2227 33.2003 37.2227C33.1365 37.2227 33.2003 37.1588 33.1365 37.1588C33.0088 37.095 32.9449 36.9034 32.8172 36.8396C32.8172 36.7757 32.6895 36.648 32.6257 36.5842V36.648C32.5619 36.5204 32.498 36.648 32.4342 36.5204H32.498C32.4342 36.5204 32.4342 36.4565 32.4342 36.4565C32.3703 36.4565 32.3703 36.5204 32.3065 36.4565C32.3065 36.4565 32.3703 36.5204 32.3065 36.5204L32.1788 36.4565C32.1788 36.4565 32.1788 36.4565 32.1149 36.3927C32.1788 36.3288 32.0511 36.3288 32.1149 36.3288C31.9872 36.2011 31.8595 36.1373 31.7957 36.0096C31.668 36.0096 31.6042 35.818 31.5403 35.8819C31.4765 35.818 31.4765 35.7542 31.4126 35.6903C31.4126 35.6903 31.4126 35.6903 31.4126 35.7542C31.4126 35.6903 31.3488 35.6265 31.3488 35.6265C31.3488 35.6903 31.4126 35.7542 31.4126 35.818C31.3488 35.7542 31.3488 35.6903 31.2849 35.6265H31.2211C31.2211 35.5626 31.1572 35.6265 31.1572 35.5626C31.0934 35.4988 31.0934 35.435 31.0295 35.3711C30.9657 35.3711 30.9657 35.3073 30.9657 35.3073L31.0295 35.3711C31.0295 35.3711 30.9657 35.3711 30.9018 35.3711C30.838 35.3073 30.9018 35.3073 30.9018 35.3073C30.838 35.3073 30.9018 35.3073 30.9018 35.3711C30.838 35.3073 30.7741 35.2434 30.7741 35.1157C30.7103 35.0519 30.7103 34.988 30.6464 34.9242C30.5826 34.9242 30.5826 34.7965 30.4549 34.7965C30.3911 34.7965 30.5188 34.8603 30.4549 34.8603C30.3911 34.7965 30.4549 34.7326 30.3911 34.7326C30.3272 34.6688 30.2634 34.6049 30.2634 34.5411C30.1357 34.5411 30.0718 34.3496 29.9441 34.3496C30.008 34.3496 29.9441 34.2857 29.9441 34.2857V34.2219C29.8803 34.2219 29.8803 34.158 29.8803 34.158C29.8803 34.158 29.8803 34.158 29.8164 34.0942C29.8803 34.158 29.8164 34.158 29.8164 34.158C29.7526 34.0942 29.8164 34.0303 29.6887 33.9665H29.6249V33.9026C29.4972 33.8388 29.3695 33.7111 29.3057 33.6472C29.178 33.5196 29.178 33.3919 29.0503 33.2642C28.9864 33.2642 28.9226 33.2003 28.8587 33.2003C28.7949 33.1365 28.7949 33.0088 28.6672 32.9449V33.0088C28.6034 33.0088 28.6034 32.9449 28.6034 32.9449C28.5395 32.9449 28.6034 32.8811 28.5395 32.8811C28.4118 32.8172 28.348 32.6257 28.2203 32.5619C28.2203 32.498 28.0926 32.3703 28.0287 32.3065V32.3703C27.9649 32.2426 27.901 32.3703 27.8372 32.2426H27.901C27.8372 32.2426 27.8372 32.1788 27.8372 32.1788C27.7733 32.1788 27.7733 32.2426 27.7095 32.1788C27.7095 32.1788 27.7733 32.2426 27.7095 32.2426L27.5818 32.1788C27.5818 32.1788 27.5818 32.1788 27.518 32.1149C27.5818 32.0511 27.4541 32.0511 27.518 32.0511C27.3903 31.9234 27.2626 31.8595 27.1987 31.7318C27.071 31.7318 27.0072 31.5403 26.9433 31.6042C26.8795 31.5403 26.8795 31.4765 26.8156 31.4126C26.8156 31.4126 26.8156 31.4126 26.8156 31.4765C26.8156 31.4126 26.7518 31.3488 26.7518 31.3488C26.7518 31.4126 26.8156 31.4765 26.8156 31.5403C26.7518 31.4765 26.7518 31.4126 26.6879 31.3488H26.6241C26.6241 31.2849 26.5603 31.3488 26.5603 31.2849C26.4964 31.2211 26.4964 31.1572 26.4326 31.0934C26.3687 31.0934 26.3687 31.0295 26.3687 31.0295L26.4326 31.0934C26.4326 31.0934 26.3687 31.0934 26.3049 31.0934C26.241 31.0295 26.3049 31.0295 26.3049 31.0295C26.241 31.0295 26.3049 31.0295 26.3049 31.0934C26.241 31.0295 26.1772 30.9657 26.1772 30.838C26.1133 30.7741 26.1133 30.7103 26.0495 30.6464C25.9856 30.6464 25.9856 30.5188 25.8579 30.5188C25.7941 30.5188 25.9218 30.5826 25.8579 30.5826C25.7941 30.5188 25.8579 30.4549 25.7941 30.4549C25.7302 30.3911 25.6664 30.3272 25.6664 30.2634C25.5387 30.2634 25.4749 30.0718 25.3472 30.0718C25.411 30.0718 25.3472 30.008 25.3472 30.008V29.9441C25.2833 29.9441 25.2833 29.8803 25.2833 29.8803C25.2833 29.8803 25.2833 29.8803 25.2195 29.8164C25.2833 29.8803 25.2195 29.8803 25.2195 29.8803C25.1556 29.8164 25.2195 29.7526 25.0918 29.6887H25.0279C25.0279 29.6887 25.0279 29.6887 25.0279 29.6249C25.0279 29.4972 24.9002 29.5611 24.9641 29.5611C25.0279 29.5611 24.8364 29.4334 24.8364 29.4334C24.8364 29.4334 24.7725 29.2418 24.7087 29.3057C24.7087 29.3057 24.7087 29.2418 24.581 29.2418H24.5172V29.178C24.4533 29.1141 24.3895 29.178 24.3256 29.1141C24.3895 29.1141 24.3256 29.0503 24.3895 29.1141C24.3895 29.1141 24.3256 29.0503 24.3256 29.1141L24.2618 29.0503H24.1979H24.1341C24.1341 28.9226 23.9425 28.8587 23.9425 28.731C23.8787 28.6672 23.8148 28.6672 23.751 28.6034C23.6872 28.5395 23.6872 28.6034 23.6233 28.5395C23.6233 28.4757 23.6871 28.5395 23.6871 28.5395C23.751 28.4757 23.5595 28.4757 23.5595 28.4118C23.5595 28.348 23.4318 28.348 23.3679 28.2841C23.3041 28.2841 23.1764 28.2203 23.1125 28.1564C23.1764 28.1564 23.1764 28.1564 23.1764 28.1564C23.1764 28.1564 23.1764 28.2203 23.1125 28.1564C23.1125 28.1564 23.1125 28.0926 23.1125 28.0287L23.1764 28.0926C23.1764 28.0287 23.1125 28.0287 23.1125 28.0287C23.0487 27.9649 22.9848 28.0287 22.921 27.901C22.8571 27.901 22.921 27.8372 22.8571 27.8372V27.7733C22.7933 27.7733 22.7294 27.7095 22.6656 27.6457C22.7294 27.6457 22.7933 27.7095 22.8571 27.7095L22.7294 27.6457H22.7933C22.7295 27.6457 22.6656 27.6457 22.6018 27.5818C22.6656 27.518 22.4741 27.3903 22.4741 27.3264C22.3464 27.2626 22.2825 27.1349 22.1548 27.0072C22.1548 27.1349 22.091 27.0072 22.091 27.071L22.0271 27.0072L22.3464 27.1349C22.3464 27.071 22.4102 27.1349 22.4102 27.1349C22.3464 27.071 22.4102 27.071 22.4102 27.0072H22.3464V27.071C22.2187 27.0072 22.3464 26.9433 22.2187 26.8795H22.2825C22.2187 26.8795 22.091 26.7518 22.0271 26.7518C22.0271 26.7518 22.0271 26.688 22.0271 26.7518C21.8994 26.6241 21.7717 26.5603 21.7079 26.4964C21.7079 26.4964 21.6441 26.4964 21.6441 26.4326C21.6441 26.4326 21.5802 26.4326 21.5164 26.3687H21.5802C21.5164 26.241 21.3887 26.241 21.261 26.1772C21.3248 26.1133 21.261 26.0495 21.1971 25.9856C21.0694 25.8579 20.9417 25.8579 20.814 25.7302C20.814 25.6664 20.6864 25.5387 20.5587 25.411H20.4948V25.3472C20.431 25.2833 20.3671 25.3472 20.3033 25.2833C20.3671 25.2833 20.3033 25.2195 20.3671 25.2833C20.3671 25.2833 20.3033 25.2195 20.3033 25.2833L20.2394 25.2195H20.1756H20.1117C20.1117 25.0918 19.9202 25.0279 19.9202 24.9002C19.8563 24.8364 19.7925 24.8364 19.7287 24.7725C19.6648 24.7087 19.6648 24.7725 19.601 24.7087C19.601 24.6449 19.6648 24.7087 19.6648 24.7087C19.7287 24.6449 19.5371 24.6449 19.5371 24.581C19.5371 24.5172 19.4094 24.5172 19.3456 24.4533C19.2817 24.4533 19.154 24.3895 19.0902 24.3256C19.154 24.3256 19.154 24.3256 19.154 24.3256C19.154 24.3256 19.154 24.3895 19.0902 24.3256C19.0902 24.3256 19.0902 24.2618 19.0902 24.1979L19.154 24.2618C19.154 24.1979 19.0902 24.1979 19.0902 24.1979C19.0263 24.1341 18.9625 24.1979 18.8986 24.0702C18.8348 24.0702 18.8986 24.0064 18.8348 24.0064V23.9425C18.771 23.9425 18.7071 23.8787 18.6433 23.8148C18.7071 23.8148 18.771 23.8787 18.8348 23.8787L18.7071 23.8148H18.7709C18.7071 23.8148 18.6433 23.8148 18.5794 23.751C18.6433 23.6872 18.4517 23.5595 18.4517 23.4956C18.324 23.4318 18.2602 23.3041 18.1325 23.1764C18.1325 23.3041 18.0686 23.1764 18.0686 23.2402L18.0048 23.1764L17.8771 22.9848C17.8771 22.921 17.9409 22.9848 17.9409 22.9848C17.8771 22.921 17.9409 22.921 17.9409 22.8571H17.8771V22.921C17.7494 22.8571 17.8771 22.7933 17.7494 22.7294H17.8132C17.7494 22.7294 17.6217 22.6018 17.5579 22.6018C17.5579 22.6018 17.5579 22.5379 17.5579 22.6018C17.4302 22.4741 17.3025 22.4102 17.2386 22.3464C17.2386 22.3464 17.1748 22.3464 17.1748 22.2825C17.1748 22.2825 17.1109 22.2825 17.0471 22.2187H17.1109C17.0471 22.091 16.9194 22.091 16.7917 22.0271C16.8555 21.9633 16.7917 21.8994 16.7279 21.8356C16.6002 21.7079 16.4725 21.7079 16.3448 21.5802C16.3448 21.5164 16.2171 21.3887 16.0894 21.261H16.0255V21.1971C15.9617 21.1333 15.8978 21.1971 15.834 21.1333C15.8978 21.1333 15.834 21.0694 15.8978 21.1333C15.8978 21.1333 15.834 21.0694 15.834 21.1333L15.7702 21.0694H15.7063H15.6425C15.6425 20.9417 15.4509 20.8779 15.4509 20.7502C15.3871 20.6864 15.3232 20.6864 15.2594 20.6225C15.1955 20.5587 15.1955 20.6225 15.1317 20.5587C15.1317 20.4948 15.1955 20.5587 15.1955 20.5587C15.2594 20.4948 15.0678 20.4948 15.0678 20.431C15.0678 20.3671 14.9401 20.3671 14.8763 20.3033C14.8124 20.3033 14.6848 20.2394 14.6209 20.1756C14.6848 20.1756 14.6848 20.1756 14.6848 20.1756C14.6848 20.1756 14.6848 20.2394 14.6209 20.1756C14.6209 20.1756 14.6209 20.1117 14.6209 20.0479L14.6848 20.1117C14.6848 20.0479 14.6209 20.0479 14.6209 20.0479C14.5571 19.984 14.4932 20.0479 14.4294 19.9202C14.3655 19.9202 14.4294 19.8563 14.3655 19.8563V19.7925C14.3017 19.7925 14.2378 19.7286 14.174 19.6648C14.2378 19.6648 14.3017 19.7286 14.3655 19.7286L14.2378 19.6648H14.3017C14.2378 19.6648 14.174 19.6648 14.1101 19.601C14.174 19.5371 13.9824 19.4094 13.9824 19.3456C13.8547 19.2817 13.7909 19.154 13.6632 19.0263C13.6632 19.154 13.5994 19.0263 13.5994 19.0902L13.5355 19.0263L13.4078 18.7709C13.4078 18.7071 13.4717 18.7709 13.4717 18.7709C13.4078 18.7071 13.4717 18.7071 13.4717 18.6433H13.4078V18.7071C13.2801 18.6433 13.4078 18.5794 13.2801 18.5156H13.344C13.2801 18.5156 13.1524 18.3879 13.0886 18.3879C13.0886 18.3879 13.0886 18.324 13.0886 18.3879C12.9609 18.2602 12.8332 18.1963 12.7694 18.1325C12.7694 18.1325 12.7055 18.1325 12.7055 18.0686C12.7055 18.0686 12.6417 18.0686 12.5778 18.0048H12.6417C12.5778 17.8771 12.4501 17.9409 12.3863 17.8132C12.3224 17.8132 12.3224 17.7494 12.1947 17.8132V2.93695L0 19.984L12.1309 38.755V19.0902L26.6241 32.6257V61.1014L38.6911 80V42.5858C38.6911 42.5219 38.6911 42.4581 38.6911 42.3304Z" fill="#CDD430"/>
<path d="M38.6912 0V22.7933L63.0806 0H38.6912Z" fill="#B1618D"/>
<path d="M38.6911 22.7933V0H14.2378L38.6911 22.7933Z" fill="#D4DB62"/>
<path d="M38.6911 22.7933V4.9162L14.2378 0L38.6911 22.7933Z" fill="#C4CA2F"/>
<path d="M38.6912 22.7933V4.9162L63.0806 0L38.6912 22.7933Z" fill="#B13675"/>
<path d="M26.6241 32.6257L38.6912 80L26.6241 61.1014V32.6257Z" fill="#C1C724"/>
<path d="M50.6944 32.6257V61.1014L38.6912 80L50.6944 32.6257Z" fill="#A13069"/>
<path d="M0 19.984L12.1309 17.8132V2.93695L0 19.984Z" fill="#DCE329"/>
<path d="M77.3184 19.984L65.1875 17.8132V2.93695L77.3184 19.984Z" fill="#B14A80"/>
<path d="M133.887 68.1884H133.44L131.397 63.336C131.141 62.6975 130.822 61.9314 130.567 61.1652H130.503C130.567 62.3144 130.567 63.336 130.567 64.2937V68.2522H129.609V60.016H131.014L132.929 64.6129C133.12 65.1237 133.376 65.7622 133.631 66.5283C133.95 65.6983 134.142 65.0599 134.334 64.6129L136.249 60.016H137.654V68.1245H136.632V64.166C136.632 63.2721 136.632 62.1868 136.696 61.0375H136.632C136.313 61.8675 136.057 62.5698 135.802 63.2083L133.887 68.1884Z" fill="#F2F2F2"/>
<path d="M143.081 67.5499C142.953 67.6776 142.889 67.7414 142.761 67.8691C142.634 67.933 142.506 68.0607 142.378 68.1245C142.251 68.1884 142.059 68.2522 141.868 68.3161C141.676 68.3799 141.485 68.3799 141.293 68.3799C141.038 68.3799 140.782 68.3161 140.527 68.2522C140.271 68.1884 140.08 68.0607 139.952 67.8691C139.761 67.6776 139.633 67.486 139.569 67.2945C139.505 67.0391 139.441 66.7837 139.441 66.5283C139.441 66.2091 139.505 65.9537 139.569 65.7622C139.697 65.5068 139.824 65.3153 140.016 65.1876C140.208 65.0599 140.399 64.9322 140.718 64.8045C140.974 64.7406 141.293 64.6768 141.612 64.6768C141.931 64.6768 142.187 64.6768 142.442 64.7406C142.698 64.8045 142.953 64.8683 143.145 64.9322V64.4852C143.145 64.3576 143.145 64.166 143.145 64.0383C143.145 63.9106 143.081 63.7829 143.017 63.7191C142.889 63.5275 142.761 63.336 142.506 63.2083C142.251 63.0806 141.931 63.0168 141.548 63.0168C141.229 63.0168 140.974 63.0168 140.718 63.0806C140.463 63.1445 140.208 63.2083 139.952 63.336V62.5698C140.08 62.506 140.144 62.506 140.271 62.4422C140.399 62.3783 140.527 62.3783 140.718 62.3145C140.846 62.3145 141.038 62.2506 141.165 62.2506C141.357 62.2506 141.484 62.2506 141.676 62.2506C142.251 62.2506 142.761 62.3783 143.081 62.5698C143.464 62.7614 143.719 63.0806 143.911 63.3999C143.975 63.5275 144.038 63.6552 144.038 63.8468C144.038 63.9745 144.102 64.166 144.102 64.3576V68.1884H143.336L143.081 67.5499ZM143.017 65.6345C142.825 65.5706 142.634 65.5706 142.378 65.5068C142.123 65.4429 141.868 65.4429 141.612 65.4429C141.229 65.4429 140.91 65.5068 140.654 65.6983C140.399 65.8899 140.335 66.1453 140.335 66.4645C140.335 66.656 140.335 66.7837 140.399 66.9114C140.463 67.0391 140.527 67.1668 140.654 67.2307C140.782 67.2945 140.846 67.3583 140.974 67.4222C141.101 67.486 141.229 67.486 141.421 67.486C141.612 67.486 141.804 67.486 141.995 67.4222C142.187 67.3583 142.315 67.2945 142.442 67.2307C142.57 67.1668 142.698 67.0391 142.761 66.9753C142.825 66.9114 142.953 66.8476 142.953 66.7837V65.6345H143.017Z" fill="#F2F2F2"/>
<path d="M145.443 65.3153C145.443 64.9322 145.507 64.5491 145.571 64.2299C145.634 63.9106 145.762 63.6552 145.89 63.3998C146.017 63.1445 146.145 62.9529 146.337 62.8252C146.528 62.6975 146.72 62.5698 146.847 62.4421C146.975 62.3145 147.231 62.2506 147.422 62.2506C147.614 62.1868 147.805 62.1868 147.997 62.1868C148.38 62.1868 148.635 62.2506 148.891 62.3783C149.146 62.506 149.401 62.6975 149.593 62.8891V59.3775H150.551V68.1884H149.848L149.657 67.5499C149.593 67.6137 149.529 67.7414 149.401 67.8053C149.274 67.8691 149.21 67.9968 149.082 68.0607C148.954 68.1245 148.827 68.1884 148.635 68.2522C148.444 68.316 148.252 68.316 148.061 68.316C147.741 68.316 147.422 68.2522 147.103 68.1245C146.784 67.9968 146.528 67.8691 146.273 67.6137C146.017 67.3583 145.826 67.0391 145.698 66.7199C145.507 66.3368 145.443 65.8899 145.443 65.3153ZM146.464 65.3153C146.464 65.6345 146.528 65.9537 146.592 66.2091C146.656 66.4645 146.784 66.7199 146.911 66.9114C147.039 67.103 147.231 67.2307 147.422 67.3583C147.614 67.486 147.869 67.486 148.124 67.486C148.316 67.486 148.508 67.486 148.635 67.4222C148.827 67.3583 148.954 67.2945 149.082 67.2307C149.21 67.1668 149.338 67.0391 149.401 66.9753C149.465 66.9114 149.593 66.7837 149.593 66.7199V63.7191C149.401 63.5275 149.146 63.336 148.891 63.2722C148.635 63.1445 148.38 63.0806 148.061 63.0806C147.869 63.0806 147.677 63.1445 147.486 63.2083C147.294 63.2722 147.103 63.3998 146.911 63.5914C146.72 63.7829 146.592 63.9745 146.464 64.2937C146.528 64.4852 146.464 64.8683 146.464 65.3153Z" fill="#F2F2F2"/>
<path d="M155.212 67.486C155.531 67.486 155.786 67.486 156.042 67.4222C156.297 67.3583 156.552 67.2945 156.808 67.2307V67.9968C156.616 68.1245 156.361 68.1884 156.042 68.2522C155.722 68.316 155.403 68.316 155.084 68.316C154.701 68.316 154.254 68.2522 153.935 68.1884C153.551 68.0607 153.232 67.933 152.977 67.6776C152.721 67.4222 152.53 67.1668 152.338 66.7837C152.211 66.4006 152.083 65.9537 152.083 65.4429C152.083 64.9322 152.147 64.4852 152.275 64.1022C152.402 63.7191 152.594 63.3998 152.849 63.1445C153.105 62.8891 153.36 62.6975 153.679 62.5698C153.998 62.4421 154.318 62.3783 154.637 62.3783C154.956 62.3783 155.275 62.4421 155.531 62.5698C155.786 62.6975 156.042 62.8252 156.233 63.0806C156.425 63.336 156.616 63.5914 156.744 63.9745C156.872 64.3575 156.935 64.8045 156.935 65.3153C156.935 65.3791 156.935 65.3791 156.935 65.4429C156.935 65.5068 156.935 65.5706 156.935 65.6983H152.977C152.977 66.0814 153.041 66.4006 153.168 66.656C153.296 66.9114 153.424 67.103 153.615 67.2945C153.807 67.486 154.062 67.5499 154.318 67.6137C154.637 67.486 154.892 67.486 155.212 67.486ZM154.701 63.0168C154.509 63.0168 154.254 63.0806 154.126 63.1445C153.935 63.2083 153.807 63.336 153.615 63.4637C153.424 63.5914 153.36 63.7829 153.296 63.9745C153.232 64.166 153.168 64.3575 153.105 64.6129H156.042C156.042 64.3575 156.042 64.166 155.978 63.9745C155.914 63.7829 155.85 63.5914 155.722 63.4637C155.595 63.336 155.467 63.2083 155.275 63.1445C155.148 63.0806 154.956 63.0168 154.701 63.0168Z" fill="#F2F2F2"/>
<path d="M161.213 61.0375V60.016H162.171V61.0375H161.213ZM161.213 68.1883V62.4421H162.171V68.1883H161.213Z" fill="#F2F2F2"/>
<path d="M164.98 63.2083C165.108 63.0806 165.235 62.9529 165.363 62.8252C165.491 62.6975 165.618 62.6337 165.81 62.506C165.938 62.4422 166.129 62.3783 166.321 62.3145C166.512 62.2506 166.704 62.2506 166.959 62.2506C167.215 62.2506 167.47 62.3145 167.725 62.3783C167.981 62.4421 168.172 62.5698 168.3 62.7614C168.492 62.9529 168.619 63.1445 168.683 63.3999C168.747 63.6552 168.811 63.9745 168.811 64.3576V68.2522H167.853V64.5491C167.853 64.0383 167.725 63.7191 167.534 63.4637C167.342 63.2722 167.087 63.1445 166.704 63.1445C166.385 63.1445 166.065 63.2083 165.746 63.3999C165.427 63.5914 165.171 63.8468 164.98 64.166V68.2522H164.022V62.506H164.725L164.98 63.2083Z" fill="#F2F2F2"/>
<path d="M174.238 68.1883H173.216V60.016H178.069V60.9098H174.238V63.5275H177.686V64.4214H174.238V68.1883Z" fill="#F2F2F2"/>
<path d="M182.538 63.1445H182.474C182.283 63.1445 182.027 63.1445 181.836 63.2083C181.644 63.2722 181.389 63.336 181.261 63.3999C181.069 63.4637 180.878 63.5914 180.75 63.7191C180.623 63.8468 180.495 63.9745 180.367 64.166V68.1884H179.409V62.4422H180.112L180.303 63.336C180.367 63.2083 180.495 63.0168 180.623 62.8891C180.75 62.7614 180.942 62.6337 181.069 62.5698C181.261 62.4422 181.453 62.3783 181.644 62.3145C181.836 62.2506 182.091 62.2506 182.283 62.2506C182.346 62.2506 182.346 62.2506 182.41 62.2506C182.474 62.2506 182.474 62.2506 182.538 62.2506V63.1445Z" fill="#F2F2F2"/>
<path d="M182.857 62.3783H183.815L185.603 66.9114H185.666L187.518 62.3783H188.476L184.9 70.9976H183.879L185.092 68.0607L182.857 62.3783Z" fill="#F2F2F2"/>
<path d="M192.945 67.5499C192.817 67.6776 192.753 67.7414 192.626 67.8691C192.498 67.933 192.37 68.0607 192.243 68.1245C192.115 68.1884 191.923 68.2522 191.732 68.3161C191.54 68.3799 191.349 68.3799 191.157 68.3799C190.902 68.3799 190.646 68.3161 190.391 68.2522C190.136 68.1884 189.944 68.0607 189.816 67.8691C189.625 67.6776 189.497 67.486 189.433 67.2945C189.37 67.0391 189.306 66.7837 189.306 66.5283C189.306 66.2091 189.37 65.9537 189.433 65.7622C189.497 65.5706 189.689 65.3153 189.88 65.1876C190.072 65.0599 190.263 64.9322 190.583 64.8045C190.838 64.7406 191.157 64.6768 191.476 64.6768C191.796 64.6768 192.051 64.6768 192.306 64.7406C192.562 64.8045 192.817 64.8683 193.009 64.9322V64.4852C193.009 64.3576 193.009 64.166 193.009 64.0383C193.009 63.9106 192.945 63.7829 192.881 63.7191C192.753 63.5275 192.626 63.336 192.37 63.2083C192.115 63.0806 191.796 63.0168 191.413 63.0168C191.093 63.0168 190.838 63.0168 190.583 63.0806C190.327 63.1445 190.072 63.2083 189.816 63.336V62.5698C189.944 62.506 190.008 62.506 190.136 62.4422C190.263 62.3783 190.391 62.3783 190.583 62.3145C190.71 62.3145 190.902 62.2506 191.03 62.2506C191.221 62.2506 191.349 62.2506 191.54 62.2506C192.115 62.2506 192.626 62.3783 192.945 62.5698C193.264 62.7614 193.583 63.0806 193.775 63.3999C193.839 63.5275 193.903 63.6552 193.903 63.8468C193.903 63.9745 193.966 64.166 193.966 64.3576V68.1884H193.2L192.945 67.5499ZM192.881 65.6345C192.69 65.5706 192.498 65.5706 192.243 65.5068C191.987 65.4429 191.732 65.4429 191.476 65.4429C191.093 65.4429 190.774 65.5068 190.519 65.6983C190.263 65.8899 190.2 66.1453 190.2 66.4645C190.2 66.656 190.2 66.7837 190.263 66.9114C190.327 67.0391 190.391 67.1668 190.519 67.2307C190.646 67.2945 190.71 67.3583 190.838 67.4222C190.966 67.486 191.093 67.486 191.285 67.486C191.476 67.486 191.668 67.486 191.86 67.4222C192.051 67.3583 192.179 67.2945 192.306 67.2307C192.434 67.1668 192.562 67.0391 192.626 66.9753C192.69 66.9114 192.817 66.8476 192.817 66.7837V65.6345H192.881Z" fill="#F2F2F2"/>
<path d="M198.436 63.2083H195.243V62.3783H199.585V62.9529L196.393 67.2945H199.84V68.1245H195.179V67.6776L198.436 63.2083Z" fill="#F2F2F2"/>
<path d="M201.181 61.0375V60.016H202.139V61.0375H201.181ZM201.245 68.1883V62.4421H202.203V68.1883H201.245Z" fill="#F2F2F2"/>
<path d="M204.948 63.2083C205.076 63.0806 205.204 62.9529 205.331 62.8252C205.459 62.6975 205.587 62.6337 205.778 62.506C205.906 62.4422 206.097 62.3783 206.289 62.3145C206.481 62.2506 206.672 62.2506 206.927 62.2506C207.183 62.2506 207.438 62.3145 207.694 62.3783C207.949 62.4421 208.141 62.5698 208.268 62.7614C208.46 62.9529 208.587 63.1445 208.651 63.3999C208.715 63.6552 208.779 63.9745 208.779 64.3576V68.2522H207.821V64.5491C207.821 64.0383 207.694 63.7191 207.502 63.4637C207.311 63.2083 207.055 63.1445 206.672 63.1445C206.353 63.1445 206.034 63.2083 205.714 63.3999C205.395 63.5914 205.14 63.8468 204.948 64.166V68.2522H203.99V62.506H204.693L204.948 63.2083Z" fill="#F2F2F2"/>
<path d="M215.802 65.2514C215.802 65.6983 215.738 66.1453 215.61 66.4645C215.483 66.8476 215.291 67.1668 215.036 67.4222C214.78 67.6776 214.525 67.8691 214.206 68.0607C213.887 68.1884 213.504 68.2522 213.057 68.2522C212.61 68.2522 212.227 68.1884 211.907 68.0607C211.588 67.933 211.269 67.6776 211.013 67.4222C210.758 67.1668 210.567 66.8476 210.439 66.4645C210.311 66.0814 210.247 65.6983 210.247 65.2514C210.247 64.8045 210.311 64.3576 210.439 63.9745C210.567 63.5914 210.758 63.2722 211.013 63.0168C211.269 62.7614 211.524 62.5698 211.907 62.3783C212.227 62.2506 212.61 62.1868 213.057 62.1868C213.504 62.1868 213.887 62.2506 214.206 62.3783C214.525 62.506 214.844 62.7614 215.1 63.0168C215.355 63.2722 215.547 63.5914 215.61 63.9745C215.738 64.4214 215.802 64.8045 215.802 65.2514ZM214.78 65.2514C214.78 64.8683 214.717 64.5491 214.653 64.2937C214.589 64.0383 214.461 63.7829 214.27 63.5914C214.142 63.3999 213.95 63.2722 213.695 63.1445C213.44 63.0168 213.248 63.0168 212.993 63.0168C212.737 63.0168 212.482 63.0806 212.29 63.1445C212.099 63.2083 211.907 63.3999 211.716 63.5914C211.588 63.7829 211.46 64.0383 211.333 64.2937C211.269 64.5491 211.205 64.8683 211.205 65.2514C211.205 65.6345 211.269 65.8899 211.333 66.2091C211.397 66.4645 211.524 66.7199 211.716 66.9114C211.843 67.103 212.035 67.2307 212.29 67.3584C212.482 67.4861 212.737 67.486 212.993 67.486C213.248 67.486 213.504 67.4222 213.695 67.3584C213.887 67.2307 214.078 67.103 214.27 66.9114C214.397 66.7199 214.525 66.4645 214.653 66.2091C214.78 65.9537 214.78 65.6345 214.78 65.2514Z" fill="#F2F2F2"/>
</g>
<defs>
<clipPath id="clip0_14_13">
<rect width="250.982" height="80" fill="white"/>
</clipPath>
</defs>
</svg>
