<svg width="40" height="40" fill="none" xmlns="http://www.w3.org/2000/svg"><g clip-path="url(#a)" fill="#C4C4CD"><path d="M31.109 35.731c-.324.021-.532.199-.553.543-.01.198-.01.386-.01.585 0 1.273-.69 1.962-1.952 1.962H3.089c-1.221 0-1.92-.69-1.92-1.9V9.111c0-.168.01-.335.02-.544h5.093c1.44 0 2.254-.814 2.254-2.243V1.753c0-.585 0-.585.595-.585H28.5c1.346 0 2.014.668 2.014 2.015v7.42c0 .417.209.646.553.657.355.01.616-.24.616-.658 0-2.609.02-5.207-.01-7.806-.022-1.304-.898-2.348-2.15-2.713-.084-.02-.167-.062-.25-.094-6.91.01-13.87.01-20.82.01-.898.22-1.545.804-2.17 1.44a414.099 414.099 0 0 1-5.24 5.25C.334 7.389 0 8.192 0 9.194c.02 3.934.01 7.858.01 11.792v16.008c0 1.701 1.232 2.985 2.902 2.985 8.63.01 17.26.01 25.89 0 1.942 0 3.371-1.9 2.902-3.799-.084-.282-.282-.47-.595-.449ZM7.347 2.15c.01.042.041.115.041.188 0 1.367.01 2.734 0 4.102 0 .584-.302.939-.855.95-1.472.02-2.933.01-4.425.01 1.764-1.764 3.496-3.507 5.239-5.25Z"/><path d="M39.207 20.84c.762-1.284.271-2.797-1.096-3.381-.553-.24-.824-.616-.887-1.21-.156-1.504-1.398-2.422-2.86-2.098-.605.135-1.053-.021-1.45-.48-.95-1.086-2.546-1.107-3.506-.032-.428.48-.887.637-1.524.501-1.42-.313-2.692.626-2.828 2.066-.063.637-.344 1.023-.918 1.274-1.326.574-1.827 2.087-1.086 3.329.324.542.355 1.033 0 1.565a2.06 2.06 0 0 0-.323 1.42c.115.928.595 1.596 1.46 1.95.47.199.784.512.836 1.034.146 1.315.72 1.983 2.035 2.337v5.176c0 .522.167.95.626 1.211.48.271.94.198 1.398-.094.585-.365 1.18-.71 1.753-1.085.23-.157.397-.136.627.01.584.386 1.179.762 1.794 1.096.251.136.564.23.846.22.689-.043 1.116-.575 1.116-1.347.01-1.618.01-3.225 0-4.842 0-.23.032-.355.303-.439 1.023-.302 1.607-1.012 1.711-2.087.053-.574.314-.95.856-1.179 1.399-.595 1.89-2.108 1.117-3.402-.313-.532-.313-1.002 0-1.513ZM34.01 34.532c-.543-.334-1.075-.595-1.524-.95-.918-.73-1.784-.73-2.703 0-.448.355-.98.616-1.544.95V28.99c.417-.052.762.084 1.002.397.97 1.262 2.849 1.231 3.778 0 .23-.303.563-.449.99-.407v5.552Zm4.143-11.668c.459.773.219 1.472-.605 1.837-.856.376-1.41 1.012-1.451 1.952-.042.866-.73 1.481-1.701 1.22-.856-.229-1.67.021-2.212.72-.574.731-1.555.71-2.119-.01-.542-.699-1.346-.897-2.223-.71-1.022.22-1.544-.187-1.659-1.23-.094-.878-.563-1.524-1.377-1.89-.97-.448-1.17-1.043-.647-1.962.448-.793.448-1.586 0-2.379-.522-.918-.324-1.513.647-1.962.834-.386 1.304-1.054 1.377-1.972.084-.919.668-1.367 1.576-1.159.97.21 1.764-.062 2.41-.803.575-.658 1.326-.658 1.91.01.658.741 1.45 1.002 2.421.793.877-.198 1.45.21 1.545 1.107.104 1.012.605 1.722 1.555 2.097.5.198.751.574.772 1.232-.052.125-.115.365-.24.573-.48.846-.48 1.68.02 2.536ZM26.747 7.054V5.531c0-.981-.501-1.482-1.493-1.482H13.472c-.803 0-1.335.511-1.356 1.304a30.248 30.248 0 0 0 0 1.952c.02.647.449 1.148 1.085 1.231.418.052.856.042 1.284.021a.55.55 0 0 0 .522-.616c-.042-.323-.23-.521-.574-.532-.272-.01-.543-.01-.825 0-.25.01-.355-.083-.344-.334.01-.511.01-1.012 0-1.523-.01-.261.104-.324.344-.324 3.882.01 7.754.01 11.636 0 .26 0 .334.094.323.344-.01.439 0 .887 0 1.326 0 .511 0 .511-.51.511H17.25c-.407 0-.657.22-.678.553-.021.355.24.605.657.616.313.01.627 0 .94 0h7.023c1.043-.01 1.544-.501 1.555-1.524ZM20.558 23c-.052-.21-.23-.407-.407-.553-.083-.073-.271-.032-.417-.032H5.093c-.418 0-.69.24-.69.585 0 .344.272.574.69.584h14.599c.146 0 .292.01.428-.02.292-.084.5-.283.438-.564Zm-.396-4.676c-.146-.041-.313-.041-.46-.041h-14.4c-.168 0-.387-.021-.491.062-.167.146-.345.366-.365.574-.032.271.177.48.48.522.125.02.26.01.386.01h14.36c.125 0 .26.01.385-.01.293-.031.48-.209.512-.501.031-.303-.115-.522-.407-.616Zm.021 9.32c.167-.136.355-.365.355-.564 0-.167-.21-.375-.387-.511-.104-.073-.302-.042-.459-.042H5.103c-.428 0-.689.23-.689.574 0 .345.261.574.679.595h14.599c.167.01.386.031.49-.052ZM5.145 15.35h14.558c.156 0 .313 0 .459-.042.292-.073.428-.292.407-.584-.01-.282-.167-.47-.438-.522-.147-.031-.314-.02-.47-.02H5.145c-.46 0-.73.218-.73.573s.27.585.73.595Zm3.663 17.209H5.145c-.292 0-.543.062-.668.354-.188.428.125.814.668.814h7.221c.48 0 .752-.23.741-.605-.01-.365-.26-.563-.74-.563h-3.56Z"/><path d="M31.109 16.687a4.922 4.922 0 0 0-4.895 4.894c-.01 2.703 2.202 4.915 4.916 4.915a4.895 4.895 0 0 0 4.904-4.946c-.01-2.693-2.222-4.874-4.925-4.863Zm.02 8.64c-2.066 0-3.756-1.7-3.735-3.757a3.728 3.728 0 0 1 3.746-3.704 3.721 3.721 0 0 1 3.726 3.757 3.732 3.732 0 0 1-3.736 3.704Z"/></g><defs><clipPath id="a"><path fill="#fff" d="M0 0h39.562v40H0z"/></clipPath></defs></svg>