<svg width="95" height="30" fill="none" xmlns="http://www.w3.org/2000/svg"><g clip-path="url(#a)"><path d="M39.386 19.25c.095-.048-.024-.12 0-.144-.144.072.071.072 0 .144Zm4.166-.072h-.024l-.024.024.048-.024Zm.119 0-.023.072c.071.023.047-.072.023-.072Zm-2.418 0c.048.048.096.024.12-.024 0-.024-.072.024-.12.024Zm7.757.048c.096-.048-.023-.12 0-.144-.143.048.096.072 0 .144Zm4.167-.072h-.024l-.024.024.048-.024Zm.119-.024-.023.072c.071.048.071-.048.023-.072Zm-2.394.024c.048.048.096.024.12-.024-.024-.024-.072 0-.12.024Zm7.758.024c.095-.048-.024-.12 0-.144-.144.072.071.096 0 .144Zm4.165-.072h-.024l-.024.024.048-.024Zm.12 0-.024.072c.072.024.048-.048.024-.072Zm-2.418 0c.048.048.096.024.12-.024 0 0-.072.024-.12.024Zm29.425.144c-.096-.072.144-.072 0-.144 0 .024-.12.096 0 .144Zm-4.285 0-.024-.072c-.024 0-.048.095.024.072Zm2.25-.096c.024.048.096.072.12.024-.024 0-.072-.048-.12-.024Zm-7.614.072c-.095-.072.144-.072 0-.144.024 0-.095.096 0 .144Zm-4.836-.048c0-.024-.024-.024 0 0h-.024.024Zm.575.048-.024-.072c-.048 0-.048.096.024.072Zm2.251-.096c.023.048.095.072.12.024-.049-.024-.097-.048-.12-.024Zm-7.614.048c-.096-.072.143-.072 0-.144.023.024-.12.12 0 .144Zm-4.142-.048c0-.024-.024-.024 0 0h-.048.048Zm-.144.048-.024-.072c-.024.024-.048.096.024.072Zm2.251-.096c.023.048.095.072.12.024-.025 0-.073-.024-.12-.024Z" fill="#B13675"/><path d="M35.291 18.316v.934c.216-.024.503.024.623-.072.24.048.431.143.694.143v-.023c.096-.024.264-.048.264-.168.191.024.311.192.526.144l-.047-.048c.047-.024.143.024.167.048.024 0 0-.024 0-.048.048-.048.096.024.12.024l-.024-.048c.168-.072.455.072.694.048-.048 0-.024-.048 0-.072.096.12.36.096.455.12l-.048-.048c.192.072.168-.12.36-.048l-.096.072c.072-.024.143 0 .12.047.095-.047 0-.095.143-.095 0-.024-.096-.024-.048-.072l.192-.096h.024-.024s.024-.024.095 0c-.023.168.144 0 .072.168.264.024.48-.096.719-.024.095-.144.455 0 .43-.192.12 0 .24.048.312.12-.024.024-.048 0-.072-.024.024.048.191.048.24.048-.073-.048-.216-.096-.288-.168.12.024.287.096.335.12l.024-.096c.096.072.072-.072.168.024l-.024.024c.168 0 .191.096.335.12v-.048c.048-.024.144.072.192 0h-.12c0-.072.096-.096.143-.144.12.024.048.12.096.12.024-.072 0-.024-.024-.096.12.024.312.048.383.144v-.024c.144 0 .24.12.336.048h-.024c.096-.096.287.096.287-.072.048-.024-.12 0-.024-.072.168-.048.096.144.24.096-.024 0-.024 0-.024-.024.095 0 .239.024.335.048.143-.144.407.048.574-.12-.047.048.048.072.048.096v-.024c.048 0 .072.048.096.072.048-.048.168.048.192.024 0 .024.047.024.095.024-.095-.048-.024-.072-.072-.12.144-.024.168.168.336.12l.096-.072c0 .048.047.072.071.072.216-.024.503 0 .623-.096.24.048.43.144.694.144v-.024c.096-.024.264-.048.264-.168.191.024.31.192.526.144l-.048-.048c.048-.024.144.024.168.048.024 0 0-.024 0-.048.048-.048.096.024.12.024l-.024-.048c.167-.072.455.072.694.048-.048 0-.024-.048 0-.072.096.12.36.096.455.12l-.048-.048c.192.072.168-.12.36-.048l-.097.072c.072-.024.144 0 .12.048.096-.048 0-.096.144-.096 0-.024-.096-.024-.048-.072l.192-.096h.023-.023s.023-.024.095 0c-.024.168.144 0 .072.168.263.024.479-.096.718-.024.096-.144.455 0 .431-.192.12 0 .24.048.312.12-.024.024-.048 0-.072-.024.024.048.191.048.24.048-.073-.048-.216-.096-.288-.168.12.024.287.096.335.12l.024-.096c.096.072.072-.072.168.024l-.024.024c.167 0 .191.096.335.12v-.048c.048-.024.143.072.191 0h-.12c0-.072.096-.096.144-.144.12.024.048.12.096.12.024-.072 0-.024-.024-.096.12.024.311.048.383.144v-.024c.144 0 .24.12.335.048h-.023c.095-.096.287.096.287-.072.048-.024-.12 0-.024-.072.167-.048.096.144.24.096-.025 0-.025 0-.025-.024.096 0 .24.024.335.048.144-.144.408.048.575-.12-.048.048.048.072.048.096v-.024c.048 0 .072.048.096.072.048-.048.167.048.191.024 0 .024.048.024.096.024-.096-.048-.024-.072-.072-.12.144-.024.168.168.335.12l.096-.072c0 .048.048.072.072.072.216-.024.503 0 .623-.096.239.048.43.144.694.144v-.024c.096-.024.263-.048.263-.168.192.024.312.192.527.144l-.048-.048c.048-.024.144.024.168.048.024 0 0-.024 0-.048.048-.048.096.024.12.024l-.025-.048c.168-.072.455.072.695.048-.048 0-.024-.048 0-.072.096.12.359.096.455.12l-.048-.048c.191.072.167-.12.359-.048l-.096.072c.072-.024.144 0 .12.048.096-.048 0-.096.144-.096 0-.024-.096-.024-.048-.072l.191-.096h.024-.024s.024-.024.096 0c-.024.168.144 0 .072.168.263.024.479-.096.718-.024.096-.144.455 0 .431-.192.12 0 .24.048.311.12-.024.024-.047 0-.072-.024.025.048.192.048.24.048-.072-.048-.215-.096-.287-.168.12.024.287.096.335.12l.024-.096c.096.072.072-.071.167.024l-.024.024c.168 0 .192.096.336.12v-.048c.047-.024.143.072.191 0h-.12c0-.072.096-.096.144-.143.12.024.048.12.096.12.024-.073 0-.025-.024-.096.12.023.311.047.383.143v-.024c.144 0 .24.12.335.048h-.024c.096-.096.288.096.288-.072.047-.024-.12 0-.024-.072.167-.047.095.144.24.096-.025 0-.025 0-.025-.024.096 0 .24.024.335.048.144-.143.407.048.575-.12-.048.048.048.072.048.096v-.024c.048 0 .072.048.096.072.047-.048.167.048.191.024 0 .024.048.024.096.024-.096-.048-.024-.072-.072-.12.144-.024.168.168.335.12l.096-.072s.024 0 .072.024c.144.12.215-.048.215.024-.024.12.24 0 .264 0 .024 0 .287.12.263 0-.024-.048.048.12.216-.024.023-.024.071 0 .071-.024l.096.072c.168.024.192-.144.335-.12-.047.048.024.096-.072.12.048 0 .096 0 .096-.024.024.024.144-.072.192-.024.024-.024.024-.072.096-.072v.024c0-.024.095-.024.047-.096.168.168.431-.023.575.12.12-.024.24-.024.335-.048 0 .024 0 .024-.024.024.144.048.096-.143.24-.096.072.072-.096.048-.024.072.024.168.191-.024.287.072h-.024c.072.048.192-.072.335-.048v.024c.096-.096.264-.12.384-.143-.048.071-.048.023-.024.095.047 0-.024-.096.095-.12.048.024.12.072.144.144h-.12c.048.096.144 0 .192 0v.048c.167-.024.167-.12.335-.12l-.024-.024c.096-.095.072.048.168-.023l.024.095c.071-.024.215-.096.335-.12-.072.072-.192.12-.287.168.071 0 .215 0 .239-.048-.024 0-.048.024-.072.024a.455.455 0 0 1 .311-.12c-.024.192.336.048.431.192.216-.072.455.024.719.024-.096-.144.071 0 .071-.168h.096-.024.024l.192.096c.048.048-.048.024-.048.072.144 0 .048.072.144.096-.024-.048.047-.072.12-.048l-.097-.072c.192-.096.168.12.36.048l-.048.048c.096-.024.359 0 .455-.12.023.024.047.072 0 .072.239.024.502-.144.694-.048l-.024.048c.048 0 .072-.072.12-.024 0 .024-.024.048 0 .048.024-.024.12-.072.167-.048l-.048.048c.216.048.336-.096.527-.144 0 .12.168.144.264.168v.024c.263.024.454-.096.694-.144.12.096.407.072.622.096.024 0 .072-.024.072-.072l.096.072c.168.024.191-.144.335-.12-.048.048.024.096-.072.12.048 0 .096 0 .096-.024.024.024.144-.072.192-.024.024-.024.024-.072.095-.072v.024c0-.024.096-.024.048-.096.168.168.431-.024.575.12.12-.024.24-.024.335-.048 0 .024 0 .024-.024.024.144.048.096-.144.24-.096.071.072-.096.048-.024.072.024.168.191-.024.287.072h-.024c.072.048.192-.072.335-.048v.024c.096-.096.264-.12.383-.144-.048.072-.048.024-.024.096.048 0-.024-.096.096-.12.048.024.12.072.144.144h-.12c.048.096.144 0 .192 0v.048c.167-.024.167-.12.335-.12l-.024-.024c.096-.096.072.048.168-.024l.023.096c.072-.024.216-.096.336-.12-.072.072-.192.12-.288.168.072 0 .216 0 .24-.048-.024 0-.048.024-.072.024a.455.455 0 0 1 .311-.12c-.024.192.335.048.431.192.216-.072.455.024.718.024-.095-.144.072 0 .072-.168h.096-.024.024l.191.096c.048.048-.047.024-.047.072.143 0 .047.072.143.096-.024-.048.048-.072.12-.048l-.096-.072c.192-.096.168.12.36.048l-.049.048c.096-.024.36 0 .455-.12.024.024.048.072 0 .072.24.024.503-.144.695-.048l-.024.048c.048 0 .072-.072.12-.024 0 .024-.025.048 0 .048.023-.024.12-.072.167-.048l-.048.048c.216.048.335-.096.527-.144 0 .12.168.144.263.168v.024c.264.024.455-.096.695-.144.12.096.407.072.622.096.024 0 .072-.024.072-.072l.096.072c.167.024.191-.144.335-.12-.048.048.024.096-.072.12.048 0 .096 0 .096-.024.024.024.144-.072.191-.024.024-.024.024-.072.096-.072v.024c0-.024.096-.024.048-.096.168.168.431-.024.575.12.12-.024.24-.024.335-.048 0 .024 0 .024-.024.024.144.048.096-.144.24-.096.071.072-.096.048-.025.072.024.168.192-.024.288.072h-.024c.072.048.191-.072.335-.048v.024c.096-.096.263-.12.383-.144-.048.072-.048.024-.024.096.048 0-.024-.096.096-.12.048.024.12.072.144.144h-.12c.048.096.144 0 .191 0v.048c.168-.024.168-.12.336-.12l-.024-.024c.095-.096.072.048.167-.024l.024.096c.072-.024.216-.096.335-.12-.071.072-.191.12-.287.168.072 0 .216 0 .24-.048-.024 0-.048.024-.072.024a.455.455 0 0 1 .31-.12c-.023.192.336.048.432.192.215-.072.455.024.718.024-.096-.144.072 0 .072-.168h.096-.024.024l.191.096c.048.048-.048.024-.048.072.144 0 .048.072.144.096-.024-.048.048-.072.12-.048l-.096-.072c.192-.096.168.12.36.048l-.049.048c.096-.024.36 0 .455-.12.024.024.048.072 0 .072.24.024.503-.144.694-.048l-.023.048c.047 0 .071-.072.12-.024 0 .024-.025.048 0 .048.023-.024.119-.072.167-.048l-.048.048c.215.047.335-.096.527-.144 0 .12.167.144.263.168v.024c.264.023.455-.096.694-.144.12.096.407.048.623.072v-.934H35.29Z" fill="#B13675"/><path d="M41.062 14.246 36.608 7.71v6.536h-1.22V5.555h1.125l4.86 7.087 4.908-7.087h1.125v8.667h-1.245v-6.56l-4.5 6.584h-.6Zm18.34-7.614h-6.058c-.311 0-.622.072-.934.192-.31.12-.598.31-.838.526-.24.24-.455.503-.622.814-.168.312-.24.647-.264 1.006h8.644v1.03h-8.643v.191c0 .407.071.79.215 1.125.144.336.36.623.599.886.263.24.55.431.885.575.336.143.695.191 1.102.191h5.89v1.03H53.08a3.75 3.75 0 0 1-1.365-.263 3.433 3.433 0 0 1-1.173-.767 4.176 4.176 0 0 1-.838-1.173c-.216-.455-.311-.957-.311-1.532V9.242c0-.55.095-1.054.335-1.509a3.933 3.933 0 0 1 2.06-1.94c.454-.19.909-.262 1.364-.262h6.225v1.101h.024Zm11.636 7.614h-6.25a3.934 3.934 0 0 1-1.436-.264 3.645 3.645 0 0 1-1.15-.742 3.277 3.277 0 0 1-.741-1.173c-.192-.455-.264-.982-.264-1.556V5.579h1.27v4.836c0 .431.071.814.19 1.173.12.335.312.623.528.886.239.24.502.431.813.55.312.12.67.192 1.054.192h5.986v1.03Zm2.298-8.667v3.663h4.573c.36 0 .647-.048.91-.144.24-.096.479-.311.67-.646.048-.096.168-.264.312-.551.167-.287.335-.575.503-.886.191-.311.359-.622.502-.886.144-.287.264-.455.312-.55h1.364L80.64 8.883a3.24 3.24 0 0 1-.383.55 1.183 1.183 0 0 1-.575.36v.023c.287.048.527.144.694.288.192.143.336.359.48.622l1.915 3.544h-1.365l-1.676-3.113a1.251 1.251 0 0 0-.287-.407c-.096-.12-.24-.191-.383-.263a1.697 1.697 0 0 0-.527-.144 6.428 6.428 0 0 0-.742-.048h-4.454v3.975h-1.245V5.579h1.245Zm20.782 1.053h-6.057c-.312 0-.623.072-.934.192a2.76 2.76 0 0 0-.838.526 3.51 3.51 0 0 0-.623.814c-.167.312-.239.647-.263 1.006h8.643v1.03h-8.643v.191c0 .407.072.79.216 1.125.143.336.359.623.598.886.264.24.55.431.886.575.335.143.694.191 1.101.191h5.89v1.03h-6.297c-.478 0-.933-.096-1.364-.263a3.432 3.432 0 0 1-1.174-.767 4.179 4.179 0 0 1-.838-1.173c-.215-.455-.31-.957-.31-1.532V9.242c0-.55.095-1.054.334-1.509.24-.454.503-.838.862-1.173.36-.335.743-.574 1.197-.766.455-.191.91-.263 1.365-.263h6.225v1.101h.024Z" fill="#F2F2F2"/><path d="m28.995 7.494-4.55-6.392V6.68h-.071c-.048.024-.072.024-.096.072h.024c0 .024-.024.024-.048.024 0 .024-.024 0-.024.024-.024.048-.096.072-.12.096-.024 0-.072.048-.095.048h.023c-.047.023 0 .047-.047.071v-.024c0 .024-.024.024-.024 0v.048h.024l-.024.048-.024.024c-.024-.024-.024.024-.024-.024-.048.048-.072.096-.12.12 0 .048-.072.072-.048.096-.024.024-.048.024-.072.024h.024c-.024 0-.048.024-.048.024.024 0 .048-.024.072-.024-.024.024-.072.024-.072.048v.023c-.024 0 0 .024-.024.024-.023.024-.047.024-.071.048 0 0-.024 0-.024.024l.024-.024v.048c-.024.024-.024 0-.024 0 0 .024 0 0 .024 0-.024.024-.048.048-.096.048-.024.024-.048.024-.072.048 0 .024-.072.024-.048.048 0 .024.024-.024.024 0-.024.024-.048 0-.048.024-.024.024-.048.024-.072.048 0 .048-.072.071-.072.12 0-.025-.023 0-.023 0h-.024c0 .023-.024.023-.024.023h-.024.024c-.024.024-.048 0-.072.024v.024h-.024c-.024.048-.096.072-.096.12-.048.024-.096.048-.143.096-.024.024-.048.048-.024.071-.048.024-.072.024-.12.072h.024c0 .024-.024.024-.048.024 0 .024-.024 0-.024.024-.024.048-.096.072-.12.096-.024 0-.072.048-.095.048h.023c-.047.024 0 .048-.047.072v-.024c0 .024-.024.024-.024 0v.048h.024l-.024.048-.024.023c-.024-.023-.024.024-.024-.023-.048.047-.072.095-.12.12 0 .047-.072.071-.048.095-.024.024-.048.024-.072.024h.024c-.024 0-.048.024-.048.024.024 0 .048-.024.072-.024-.024.024-.072.024-.072.048v.024c-.024 0 0 .024-.024.024-.023.024-.047.024-.071.048 0 0-.024 0-.024.024l.024-.024v.047c-.024.024-.024 0-.024 0 0 .024 0 0 .024 0-.024.024-.048.048-.096.048-.024.024-.048.024-.072.048 0 .024-.072.024-.048.048 0 .024.024-.024.024 0-.024.024-.048 0-.048.024-.024.024-.048.024-.072.048 0 .048-.072.072-.072.12 0-.024-.023 0-.023 0h-.024c0 .024-.024.024-.024.024h-.024.024c-.024.024-.048 0-.072.024v.024h-.024c-.024.047-.096.071-.096.12a.462.462 0 0 0-.143.095c-.024.024-.048.048-.024.072-.048.024-.072.024-.12.072h.024c0 .024-.024.024-.048.024 0 .024-.024 0-.024.024-.024.047-.096.071-.12.095-.024 0-.072.048-.096.048h.024c-.048.024 0 .048-.048.072v-.024c0 .024-.023.024-.023 0v.048h.023l-.023.048-.024.024c-.024-.024-.024.024-.024-.024-.048.048-.072.096-.12.12 0 .047-.072.071-.048.095-.024.024-.048.024-.072.024h.024c-.024 0-.048.024-.048.024.024 0 .048-.024.072-.024-.024.024-.072.024-.072.048v.024c-.024 0 0 .024-.024.024-.024.024-.048.024-.071.048 0 0-.024 0-.024.024l.024-.024v.048c-.024.024-.024 0-.024 0 0 .024 0 0 .024 0-.024.024-.048.048-.096.048-.024.024-.048.024-.072.048 0 .024-.072.024-.048.047 0 .024.024-.024.024 0-.024.024-.048 0-.048.024-.024.024-.048.024-.072.048 0 .048-.072.072-.072.12 0-.024-.023 0-.023 0h-.024c0 .024-.024.024-.024.024h-.024.024c-.024.024-.048 0-.072.024v.024h-.024c-.048 0-.024.048-.048.024 0-.024-.048.048-.048.048s-.072.024-.048.048c0 0-.024 0-.024.024v.023h-.024c-.024.024 0 .048-.048.072 0-.024-.023 0 0-.024l-.023.024-.024.024v.048c-.048 0-.072.072-.12.072-.024.024-.048.048-.048.072-.024.024 0 .024-.024.048-.024 0 0-.024 0-.024-.024-.024-.024.024-.072.048-.024 0-.024.048-.048.071 0 .024-.024.048-.048.096v-.024s.024.024 0 .024h-.047l.024-.024c-.024 0-.024.024-.024.024-.024.024-.024.048-.048.072 0 .024-.024 0-.024.024h-.024c0 .024-.024.048-.048.072 0-.024.024-.048.024-.072 0 0-.048.048-.024.048v-.024c0 .024-.024.048-.048.072-.024-.024-.072.048-.096.048-.024.048-.072.071-.12.12.048 0-.023.023 0 .023l-.023.024-.048.024c-.024 0 0-.024 0-.024-.024.024-.024 0-.048 0 0 0 0 .024-.024.024h.024c-.024.048-.048 0-.072.048v-.024c-.024.024-.072.048-.072.096 0 0-.024 0 0 0-.048.024-.072.096-.12.12 0 0 0 .024-.023.024 0 0 0 .023-.024.023v-.023c-.048.023-.048.071-.072.095-.024-.024-.048 0-.072.024-.048.048-.072.096-.096.144-.024 0-.072.048-.12.096v.024h-.023c-.024.024 0 .047-.048.071 0-.024-.024 0 0-.024l-.024.024-.024.024v.048c-.048 0-.072.072-.12.072-.024.024-.048.048-.048.072-.024.024 0 .024-.024.048-.024 0 0-.024 0-.024-.024-.024-.024.024-.072.048-.024 0-.024.048-.048.072 0 .024-.024.047-.047.095v-.024s.023.024 0 .024h-.048l.024-.024c-.024 0-.024.024-.024.024-.024.024-.024.048-.048.072 0 .024-.024 0-.024.024h-.024c0 .024-.024.048-.048.072 0-.024.024-.048.024-.072 0 0-.048.048-.024.048v-.024c0 .024-.024.048-.048.072-.024-.024-.072.048-.096.048-.024.048-.072.072-.12.12.048 0-.023.023 0 .023l-.023.024-.048.024c-.024 0 0-.024 0-.024-.024.024-.024 0-.048 0 0 0 0 .024-.024.024h.024c-.024.048-.048 0-.072.048v-.024c-.024.024-.072.048-.072.096 0 0-.024 0 0 0-.048.024-.072.096-.12.12 0 0 0 .024-.023.024 0 0 0 .024-.024.024v-.024c-.048.024-.048.072-.072.095-.024-.023-.048 0-.072.024-.048.048-.072.096-.096.144-.024 0-.072.048-.12.096v.024h-.023c-.024.024 0 .048-.048.072 0-.024-.024 0 0-.024l-.024.024-.024.023v.048c-.048 0-.072.072-.12.072-.024.024-.048.048-.048.072-.024.024 0 .024-.024.048-.024 0 0-.024 0-.024-.024-.024-.024.024-.072.048-.024 0-.024.048-.047.072 0 .024-.024.048-.048.095v-.024s.024.024 0 .024h-.048l.024-.024c-.024 0-.024.024-.024.024-.024.024-.024.048-.048.072 0 .024-.024 0-.024.024h-.024c0 .024-.024.048-.048.072 0-.024.024-.048.024-.072 0 0-.048.048-.024.048v-.024c0 .024-.024.048-.048.072-.024-.024-.072.048-.096.048-.023.048-.071.072-.12.12.049 0-.023.023 0 .023l-.023.024-.048.024c-.024 0 0-.024 0-.024-.024.024-.024 0-.048 0 0 0 0 .024-.024.024h.024c-.024.048-.048 0-.072.048v-.024c-.024.024-.072.048-.072.096 0 0-.024 0 0 0-.047.024-.071.096-.12.12 0 0 0 .024-.023.024 0 0 0 .024-.024.024v-.024c-.048.024-.048.072-.072.096-.024-.024-.048 0-.072.024a.5.5 0 0 0-.096.143c-.024 0-.024 0-.071.048v14.126l4.525-7.087V12.235l5.435-5.076v7.374l4.62-7.039Z" fill="#AB3473"/><path d="M15.18 15.275s0-.024-.024-.024c.024 0 0 .048.024.024Zm.311-.311s.024 0 .024-.024c0 0-.024 0-.024.024Zm1.364-1.244s0-.025-.024-.025c.024 0 0 .048.024.024Zm.312-.312s.024 0 .024-.024c0 0-.024 0-.024.024Zm1.365-1.245s0-.024-.024-.024c.024 0 0 .048.024.024Zm.311-.311s.024 0 .024-.024c0 0-.024 0-.024.024Zm5.076-4.789c0 .024.024.024 0 0 .048 0 0 .024 0 0Zm-.814.791c-.024 0-.024.023 0 0-.024.023 0 0 0 0Zm.479-.432s0-.024.024-.024c0 0-.024 0-.024.024Zm-1.317 1.222c-.024.024.024 0 0 0 .024-.024 0 .024 0 0Zm-.335.335s0-.024.024-.024c-.024 0-.024 0-.024.024ZM20.59 10.2c0 .024.025.024 0 0 .049 0 0 .024 0 0Zm-.335.335s0-.024.024-.024c-.024 0-.024.024-.024.024Z" fill="#AB3473"/><path d="M13.839 15.252c-.024 0-.024.023-.024.023.048.024 0-.024.024-.024Zm-.359-.312s.023 0 .023.024c0-.024 0-.024-.024-.024Zm-1.317-1.245c-.024 0-.024.024-.024.024.048.024 0-.024.024-.024Zm-.359-.311s.024 0 .024.024c0-.024 0-.024-.024-.024Zm-1.317-1.244c-.024 0-.024.023-.024.023.048.024 0-.024.024-.024Zm-.359-.312s.024 0 .024.024c0-.024 0-.024-.024-.024ZM5.076 7.063c0 .024-.024 0 0 0-.024.024.024.024 0 0Zm.742.695c0 .024.024 0 0 0Zm-.431-.36.024.024c0-.024 0-.024-.024-.024Zm1.365 1.246c0 .024-.048-.024 0 0-.024 0 0 .024 0 0Zm.311.311.024.024c0-.024-.024-.024-.024-.024ZM8.404 10.2c.024.024-.024 0 0 0-.024.024.024.024 0 0Zm.742.694c0 .024.024 0 0 0Zm-.406-.384.023.025c-.024 0-.024-.024-.024-.024Z" fill="#CDD430"/><path d="M14.51 15.874c-.049-.024-.025-.048-.073-.048-.047-.048-.047-.096-.095-.143-.024 0-.048-.024-.072-.024-.024-.024-.024-.072-.072-.096v.024c-.024 0-.024-.024-.024-.024-.024 0 0-.024-.024-.024-.048-.024-.072-.096-.12-.12 0-.024-.048-.072-.071-.096v.024c-.024-.047-.048 0-.072-.047h.024c-.024 0-.024-.025-.024-.025-.024 0-.024.024-.048 0 0 0 .024.024 0 .024l-.048-.024-.024-.023c.024-.024-.024-.024 0-.024-.048-.048-.096-.072-.12-.12-.048 0-.072-.072-.095-.048-.024-.024-.024-.048-.048-.072v.024c0-.024-.024-.048-.024-.048 0 .024.024.048.024.072-.024-.024-.024-.048-.048-.072h-.024c0-.024-.024 0-.024-.024-.024-.024-.024-.047-.048-.072-.024 0-.024-.023-.024-.023l.024.023h-.048c-.024-.023 0-.023 0-.023-.024 0 0 0 0 .023-.024-.023-.048-.047-.048-.095-.024-.024-.024-.048-.048-.072-.024 0-.024-.048-.071-.048-.024 0 .023.024 0 .024-.024-.024 0-.048-.024-.048-.024-.024-.048-.048-.048-.072-.048 0-.072-.072-.12-.072.024 0 0-.024 0-.024v-.023c-.024 0-.024-.024-.024-.024l-.024-.024c.024.024 0 .024 0 .024-.024-.024 0-.048-.048-.072h-.024v-.024a.52.52 0 0 1-.12-.096c-.047-.048-.047-.096-.095-.144-.024 0-.048-.023-.072-.023-.024-.024-.024-.072-.072-.096v.024c-.024 0-.024-.024-.024-.024-.024 0 0-.024-.024-.024-.048-.024-.072-.096-.12-.12 0-.024-.047-.072-.071-.096v.024c-.024-.048-.048 0-.072-.048h.024c-.024 0-.024-.024-.024-.024-.024 0-.024.024-.048 0 0 0 .024.024 0 .024l-.048-.024-.024-.023c.024-.024-.024-.024 0-.024-.048-.048-.096-.072-.12-.12-.047 0-.071-.072-.095-.048-.024-.024-.024-.048-.048-.072v.024c0-.024-.024-.048-.024-.048 0 .024.024.048.024.072-.024-.024-.024-.048-.048-.072h-.024c0-.024-.024 0-.024-.024-.024-.024-.024-.048-.048-.072-.024 0-.024-.024-.024-.024l.024.024h-.048c-.024-.024 0-.024 0-.024-.024 0 0 0 0 .024-.024-.024-.048-.047-.048-.095-.024-.024-.024-.048-.048-.072-.024 0-.024-.048-.071-.048-.024 0 .024.024 0 .024-.024-.024 0-.048-.024-.048-.024-.024-.048-.048-.048-.072-.048 0-.072-.072-.12-.072.024 0 0-.024 0-.024v-.024c-.024 0-.024-.024-.024-.024l-.024-.023c.024.024 0 .024 0 .024-.024-.024 0-.048-.048-.072h-.024v-.024c-.047-.024-.095-.072-.12-.096-.047-.048-.047-.096-.095-.144-.024 0-.048-.024-.072-.024-.024-.024-.024-.071-.072-.095v.024c-.024 0-.024-.024-.024-.024-.024 0 0-.024-.024-.024-.048-.024-.072-.096-.12-.12 0-.024-.047-.072-.071-.096v.024c-.024-.048-.048 0-.072-.048h.024c-.024 0-.024-.024-.024-.024-.024 0-.024.024-.048 0 0 0 .024.024 0 .024l-.048-.024-.024-.024c.024-.024-.024-.024 0-.024-.048-.047-.096-.072-.12-.12-.047 0-.071-.071-.095-.047-.024-.024-.024-.048-.048-.072v.024c0-.024-.024-.048-.024-.048 0 .024.024.048.024.072-.024-.024-.024-.048-.048-.072h-.024c0-.024-.024 0-.024-.024-.024-.024-.024-.048-.048-.072-.024 0-.024-.024-.024-.024l.024.024h-.048c-.024-.024 0-.024 0-.024-.024 0 0 0 0 .024-.024-.024-.048-.048-.048-.095-.024-.024-.024-.048-.047-.072-.024 0-.024-.048-.072-.048-.024 0 .024.024 0 .024-.024-.024 0-.048-.024-.048-.024-.024-.048-.048-.048-.072-.048 0-.072-.072-.12-.072.024 0 0-.024 0-.024v-.024c-.024 0-.024-.024-.024-.024l-.024-.024c.024.024 0 .024 0 .024-.024-.024 0-.048-.048-.072h-.024v-.023c0-.048-.047-.024-.023-.024.023 0-.048-.048-.048-.048s-.024-.072-.048-.048c0 0 0-.024-.048-.024h-.024v-.024c-.024-.024-.048 0-.072-.024.024 0 0-.024.024 0 0 0-.024-.024-.024 0l-.024-.024H9.05c0-.048-.072-.072-.072-.12-.023-.024-.047-.024-.071-.047-.024-.024-.024 0-.048-.024 0-.024.024 0 .024 0 .024-.024-.048-.024-.048-.048s-.048-.024-.072-.048a.182.182 0 0 1-.096-.048h.024s0 .024-.024 0v-.048l.024.024c0-.024-.024-.024-.024-.024-.024-.024-.048 0-.072-.048-.024 0 0-.024-.024-.024v-.024c-.024 0-.047-.024-.071-.048.024 0 .047.024.071.024l-.047-.024h.023c-.023 0-.047 0-.071-.024.024-.024-.048-.071-.048-.095-.048-.024-.072-.072-.12-.12 0 .048-.024 0-.024.024l-.024-.024.12.048c0-.024.024 0 .024 0-.024-.024 0-.024 0-.048H8.38v.024c-.048-.024 0-.048-.048-.072h.024c-.024 0-.072-.048-.096-.048 0 0 0-.024 0 0-.048-.048-.096-.072-.12-.096 0 0-.023 0-.023-.024 0 0-.024 0-.048-.024h.024c-.024-.047-.072-.047-.12-.071.024-.024 0-.048-.024-.072-.048-.048-.096-.048-.144-.096 0-.024-.048-.072-.095-.12h-.024v-.024c-.024-.024-.048 0-.072-.024.024 0 0-.023.024 0 0 0-.024-.023-.024 0l-.024-.023h-.048c0-.048-.072-.072-.072-.12-.024-.024-.048-.024-.072-.048-.024-.024-.024 0-.048-.024 0-.024.024 0 .024 0 .024-.024-.048-.024-.048-.048s-.047-.024-.071-.048a.181.181 0 0 1-.096-.048h.024s0 .024-.024 0v-.048l.024.024c0-.024-.024-.024-.024-.024-.024-.024-.048 0-.072-.047-.024 0 0-.024-.024-.024v-.024c-.024 0-.048-.024-.072-.048.024 0 .048.024.072.024l-.048-.024h.024c-.024 0-.048 0-.072-.024.024-.024-.048-.072-.048-.096-.047-.024-.071-.072-.12-.12 0 .048-.023 0-.023.024l-.024-.024-.048-.071c0-.024.024 0 .024 0-.024-.024 0-.024 0-.048h-.024v.024c-.048-.024 0-.048-.048-.072h.024c-.024 0-.072-.048-.096-.048 0 0 0-.024 0 0-.048-.048-.096-.072-.12-.096 0 0-.023 0-.023-.024 0 0-.024 0-.048-.024h.024c-.024-.048-.072-.048-.12-.072.024-.024 0-.047-.024-.071-.048-.048-.096-.048-.144-.096 0-.024-.048-.072-.095-.12H6.01V7.95c-.024-.024-.048 0-.072-.024.024 0 0-.024.024 0 0 0-.024-.024-.024 0l-.024-.024h-.048c0-.048-.072-.072-.072-.12-.024-.023-.048-.023-.072-.047-.024-.024-.024 0-.048-.024 0-.024.024 0 .024 0 .024-.024-.048-.024-.048-.048s-.047-.024-.071-.048a.182.182 0 0 1-.096-.048h.024s0 .024-.024 0v-.048l.024.024c0-.024-.024-.024-.024-.024-.024-.024-.048 0-.072-.048-.024 0 0-.024-.024-.024v-.024c-.024 0-.048-.024-.072-.047.024 0 .048.023.072.023l-.048-.023h.024c-.024 0-.048 0-.072-.024.024-.024-.048-.072-.048-.096-.047-.024-.071-.072-.12-.12 0 .048-.023 0-.023.024l-.024-.024-.048-.096c0-.024.024 0 .024 0-.024-.024 0-.024 0-.048h-.024v.024c-.048-.024 0-.048-.048-.071h.024c-.024 0-.072-.048-.096-.048 0 0 0-.024 0 0-.048-.048-.096-.072-.12-.096 0 0-.023 0-.023-.024 0 0-.024 0-.048-.024h.024c-.024-.048-.072-.024-.096-.072-.024 0-.024-.024-.072 0V1.102L0 7.494l4.55 7.04V7.158l5.434 5.076v10.678L14.509 30V15.874Z" fill="#CDD430"/><path d="M14.51 0v8.547L23.654 0H14.51Z" fill="#B1618D"/><path d="M14.51 8.547V0H5.34l9.17 8.547Z" fill="#D4DB62"/><path d="M14.51 8.547V1.844L5.34 0l9.17 8.547Z" fill="#C4CA2F"/><path d="M14.51 8.547V1.844L23.654 0 14.51 8.547Z" fill="#B13675"/><path d="M9.984 12.235 14.509 30l-4.525-7.087V12.235Z" fill="#C1C724"/><path d="M19.01 12.235v10.678L14.51 30l4.5-17.765Z" fill="#A13069"/><path d="m0 7.494 4.55-.814V1.102L0 7.494Z" fill="#DCE329"/><path d="m28.994 7.494-4.549-.814V1.102l4.55 6.392Z" fill="#B14A80"/><path d="M50.208 25.57h-.168l-.766-1.82c-.096-.239-.216-.526-.311-.813h-.024c.024.43.024.814.024 1.173v1.484h-.36v-3.088h.527l.718 1.724c.072.191.168.43.264.718.12-.311.191-.55.263-.718l.718-1.724h.527v3.04h-.383v-1.484c0-.335 0-.742.024-1.173h-.024c-.12.311-.215.575-.311.814l-.718 1.867Zm3.447-.239-.12.12c-.047.024-.095.072-.143.096-.048.024-.12.048-.192.072-.072.024-.143.024-.215.024-.096 0-.192-.024-.287-.048a.349.349 0 0 1-.216-.144.565.565 0 0 1-.144-.215c-.023-.096-.047-.192-.047-.288a.92.92 0 0 1 .047-.287.522.522 0 0 1 .168-.215c.072-.048.144-.096.263-.144.096-.024.216-.048.336-.048.12 0 .215 0 .31.024.097.024.192.048.264.072v-.335a.183.183 0 0 0-.048-.12c-.048-.072-.096-.144-.191-.192a.8.8 0 0 0-.36-.072 1.261 1.261 0 0 0-.598.12v-.287c.048-.024.072-.024.12-.048s.096-.024.167-.048c.048 0 .12-.024.168-.024h.192c.215 0 .407.048.526.12.144.072.24.192.312.311.023.048.047.096.047.168 0 .048.024.12.024.191v1.437h-.287l-.096-.24Zm-.024-.718c-.072-.024-.143-.024-.24-.048-.095-.024-.19-.024-.286-.024-.144 0-.264.024-.36.096-.095.072-.12.168-.12.287 0 .072 0 .12.025.168.024.048.048.096.095.12.048.024.072.048.12.072.048.024.096.024.168.024.072 0 .143 0 .215-.024.072-.024.12-.048.168-.072a.524.524 0 0 0 .12-.096c.023-.024.071-.048.071-.072v-.43h.024Zm.91-.12c0-.143.024-.287.048-.407s.072-.215.12-.311a.522.522 0 0 1 .168-.215c.072-.048.143-.096.191-.144.048-.048.144-.072.216-.072.072-.024.143-.024.215-.024a.69.69 0 0 1 .335.072c.096.048.192.12.264.191v-1.316h.359v3.304h-.264l-.071-.24c-.024.024-.048.072-.096.096-.048.024-.072.072-.12.096-.048.024-.096.048-.167.072-.072.024-.144.024-.216.024a.96.96 0 0 1-.359-.072.844.844 0 0 1-.311-.192 1.005 1.005 0 0 1-.216-.335c-.072-.144-.096-.311-.096-.527Zm.384 0c0 .12.024.24.047.335a.884.884 0 0 0 .12.264.63.63 0 0 0 .192.167c.072.048.167.048.263.048.072 0 .144 0 .192-.024.072-.024.12-.048.167-.072a.52.52 0 0 0 .12-.095c.024-.024.072-.072.072-.096v-1.125a.62.62 0 0 0-.264-.168.663.663 0 0 0-.31-.072.697.697 0 0 0-.216.048.564.564 0 0 0-.216.144.714.714 0 0 0-.167.263c.024.072 0 .216 0 .383Zm3.28.815c.12 0 .215 0 .31-.024l.288-.072v.287a.806.806 0 0 1-.287.096c-.12.024-.24.024-.36.024-.143 0-.31-.024-.43-.048-.144-.048-.264-.096-.36-.192a1.199 1.199 0 0 1-.239-.335 1.564 1.564 0 0 1-.024-1.006.902.902 0 0 1 .216-.359.91.91 0 0 1 .67-.287c.12 0 .24.024.335.072a.68.68 0 0 1 .264.192c.071.095.143.191.191.335.048.143.072.31.072.502v.144h-1.484a.799.799 0 0 0 .239.599c.072.072.167.095.263.12.12-.049.216-.049.336-.049Zm-.192-1.677a.572.572 0 0 0-.215.048c-.072.024-.12.072-.192.12-.072.048-.096.12-.12.192-.024.072-.048.143-.072.24h1.102c0-.097 0-.169-.024-.24-.024-.072-.048-.144-.096-.192a.43.43 0 0 0-.168-.12.479.479 0 0 0-.215-.047Zm2.442-.742v-.383h.36v.383h-.36Zm0 2.681v-2.154h.36v2.154h-.36Zm1.413-1.867.144-.143c.047-.048.095-.072.167-.12.048-.024.12-.048.192-.072.072-.024.143-.024.24-.024.095 0 .19.024.287.048a.349.349 0 0 1 .215.144c.072.072.12.143.144.24.024.095.047.215.047.358v1.46h-.359v-1.388a.634.634 0 0 0-.12-.407.414.414 0 0 0-.31-.12c-.12 0-.24.024-.36.096a.826.826 0 0 0-.287.288v1.532h-.36V23.44h.264l.096.263Zm3.472 1.867h-.384v-3.064h1.82v.335h-1.437v.982h1.293v.335h-1.293v1.412Zm3.112-1.89h-.024c-.072 0-.168 0-.24.023-.071.024-.167.048-.215.072a.52.52 0 0 0-.191.12 1.043 1.043 0 0 0-.144.168v1.508h-.36v-2.155h.264l.072.335a.724.724 0 0 1 .12-.167.726.726 0 0 1 .167-.12.849.849 0 0 1 .216-.096c.072-.024.167-.024.24-.024h.095v.335Zm.12-.288h.359l.67 1.7h.024l.695-1.7h.359l-1.341 3.232h-.383l.455-1.101-.838-2.13Zm3.783 1.939-.12.12c-.048.024-.096.072-.144.096-.048.024-.12.048-.191.072-.072.024-.144.024-.216.024a1.2 1.2 0 0 1-.287-.048.349.349 0 0 1-.216-.144.565.565 0 0 1-.143-.215 1.199 1.199 0 0 1-.048-.288c0-.12.024-.215.048-.287a.482.482 0 0 1 .167-.215c.072-.048.144-.096.264-.144a1.4 1.4 0 0 1 .335-.048c.12 0 .215 0 .311.024s.192.048.264.072v-.335a.183.183 0 0 0-.048-.12c-.048-.072-.096-.144-.192-.192a.8.8 0 0 0-.36-.072c-.119 0-.215 0-.31.024a1.348 1.348 0 0 0-.288.096v-.287c.048-.024.072-.024.12-.048s.096-.024.168-.048c.047 0 .12-.024.167-.024h.192c.215 0 .407.048.526.12.12.072.24.192.312.311.024.048.048.096.048.168 0 .048.024.12.024.191v1.437h-.288l-.096-.24Zm-.024-.718c-.072-.024-.144-.024-.24-.048s-.191-.024-.287-.024c-.144 0-.264.024-.36.096-.095.072-.119.168-.119.287 0 .072 0 .12.024.168.024.048.048.096.096.12.048.024.072.048.12.072.047.024.095.024.167.024.072 0 .144 0 .216-.024.071-.024.12-.048.167-.072a.524.524 0 0 0 .12-.096c.024-.024.072-.048.072-.072v-.43h.024Zm2.082-.91h-1.197v-.31h1.628v.215l-1.197 1.628h1.293v.31h-1.748v-.167l1.221-1.676Zm1.03-.814v-.383h.359v.383h-.36Zm.024 2.681v-2.154h.359v2.154h-.36Zm1.389-1.867.143-.143c.048-.048.096-.072.168-.12.048-.024.12-.048.192-.072.071-.024.143-.024.239-.024s.192.024.287.048a.35.35 0 0 1 .216.144c.072.072.12.143.143.24.024.095.048.215.048.358v1.46h-.359v-1.388a.634.634 0 0 0-.12-.407c-.071-.096-.167-.12-.31-.12-.12 0-.24.024-.36.096a.825.825 0 0 0-.287.288v1.532h-.36V23.44h.264l.096.263Zm4.07.767c0 .167-.024.335-.072.454a.903.903 0 0 1-.216.36 1.536 1.536 0 0 1-.31.239 1.16 1.16 0 0 1-.432.072 1.16 1.16 0 0 1-.43-.072 1.08 1.08 0 0 1-.336-.24.902.902 0 0 1-.215-.359 1.544 1.544 0 0 1 0-.934.9.9 0 0 1 .215-.358c.096-.096.192-.168.335-.24a1.16 1.16 0 0 1 .431-.072c.168 0 .311.024.431.072.12.048.24.144.335.24a.658.658 0 0 1 .192.359c.048.167.072.311.072.479Zm-.383 0c0-.144-.024-.264-.048-.36a.57.57 0 0 0-.144-.263.521.521 0 0 0-.215-.168c-.096-.047-.168-.047-.264-.047a.86.86 0 0 0-.263.047c-.072.024-.144.096-.215.168a2.617 2.617 0 0 0-.144.263 1.451 1.451 0 0 0-.048.36c0 .143.024.239.048.359a.57.57 0 0 0 .144.263.52.52 0 0 0 .215.168c.072.047.168.047.263.047a.862.862 0 0 0 .264-.047c.072-.048.143-.096.215-.168.048-.072.096-.168.144-.263.048-.096.048-.216.048-.36Z" fill="#F2F2F2"/></g><defs><clipPath id="a"><path fill="#fff" d="M0 0h94.118v30H0z"/></clipPath></defs></svg>