<svg width="251" height="80" fill="none" xmlns="http://www.w3.org/2000/svg"><g clip-path="url(#a)"><path d="M105.028 51.333c.255-.128-.064-.32 0-.383-.383.191.191.191 0 .383Zm11.109-.192h-.064l-.063.064.127-.064Zm.319 0-.063.192c.191.064.127-.192.063-.192Zm-6.448 0c.128.128.255.064.319-.064 0-.063-.191.064-.319.064Zm20.686.128c.256-.128-.063-.32 0-.383-.383.128.256.191 0 .383Zm11.11-.192h-.064l-.064.064.128-.064Zm.319-.063-.064.191c.192.128.192-.128.064-.191Zm-6.385.063c.128.128.256.064.32-.063-.064-.064-.192 0-.32.063Zm20.686.064c.256-.127-.063-.319 0-.383-.383.192.192.256 0 .383Zm11.11-.191h-.064l-.064.064.128-.064Zm.319 0-.064.191c.192.064.128-.127.064-.191Zm-6.448 0c.127.127.255.064.319-.064 0 0-.192.064-.319.064Zm78.467.383c-.255-.192.383-.192 0-.383 0 .064-.319.255 0 .383Zm-11.428 0-.064-.192c-.064 0-.128.256.064.192Zm6.001-.256c.064.128.256.192.32.064-.064 0-.192-.127-.32-.064Zm-20.303.192c-.255-.192.383-.192 0-.383.064 0-.255.255 0 .383Zm-12.897-.128c0-.064-.064-.064 0 0h-.064.064Zm1.532.128-.064-.192c-.127 0-.127.256.064.192Zm6.002-.255c.064.127.255.191.319.063-.128-.063-.255-.127-.319-.063Zm-20.303.127c-.256-.191.383-.191 0-.383.063.064-.32.32 0 .383Zm-11.046-.127c0-.064-.064-.064 0 0h-.128.128Zm-.383.127-.064-.191c-.064.064-.127.255.064.191Zm6.002-.255c.063.128.255.191.319.064-.064 0-.192-.064-.319-.064Z" fill="#B13675"/><path d="M94.11 48.843v2.49c.575-.064 1.34.064 1.66-.192.639.128 1.15.383 1.852.383v-.063c.255-.064.702-.128.702-.447.51.063.83.51 1.405.383l-.128-.128c.128-.064.383.064.447.128.064 0 0-.064 0-.128.128-.128.255.064.319.064l-.064-.128c.447-.191 1.213.192 1.852.128-.128 0-.064-.128 0-.192.255.32.958.256 1.213.32l-.128-.128c.511.191.447-.32.958-.128l-.255.192c.191-.064.383 0 .319.127.255-.127 0-.255.383-.255 0-.064-.256-.064-.128-.192l.511-.255h.064-.064s.064-.064.255 0c-.064.447.383 0 .192.447.702.064 1.277-.255 1.915-.064.256-.383 1.213 0 1.149-.51.32 0 .639.127.83.319-.063.063-.127 0-.191-.064.064.127.511.127.638.127-.191-.127-.574-.255-.766-.447.319.064.766.256.894.32l.064-.256c.255.192.191-.191.447.064l-.064.064c.447 0 .511.255.894.32v-.128c.128-.064.383.191.511 0h-.32c0-.192.256-.256.384-.384.319.064.127.32.255.32.064-.192 0-.064-.064-.256.319.064.83.128 1.022.383v-.063c.383 0 .638.319.893.127h-.063c.255-.255.766.256.766-.191.127-.064-.319 0-.064-.192.447-.128.255.383.638.256-.063 0-.063 0-.063-.064.255 0 .638.064.893.127.383-.383 1.086.128 1.533-.319-.128.128.127.192.127.256v-.064c.128 0 .192.127.256.191.127-.127.447.128.511.064 0 .064.127.064.255.064-.255-.128-.064-.192-.192-.32.384-.063.447.448.894.32l.256-.192c0 .128.127.192.191.192.575-.064 1.341 0 1.66-.255.639.127 1.149.383 1.852.383v-.064c.255-.064.702-.128.702-.447.511.064.83.51 1.405.383l-.128-.128c.128-.064.383.064.447.128.064 0 0-.064 0-.128.128-.127.255.064.319.064l-.064-.128c.447-.191 1.213.192 1.852.128-.128 0-.064-.128 0-.191.255.319.958.255 1.213.319l-.128-.128c.511.192.447-.32.958-.128l-.255.192c.191-.064.383 0 .319.128.255-.128 0-.256.383-.256 0-.064-.255-.064-.128-.191l.511-.256h.064-.064s.064-.064.255 0c-.063.447.383 0 .192.447.702.064 1.277-.255 1.915-.064.256-.383 1.213 0 1.15-.51.319 0 .638.127.83.319-.064.064-.128 0-.192-.064.064.128.511.128.639.128-.192-.128-.575-.256-.767-.447.32.064.767.255.894.319l.064-.255c.255.191.192-.192.447.063l-.064.064c.447 0 .511.256.894.32v-.128c.128-.064.383.191.511 0h-.319c0-.192.255-.256.383-.383.319.064.127.319.255.319.064-.192 0-.064-.064-.255.319.063.83.127 1.022.383v-.064c.383 0 .638.32.894.128h-.064c.255-.256.766.255.766-.192.128-.064-.319 0-.064-.192.447-.127.255.384.638.256-.063 0-.063 0-.063-.064.255 0 .638.064.893.128.384-.383 1.086.127 1.533-.32-.128.128.128.192.128.256v-.064c.127 0 .191.128.255.192.128-.128.447.127.511.063 0 .064.127.064.255.064-.255-.127-.064-.191-.191-.319.383-.064.446.447.893.32l.256-.192c0 .127.127.191.191.191.575-.064 1.341 0 1.66-.255.639.128 1.15.383 1.852.383v-.064c.255-.064.702-.128.702-.447.511.064.83.51 1.405.383l-.128-.127c.128-.064.383.063.447.127.064 0 0-.064 0-.127.128-.128.255.063.319.063l-.064-.127c.447-.192 1.214.191 1.852.127-.128 0-.064-.127 0-.191.255.32.958.255 1.213.32l-.128-.129c.511.192.447-.319.958-.127l-.255.191c.191-.064.383 0 .319.128.255-.128 0-.255.383-.255 0-.064-.255-.064-.128-.192l.511-.255h.064-.064s.064-.064.255 0c-.063.447.384 0 .192.447.702.063 1.277-.256 1.915-.064.256-.383 1.214 0 1.15-.511.319 0 .638.128.83.32-.064.063-.128 0-.192-.065.064.128.511.128.639.128-.192-.128-.575-.255-.767-.447.32.064.767.255.894.32l.064-.256c.256.191.192-.192.447.064l-.064.064c.447 0 .511.255.894.319v-.128c.128-.064.383.192.511 0h-.319c0-.191.255-.255.383-.383.319.064.127.32.255.32.064-.192 0-.065-.064-.256.319.064.83.128 1.022.383v-.064c.383 0 .638.32.894.128h-.064c.255-.256.766.255.766-.192.128-.064-.319 0-.064-.191.447-.128.255.383.639.255-.064 0-.064 0-.064-.064.255 0 .638.064.894.128.383-.383 1.085.128 1.532-.32-.128.128.128.192.128.256v-.064c.127 0 .191.128.255.192.128-.128.447.128.511.064 0 .064.127.064.255.064-.255-.128-.064-.192-.191-.32.383-.064.447.447.893.32l.256-.192s.064 0 .191.064c.383.32.575-.128.575.064-.064.319.638 0 .702 0 .064 0 .767.319.703 0-.064-.128.127.319.574-.064.064-.064.192 0 .192-.064l.255.192c.447.063.511-.384.894-.32-.128.128.064.256-.191.32.127 0 .255 0 .255-.064.064.064.383-.192.511-.064.064-.064.064-.192.255-.192v.064c0-.064.255-.064.128-.255.447.447 1.149-.064 1.532.319.319-.064.639-.064.894-.128 0 .064 0 .064-.064.064.383.128.255-.383.639-.255.191.191-.256.127-.064.191.064.447.51-.064.766.192h-.064c.192.128.511-.192.894-.128v.064c.255-.255.702-.32 1.021-.383-.127.191-.127.064-.063.255.127 0-.064-.255.255-.319.128.064.319.192.383.383h-.319c.127.256.383 0 .511 0v.128c.447-.064.447-.32.893-.32l-.063-.063c.255-.256.191.127.447-.064l.063.255c.192-.064.575-.255.894-.319-.191.192-.511.32-.766.447.192 0 .575 0 .639-.128-.064 0-.128.064-.192.064.192-.191.511-.32.83-.32-.064.512.894.129 1.149.512.575-.192 1.213.064 1.916.064-.256-.384.191 0 .191-.447h.256-.064.064l.51.255c.128.128-.127.064-.127.192.383 0 .127.191.383.255-.064-.128.127-.192.319-.128l-.255-.191c.51-.256.447.319.957.127l-.127.128c.255-.064.957 0 1.213-.32.064.065.127.192 0 .192.638.064 1.34-.383 1.851-.127l-.064.127c.128 0 .192-.191.32-.063 0 .063-.064.127 0 .127.063-.064.319-.191.447-.127l-.128.127c.574.128.894-.255 1.404-.383 0 .32.447.383.703.447v.064c.702.064 1.213-.255 1.851-.383.32.255 1.086.191 1.66.255.064 0 .192-.064.192-.191l.255.191c.447.064.511-.383.894-.319-.128.128.064.255-.191.32.127 0 .255 0 .255-.065.064.064.383-.191.511-.063.064-.064.064-.192.255-.192v.064c0-.064.256-.064.128-.256.447.447 1.149-.063 1.532.32.319-.064.639-.064.894-.128 0 .064 0 .064-.064.064.383.128.256-.383.639-.256.191.192-.256.128-.064.192.064.447.511-.064.766.192h-.064c.192.127.511-.192.894-.128v.064c.255-.256.702-.32 1.022-.383-.128.191-.128.063-.064.255.127 0-.064-.255.255-.32.128.065.319.192.383.384h-.319c.128.255.383 0 .511 0v.128c.447-.064.447-.32.894-.32l-.064-.064c.255-.255.191.128.447-.063l.063.255c.192-.064.575-.255.894-.32-.191.192-.51.32-.766.448.192 0 .575 0 .639-.128-.064 0-.128.064-.192.064.192-.192.511-.32.83-.32-.064.511.894.128 1.149.511.575-.191 1.213.064 1.916.064-.256-.383.191 0 .191-.447h.256-.064.064l.51.256c.128.127-.127.064-.127.191.383 0 .127.192.383.256-.064-.128.128-.192.319-.128l-.255-.192c.51-.255.447.32.957.128l-.127.128c.255-.064.957 0 1.213-.32.064.064.127.192 0 .192.638.064 1.341-.383 1.851-.128l-.064.128c.128 0 .192-.191.32-.064 0 .064-.064.128 0 .128.064-.064.319-.192.447-.128l-.128.128c.575.128.894-.255 1.405-.383 0 .32.447.383.702.447v.064c.702.064 1.213-.256 1.851-.383.32.255 1.086.191 1.66.255.064 0 .192-.064.192-.192l.255.192c.447.064.511-.383.894-.32-.127.128.064.256-.191.32.127 0 .255 0 .255-.064.064.064.383-.191.511-.064.064-.064.064-.191.255-.191v.064c0-.064.256-.064.128-.256.447.447 1.149-.064 1.532.32.32-.064.639-.064.894-.128 0 .064 0 .064-.064.064.383.127.256-.384.639-.256.191.192-.256.128-.064.192.064.447.511-.064.766.191h-.064c.192.128.511-.191.894-.127v.063c.255-.255.702-.319 1.022-.383-.128.192-.128.064-.064.256.127 0-.064-.256.255-.32.128.064.319.192.383.384h-.319c.128.255.383 0 .511 0v.127c.447-.064.447-.319.894-.319l-.064-.064c.255-.255.191.128.447-.064l.064.256c.191-.064.574-.256.893-.32-.191.192-.51.32-.766.447.192 0 .575 0 .639-.127-.064 0-.128.064-.192.064.192-.192.511-.32.83-.32-.064.511.894.128 1.149.511.575-.191 1.214.064 1.916.064-.256-.383.191 0 .191-.447h.256-.064.064l.511.255c.127.128-.128.064-.128.192.383 0 .128.192.383.255-.064-.127.128-.191.319-.127l-.255-.192c.511-.255.447.32.957.128l-.127.128c.255-.064.957 0 1.213-.32.064.064.128.192 0 .192.638.064 1.341-.383 1.851-.128l-.063.128c.127 0 .191-.192.319-.064 0 .064-.064.128 0 .128.064-.064.319-.192.447-.128l-.128.128c.575.127.894-.256 1.405-.383 0 .319.447.383.702.447v.063c.702.064 1.213-.255 1.852-.383.319.256 1.085.128 1.66.192v-2.49H94.11Z" fill="#B13675"/><path d="m109.497 37.989-11.875-17.43v17.43h-3.257V14.812h3.001l12.961 18.9 13.089-18.9h3.001v23.113h-3.32V20.431l-12.004 17.558h-1.596Zm48.907-20.303h-16.153c-.83 0-1.66.191-2.49.51-.83.32-1.597.83-2.235 1.405-.639.638-1.213 1.34-1.66 2.17-.447.83-.639 1.725-.702 2.682h23.048V27.2h-23.048v.51c0 1.086.191 2.107.574 3.001.383.894.958 1.66 1.596 2.363a8.366 8.366 0 0 0 2.363 1.532c.894.383 1.851.51 2.937.51h15.706v2.746h-16.792a9.974 9.974 0 0 1-3.639-.702 9.158 9.158 0 0 1-3.129-2.043c-.893-.894-1.66-1.916-2.234-3.129-.575-1.213-.83-2.554-.83-4.086v-3.256c0-1.469.255-2.81.894-4.023a10.17 10.17 0 0 1 2.298-3.128c.958-.894 1.979-1.532 3.192-2.043 1.214-.51 2.427-.702 3.64-.702h16.6v2.937h.064Zm31.029 20.303h-16.664c-1.404 0-2.681-.256-3.83-.703-1.15-.446-2.171-1.149-3.065-1.979a8.738 8.738 0 0 1-1.979-3.128c-.511-1.213-.703-2.618-.703-4.15V14.876h3.384v12.897c0 1.15.192 2.171.511 3.129.319.894.83 1.66 1.405 2.362.638.639 1.34 1.15 2.17 1.469.83.319 1.788.51 2.81.51h15.961v2.746Zm6.13-23.113v9.769h12.194c.958 0 1.724-.128 2.427-.383.638-.256 1.277-.83 1.787-1.724.128-.256.447-.702.83-1.469.447-.766.894-1.532 1.341-2.362.511-.83.958-1.66 1.341-2.362.383-.766.702-1.213.83-1.469h3.639l-4.916 8.811a8.461 8.461 0 0 1-1.022 1.469c-.383.447-.893.766-1.532.957v.064c.766.128 1.405.383 1.852.766.51.383.894.958 1.277 1.66l5.107 9.45h-3.639l-4.469-8.3c-.192-.447-.447-.767-.766-1.086-.256-.319-.639-.51-1.022-.702-.383-.192-.894-.32-1.405-.383a17.17 17.17 0 0 0-1.979-.128h-11.875v10.599h-3.32V14.876h3.32Zm55.419 2.81h-16.154c-.83 0-1.66.191-2.49.51-.83.32-1.596.83-2.234 1.405-.639.638-1.213 1.34-1.66 2.17-.447.83-.639 1.725-.703 2.682h23.049V27.2h-23.049v.51c0 1.086.192 2.107.575 3.001.383.894.958 1.66 1.596 2.363a8.366 8.366 0 0 0 2.363 1.532c.893.383 1.851.51 2.937.51h15.706v2.746h-16.792a9.974 9.974 0 0 1-3.639-.702 9.158 9.158 0 0 1-3.129-2.043c-.893-.894-1.66-1.916-2.234-3.129-.575-1.213-.83-2.554-.83-4.086v-3.256c0-1.469.255-2.81.894-4.023.638-1.213 1.34-2.234 2.298-3.128.958-.894 1.979-1.532 3.192-2.043 1.213-.51 2.427-.702 3.64-.702h16.6v2.937h.064Z" fill="#F2F2F2"/><path d="M77.319 19.984 65.188 2.937v14.876h-.192c-.128.064-.191.064-.255.192h.064c0 .064-.064.064-.128.064 0 .064-.064 0-.064.064-.064.127-.255.191-.32.255-.063 0-.19.128-.255.128h.064c-.128.063 0 .127-.128.191v-.064c0 .064-.063.064-.063 0v.128h.063l-.063.128-.064.063c-.064-.063-.064.064-.064-.063-.128.127-.192.255-.32.319 0 .128-.19.191-.127.255-.064.064-.128.064-.191.064h.063c-.063 0-.127.064-.127.064.063 0 .127-.064.191-.064-.064.064-.191.064-.191.128v.064c-.064 0 0 .064-.064.064-.064.063-.128.063-.192.127 0 0-.064 0-.064.064l.064-.064v.128c-.064.064-.064 0-.064 0 0 .064 0 0 .064 0-.064.064-.127.128-.255.128-.064.063-.128.063-.192.127 0 .064-.191.064-.127.128 0 .064.064-.064.064 0-.064.064-.128 0-.128.064-.064.064-.128.064-.192.127 0 .128-.191.192-.191.32 0-.064-.064 0-.064 0h-.064c0 .064-.064.064-.064.064h-.064.064c-.064.063-.128 0-.191.063v.064h-.064c-.064.128-.256.192-.256.32a1.323 1.323 0 0 0-.383.255c-.064.064-.127.128-.064.191-.127.064-.191.064-.319.192h.064c0 .064-.064.064-.128.064 0 .064-.063 0-.063.064-.064.127-.256.191-.32.255-.063 0-.191.128-.255.128h.064c-.128.064 0 .127-.128.191v-.064c0 .064-.064.064-.064 0v.128h.064l-.064.128-.064.064c-.064-.064-.064.064-.064-.064-.127.128-.191.255-.319.32 0 .127-.191.19-.127.255-.064.063-.128.063-.192.063h.064c-.064 0-.128.064-.128.064.064 0 .128-.064.192-.064-.064.064-.192.064-.192.128v.064c-.064 0 0 .064-.064.064-.063.063-.127.063-.191.127 0 0-.064 0-.064.064l.064-.064v.128c-.064.064-.064 0-.064 0 0 .064 0 0 .064 0-.064.064-.128.128-.256.128-.063.064-.127.064-.191.128 0 .063-.192.063-.128.127 0 .064.064-.064.064 0-.064.064-.128 0-.128.064-.063.064-.127.064-.191.128 0 .127-.192.191-.192.319 0-.064-.064 0-.064 0h-.063c0 .064-.064.064-.064.064h-.064.064c-.064.064-.128 0-.192.064v.064h-.064c-.063.127-.255.191-.255.319-.128.064-.255.127-.383.255-.064.064-.128.128-.064.192-.128.063-.192.063-.32.191h.065c0 .064-.064.064-.128.064 0 .064-.064 0-.064.064-.064.128-.255.191-.32.255-.063 0-.19.128-.255.128h.064c-.127.064 0 .128-.127.192v-.064c0 .064-.064.064-.064 0v.127h.064l-.064.128-.064.064c-.064-.064-.064.064-.064-.064-.128.128-.191.255-.32.32 0 .127-.19.19-.127.255-.064.063-.127.063-.191.063h.063c-.063 0-.127.064-.127.064.064 0 .127-.064.191-.064-.063.064-.191.064-.191.128v.064c-.064 0 0 .064-.064.064-.064.064-.128.064-.192.128 0 0-.063 0-.063.063l.063-.063v.127c-.063.064-.063 0-.063 0 0 .064 0 0 .063 0-.063.064-.127.128-.255.128-.064.064-.128.064-.191.128 0 .064-.192.064-.128.127 0 .064.064-.064.064 0-.064.064-.128 0-.128.064-.064.064-.128.064-.192.128 0 .128-.191.191-.191.32 0-.065-.064 0-.064 0h-.064c0 .063-.064.063-.064.063h-.064.064c-.064.064-.127 0-.191.064v.064h-.064c-.128 0-.064.127-.128.063 0-.063-.127.128-.127.128s-.192.064-.128.128c0 0-.064 0-.064.064v.064h-.064c-.064.063 0 .127-.127.191 0-.064-.064 0 0-.064l-.064.064-.064.064v.128c-.128 0-.192.191-.32.191-.063.064-.127.128-.127.192-.064.064 0 .064-.064.127-.064 0 0-.063 0-.063-.064-.064-.064.063-.191.127-.064 0-.064.128-.128.192 0 .064-.064.127-.128.255v-.064s.064.064 0 .064h-.128l.064-.064c-.064 0-.064.064-.064.064-.064.064-.064.128-.127.192 0 .064-.064 0-.064.064h-.064c0 .064-.064.127-.128.191 0-.064.064-.127.064-.191 0 0-.128.127-.064.127v-.063c0 .063-.064.127-.127.191-.064-.064-.192.128-.256.128-.064.127-.191.191-.319.319.128 0-.064.064 0 .064l-.064.064-.128.063c-.063 0 0-.063 0-.063-.063.063-.063 0-.127 0 0 0 0 .063-.064.063h.064c-.064.128-.128 0-.192.128v-.064c-.064.064-.191.128-.191.256 0 0-.064 0 0 0-.128.064-.192.255-.32.319 0 0 0 .064-.063.064 0 0 0 .064-.064.064v-.064c-.128.064-.128.191-.192.255-.064-.064-.127 0-.191.064a1.335 1.335 0 0 0-.256.383c-.064 0-.191.128-.319.256v.063h-.064c-.064.064 0 .128-.128.192 0-.064-.063 0 0-.064l-.063.064-.064.064v.127c-.128 0-.192.192-.32.192-.063.064-.127.128-.127.192-.064.063 0 .063-.064.127-.064 0 0-.064 0-.064-.064-.063-.064.064-.191.128-.064 0-.064.128-.128.192 0 .063-.064.127-.128.255v-.064s.064.064 0 .064h-.128l.064-.064c-.064 0-.064.064-.064.064-.063.064-.063.128-.127.191 0 .064-.064 0-.064.064h-.064c0 .064-.064.128-.128.192 0-.064.064-.128.064-.192 0 0-.127.128-.064.128v-.064c0 .064-.063.128-.127.192-.064-.064-.192.127-.256.127-.064.128-.191.192-.319.32.128 0-.064.063 0 .063l-.064.064-.127.064c-.064 0 0-.064 0-.064-.064.064-.064 0-.128 0 0 0 0 .064-.064.064h.064c-.064.128-.128 0-.192.128v-.064c-.064.064-.191.128-.191.255 0 0-.064 0 0 0-.128.064-.192.256-.32.32 0 0 0 .063-.063.063 0 0 0 .064-.064.064v-.064c-.128.064-.128.192-.192.256-.064-.064-.127 0-.191.064a1.335 1.335 0 0 0-.256.383c-.064 0-.191.128-.319.255v.064h-.064c-.064.064 0 .128-.127.192 0-.064-.064 0 0-.064l-.064.064-.064.063v.128c-.128 0-.192.192-.32.192-.063.063-.127.127-.127.191-.064.064 0 .064-.064.128-.064 0 0-.064 0-.064-.064-.064-.064.064-.192.128-.063 0-.063.128-.127.191 0 .064-.064.128-.128.256v-.064s.064.064 0 .064H41.5l.064-.064c-.064 0-.064.064-.064.064-.063.063-.063.127-.127.191 0 .064-.064 0-.064.064h-.064c0 .064-.064.128-.128.192 0-.064.064-.128.064-.192 0 0-.127.128-.064.128v-.064c0 .064-.063.128-.127.192-.064-.064-.192.127-.256.127-.064.128-.191.192-.319.32.128 0-.064.063 0 .063l-.064.064-.127.064c-.064 0 0-.064 0-.064-.064.064-.064 0-.128 0 0 0 0 .064-.064.064h.064c-.064.128-.128 0-.192.128v-.064c-.064.064-.191.127-.191.255 0 0-.064 0 0 0-.128.064-.192.256-.32.32 0 0 0 .063-.063.063 0 0 0 .064-.064.064v-.064c-.128.064-.128.192-.192.256-.064-.064-.127 0-.191.063-.128.128-.192.256-.256.384-.064 0-.064 0-.191.127v37.67l12.067-18.899v-28.54L64.996 19.09v19.665l12.323-18.771Z" fill="#AB3473"/><path d="M40.479 40.734s0-.064-.064-.064c.064 0 0 .128.064.064Zm.83-.83s.064 0 .064-.064c0 0-.064 0-.064.064Zm3.639-3.32s0-.064-.064-.064c.064 0 0 .128.064.064Zm.83-.83s.064 0 .064-.064c0 0-.064 0-.064.064Zm3.639-3.32s0-.064-.063-.064c.063 0 0 .128.063.064Zm.83-.83s.064 0 .064-.064c0 0-.064 0-.064.064Zm13.536-12.769c0 .064.064.064 0 0 .128 0 0 .064 0 0Zm-2.171 2.107c-.064 0-.064.064 0 0-.064.064 0 0 0 0Zm1.277-1.149s0-.064.064-.064c0 0-.064 0-.064.064Zm-3.511 3.256c-.064.064.063 0 0 0 .063-.064 0 .064 0 0Zm-.894.893s0-.063.063-.063c-.063 0-.063 0-.063.063Zm-3.576 3.257c0 .064.064.064 0 0 .128 0 0 .064 0 0Zm-.894.894s0-.064.064-.064c-.064 0-.064.064-.064.064Z" fill="#AB3473"/><path d="M36.903 40.67c-.063 0-.063.064-.063.064.127.064 0-.064.063-.064Zm-.957-.83s.064 0 .064.064c0-.064 0-.064-.064-.064Zm-3.512-3.32c-.064 0-.064.064-.064.064.128.064 0-.064.064-.064Zm-.958-.83s.064 0 .064.064c0-.064 0-.064-.064-.064Zm-3.511-3.32c-.064 0-.064.064-.064.064.128.064 0-.064.064-.064Zm-.958-.83s.064 0 .064.064c0-.064 0-.064-.064-.064ZM13.536 18.835c0 .064-.064 0 0 0-.064.064.063.064 0 0Zm1.979 1.851c0 .064.064 0 0 0Zm-1.149-.957.063.064c0-.064 0-.064-.063-.064Zm3.639 3.32c0 .064-.128-.064 0 0-.064 0 0 .064 0 0Zm.83.83.064.063c0-.063-.064-.063-.064-.063Zm3.575 3.32c.064.064-.064 0 0 0-.064.064.064.064 0 0Zm1.98 1.851c0 .064.063 0 0 0Zm-1.086-1.021.064.064c-.064 0-.064-.064-.064-.064Z" fill="#CDD430"/><path d="M38.691 42.33c-.128-.063-.064-.127-.191-.127-.128-.128-.128-.256-.256-.383-.064 0-.127-.064-.191-.064-.064-.064-.064-.192-.192-.256v.064c-.064 0-.064-.064-.064-.064-.064 0 0-.063-.064-.063-.127-.064-.191-.256-.319-.32 0-.063-.128-.191-.191-.255v.064c-.064-.128-.128 0-.192-.128h.064c-.064 0-.064-.064-.064-.064-.064 0-.064.064-.128 0 0 0 .064.064 0 .064l-.127-.064-.064-.064c.064-.064-.064-.064 0-.064-.128-.127-.256-.191-.32-.319-.127 0-.19-.191-.255-.127-.064-.064-.064-.128-.127-.192v.064c0-.064-.064-.128-.064-.128 0 .064.064.128.064.192-.064-.064-.064-.128-.128-.192h-.064c0-.064-.064 0-.064-.064-.064-.064-.064-.127-.127-.191-.064 0-.064-.064-.064-.064l.063.064H35.5c-.064-.064 0-.064 0-.064-.064 0 0 0 0 .064-.064-.064-.128-.128-.128-.255-.064-.064-.064-.128-.128-.192-.063 0-.063-.128-.191-.128-.064 0 .064.064 0 .064-.064-.064 0-.128-.064-.128-.064-.063-.128-.127-.128-.191-.127 0-.191-.192-.319-.192.064 0 0-.064 0-.064V38.5c-.064 0-.064-.064-.064-.064l-.064-.064c.064.064 0 .064 0 .064-.063-.064 0-.128-.127-.192h-.064v-.064c-.128-.063-.255-.191-.32-.255-.127-.128-.127-.255-.255-.383-.064 0-.127-.064-.191-.064-.064-.064-.064-.192-.192-.255v.063c-.064 0-.064-.063-.064-.063-.064 0 0-.064-.064-.064-.127-.064-.191-.256-.319-.32 0-.063-.127-.191-.191-.255v.064c-.064-.128-.128 0-.192-.128h.064c-.064 0-.064-.064-.064-.064-.064 0-.064.064-.127 0 0 0 .063.064 0 .064l-.128-.064-.064-.063c.064-.064-.064-.064 0-.064-.128-.128-.256-.192-.32-.32-.127 0-.19-.191-.255-.127-.063-.064-.063-.128-.127-.192v.064c0-.064-.064-.127-.064-.127 0 .063.064.127.064.191-.064-.064-.064-.128-.128-.191h-.064c0-.064-.064 0-.064-.064-.064-.064-.064-.128-.128-.192-.063 0-.063-.064-.063-.064l.063.064h-.127c-.064-.064 0-.064 0-.064-.064 0 0 0 0 .064-.064-.064-.128-.128-.128-.255-.064-.064-.064-.128-.128-.192-.063 0-.063-.127-.191-.127-.064 0 .064.063 0 .063-.064-.063 0-.127-.064-.127-.064-.064-.128-.128-.128-.192-.127 0-.191-.191-.319-.191.064 0 0-.064 0-.064v-.064c-.064 0-.064-.064-.064-.064l-.064-.064c.064.064 0 .064 0 .064-.063-.064 0-.128-.127-.191h-.064v-.064a1.389 1.389 0 0 1-.32-.256c-.127-.127-.127-.255-.255-.383-.064 0-.127-.064-.191-.064-.064-.064-.064-.191-.192-.255v.064c-.064 0-.064-.064-.064-.064-.064 0 0-.064-.064-.064-.127-.064-.191-.255-.319-.32 0-.063-.127-.19-.191-.255v.064c-.064-.127-.128 0-.192-.127h.064c-.064 0-.064-.064-.064-.064-.064 0-.064.064-.128 0 0 0 .064.064 0 .064l-.127-.064-.064-.064c.064-.064-.064-.064 0-.064-.128-.128-.255-.192-.32-.32-.127 0-.19-.19-.255-.127-.064-.064-.064-.127-.127-.191v.064c0-.064-.064-.128-.064-.128 0 .064.064.128.064.191-.064-.063-.064-.127-.128-.191h-.064c0-.064-.064 0-.064-.064-.064-.064-.064-.128-.127-.192-.064 0-.064-.064-.064-.064l.064.064h-.128c-.064-.064 0-.064 0-.064-.064 0 0 0 0 .064-.064-.064-.128-.127-.128-.255-.064-.064-.064-.128-.128-.192-.063 0-.063-.127-.191-.127-.064 0 .064.064 0 .064-.064-.064 0-.128-.064-.128-.064-.064-.128-.128-.128-.192-.127 0-.191-.191-.319-.191.064 0 0-.064 0-.064v-.064c-.064 0-.064-.064-.064-.064l-.064-.064c.064.064 0 .064 0 .064-.063-.064 0-.127-.127-.191h-.064v-.064c0-.128-.128-.064-.064-.064s-.128-.128-.128-.128-.063-.191-.127-.127c0 0 0-.064-.128-.064h-.064v-.064c-.064-.064-.127 0-.191-.064.064 0 0-.064.064 0 0 0-.064-.064-.064 0l-.064-.064h-.128c0-.127-.192-.191-.192-.319-.063-.064-.127-.064-.191-.128s-.064 0-.128-.064c0-.063.064 0 .064 0 .064-.063-.128-.063-.128-.127s-.127-.064-.191-.128a.484.484 0 0 1-.255-.128h.063s0 .064-.063 0v-.127l.063.064c0-.064-.063-.064-.063-.064-.064-.064-.128 0-.192-.128-.064 0 0-.064-.064-.064v-.064c-.064 0-.128-.064-.191-.127.063 0 .127.063.191.063l-.128-.063h.064c-.063 0-.127 0-.191-.064.064-.064-.128-.192-.128-.256-.128-.063-.192-.191-.32-.319 0 .128-.063 0-.063.064l-.064-.064.32.128c0-.064.063 0 .063 0-.064-.064 0-.064 0-.128h-.064v.064c-.127-.064 0-.128-.127-.192h.063c-.063 0-.191-.127-.255-.127 0 0 0-.064 0 0-.128-.128-.255-.192-.32-.256 0 0-.063 0-.063-.063 0 0-.064 0-.128-.064h.064c-.064-.128-.191-.128-.319-.192.064-.064 0-.128-.064-.191-.128-.128-.255-.128-.383-.256 0-.064-.128-.191-.255-.319h-.064v-.064c-.064-.064-.128 0-.192-.064.064 0 0-.064.064 0 0 0-.064-.064-.064 0l-.064-.064h-.127c0-.127-.192-.191-.192-.319-.064-.064-.128-.064-.191-.127-.064-.064-.064 0-.128-.064 0-.064.064 0 .064 0 .064-.064-.128-.064-.128-.128s-.128-.064-.191-.128a.483.483 0 0 1-.256-.127h.064s0 .064-.064 0v-.128l.064.064c0-.064-.064-.064-.064-.064-.064-.064-.128 0-.191-.128-.064 0 0-.064-.064-.064v-.064c-.064 0-.128-.063-.192-.127.064 0 .128.064.192.064l-.128-.064h.064c-.064 0-.128 0-.192-.064.064-.064-.127-.192-.127-.255-.128-.064-.192-.192-.32-.32 0 .128-.063 0-.063.064l-.064-.064-.128-.191c0-.064.064 0 .064 0-.064-.064 0-.064 0-.128h-.064v.064c-.128-.064 0-.128-.128-.192h.064c-.064 0-.191-.127-.255-.127 0 0 0-.064 0 0-.128-.128-.256-.192-.32-.256 0 0-.063 0-.063-.064 0 0-.064 0-.128-.063h.064c-.064-.128-.192-.128-.32-.192.064-.064 0-.128-.063-.191-.128-.128-.256-.128-.383-.256 0-.064-.128-.191-.256-.319h-.063v-.064c-.064-.064-.128 0-.192-.064.064 0 0-.064.064 0 0 0-.064-.064-.064 0l-.064-.064h-.127c0-.127-.192-.191-.192-.319-.064-.064-.128-.064-.192-.128-.064-.063-.064 0-.127-.063 0-.064.063 0 .063 0 .064-.064-.127-.064-.127-.128s-.128-.064-.192-.128a.484.484 0 0 1-.255-.127h.064s0 .063-.064 0v-.128l.064.064c0-.064-.064-.064-.064-.064-.064-.064-.128 0-.192-.128-.063 0 0-.064-.063-.064v-.064c-.064 0-.128-.063-.192-.127.064 0 .128.064.192.064l-.128-.064h.064c-.064 0-.128 0-.192-.064.064-.064-.128-.192-.128-.255-.127-.064-.191-.192-.319-.32 0 .128-.064 0-.064.064l-.063-.064-.128-.255c0-.064.064 0 .064 0-.064-.064 0-.064 0-.128h-.064v.064c-.128-.064 0-.128-.128-.191h.064c-.064 0-.192-.128-.255-.128 0 0 0-.064 0 0-.128-.128-.256-.192-.32-.256 0 0-.063 0-.063-.063 0 0-.064 0-.128-.064h.064c-.064-.128-.192-.064-.256-.192-.064 0-.064-.064-.191 0V2.937L0 19.984l12.13 18.771V19.09l14.494 13.536V61.1L38.691 80V42.33Z" fill="#CDD430"/><path d="M38.691 0v22.793L63.081 0H38.69Z" fill="#B1618D"/><path d="M38.691 22.793V0H14.238L38.69 22.793Z" fill="#D4DB62"/><path d="M38.691 22.793V4.916L14.238 0 38.69 22.793Z" fill="#C4CA2F"/><path d="M38.691 22.793V4.916L63.081 0 38.69 22.793Z" fill="#B13675"/><path d="M26.624 32.626 38.691 80 26.624 61.101V32.626Z" fill="#C1C724"/><path d="M50.694 32.626V61.1L38.691 80l12.003-47.374Z" fill="#A13069"/><path d="m0 19.984 12.13-2.17V2.936L0 19.984Z" fill="#DCE329"/><path d="m77.318 19.984-12.13-2.17V2.936l12.13 17.047Z" fill="#B14A80"/><path d="M133.887 68.188h-.447l-2.043-4.852c-.256-.639-.575-1.405-.83-2.17h-.064c.064 1.148.064 2.17.064 3.128v3.958h-.958v-8.236h1.405l1.915 4.597c.191.51.447 1.15.702 1.915.319-.83.511-1.468.703-1.915l1.915-4.597h1.405v8.108h-1.022v-3.958c0-.894 0-1.98.064-3.128h-.064c-.319.83-.575 1.532-.83 2.17l-1.915 4.98Zm9.194-.638-.32.32c-.127.063-.255.19-.383.254-.127.064-.319.128-.51.192-.192.064-.383.064-.575.064-.255 0-.511-.064-.766-.128a.93.93 0 0 1-.575-.383 1.515 1.515 0 0 1-.383-.575c-.064-.255-.128-.51-.128-.766 0-.319.064-.574.128-.766.128-.255.255-.447.447-.574.192-.128.383-.256.702-.383.256-.064.575-.128.894-.128.319 0 .575 0 .83.064.256.064.511.127.703.191v-.894a.487.487 0 0 0-.128-.319c-.128-.191-.256-.383-.511-.51-.255-.128-.575-.192-.958-.192-.319 0-.574 0-.83.064-.255.063-.51.127-.766.255v-.766c.128-.064.192-.064.319-.128.128-.064.256-.064.447-.127.128 0 .32-.064.447-.064h.511c.575 0 1.085.127 1.405.319.383.191.638.51.83.83a.92.92 0 0 1 .127.447c0 .127.064.319.064.51v3.831h-.766l-.255-.638Zm-.064-1.915c-.192-.064-.383-.064-.639-.128-.255-.064-.51-.064-.766-.064-.383 0-.702.064-.958.255-.255.192-.319.447-.319.767 0 .191 0 .319.064.446.064.128.128.256.255.32.128.064.192.127.32.191.127.064.255.064.447.064.191 0 .383 0 .574-.064a3.07 3.07 0 0 0 .447-.191c.128-.064.256-.192.319-.256.064-.064.192-.127.192-.191v-1.15h.064Zm2.426-.32c0-.383.064-.766.128-1.085.063-.32.191-.575.319-.83.127-.255.255-.447.447-.575.191-.128.383-.255.51-.383.128-.127.384-.191.575-.191.192-.064.383-.064.575-.064.383 0 .638.064.894.191.255.128.51.32.702.511v-3.512h.958v8.811h-.703l-.191-.638c-.064.064-.128.191-.256.255-.127.064-.191.192-.319.256-.128.063-.255.127-.447.191-.191.064-.383.064-.574.064a2.56 2.56 0 0 1-.958-.192c-.319-.127-.575-.255-.83-.51a2.675 2.675 0 0 1-.575-.894c-.191-.383-.255-.83-.255-1.405Zm1.021 0c0 .32.064.639.128.894s.192.51.319.702c.128.192.32.32.511.447.192.128.447.128.702.128.192 0 .384 0 .511-.064.192-.064.319-.127.447-.191s.256-.192.319-.256c.064-.064.192-.191.192-.255v-3c-.192-.192-.447-.384-.702-.448a1.77 1.77 0 0 0-.83-.191c-.192 0-.384.063-.575.127a1.509 1.509 0 0 0-.575.383 1.913 1.913 0 0 0-.447.703c.064.191 0 .574 0 1.021Zm8.748 2.171c.319 0 .574 0 .83-.064l.766-.191v.766c-.192.127-.447.191-.766.255-.32.064-.639.064-.958.064-.383 0-.83-.064-1.149-.128-.384-.127-.703-.255-.958-.51a3.203 3.203 0 0 1-.639-.894c-.127-.383-.255-.83-.255-1.341 0-.51.064-.958.192-1.34.127-.384.319-.703.574-.958.256-.256.511-.448.83-.575.319-.128.639-.192.958-.192.319 0 .638.064.894.192.255.127.511.255.702.51.192.256.383.511.511.895.128.383.191.83.191 1.34v.383h-3.958c0 .383.064.703.191.958.128.255.256.447.447.638.192.192.447.256.703.32.319-.128.574-.128.894-.128Zm-.511-4.47c-.192 0-.447.065-.575.129-.191.063-.319.191-.511.319-.191.127-.255.319-.319.51a7.647 7.647 0 0 0-.191.639h2.937c0-.255 0-.447-.064-.639-.064-.191-.128-.383-.256-.51-.127-.128-.255-.256-.447-.32a1.27 1.27 0 0 0-.574-.127Zm6.512-1.978v-1.022h.958v1.022h-.958Zm0 7.15v-5.746h.958v5.746h-.958Zm3.767-4.98.383-.383c.128-.128.255-.191.447-.319.128-.064.319-.128.511-.191.191-.064.383-.064.638-.064.256 0 .511.064.766.127a.93.93 0 0 1 .575.383c.192.192.319.383.383.639.064.255.128.575.128.958v3.894h-.958V64.55c0-.51-.128-.83-.319-1.085-.192-.192-.447-.32-.83-.32a1.8 1.8 0 0 0-.958.256 2.198 2.198 0 0 0-.766.766v4.086h-.958v-5.746h.703l.255.702Zm9.258 4.98h-1.022v-8.172h4.853v.894h-3.831v2.618h3.448v.893h-3.448v3.767Zm8.3-5.043h-.064c-.191 0-.447 0-.638.063-.192.064-.447.128-.575.192a1.39 1.39 0 0 0-.511.32 2.81 2.81 0 0 0-.383.446v4.022h-.958v-5.746h.703l.191.894a1.94 1.94 0 0 1 .32-.447c.127-.128.319-.255.446-.32.192-.127.384-.19.575-.255.192-.063.447-.063.639-.063h.255v.894Zm.319-.767h.958l1.788 4.533h.063l1.852-4.533h.958l-3.576 8.62h-1.021l1.213-2.937-2.235-5.683Zm10.088 5.172c-.128.128-.192.191-.319.32-.128.063-.256.19-.383.254-.128.064-.32.128-.511.192-.192.064-.383.064-.575.064-.255 0-.511-.064-.766-.128a.932.932 0 0 1-.575-.383 1.515 1.515 0 0 1-.383-.575c-.063-.255-.127-.51-.127-.766 0-.319.064-.574.127-.766a1.29 1.29 0 0 1 .447-.574c.192-.128.383-.256.703-.383.255-.064.574-.128.893-.128.32 0 .575 0 .83.064.256.064.511.127.703.191v-.894a.487.487 0 0 0-.128-.319c-.128-.191-.255-.383-.511-.51-.255-.128-.574-.192-.957-.192-.32 0-.575 0-.83.064-.256.063-.511.127-.767.255v-.766c.128-.064.192-.064.32-.128.127-.064.255-.064.447-.127.127 0 .319-.064.447-.064h.51c.575 0 1.086.127 1.405.319.319.191.638.51.83.83.064.128.128.255.128.447 0 .127.063.319.063.51v3.831h-.766l-.255-.638Zm-.064-1.915c-.191-.064-.383-.064-.638-.128-.256-.064-.511-.064-.767-.064-.383 0-.702.064-.957.255-.256.192-.319.447-.319.767 0 .191 0 .319.063.446.064.128.128.256.256.32.127.064.191.127.319.191s.255.064.447.064c.191 0 .383 0 .575-.064a3.1 3.1 0 0 0 .446-.191c.128-.064.256-.192.32-.256s.191-.127.191-.191v-1.15h.064Zm5.555-2.427h-3.193v-.83h4.342v.575l-3.192 4.341h3.447v.83h-4.661v-.446l3.257-4.47Zm2.745-2.17v-1.022h.958v1.022h-.958Zm.064 7.15v-5.746h.958v5.746h-.958Zm3.703-4.98.383-.383c.128-.128.256-.191.447-.319.128-.064.319-.128.511-.191.192-.064.383-.064.638-.064.256 0 .511.064.767.127a.927.927 0 0 1 .574.383c.192.192.319.383.383.639.064.255.128.575.128.958v3.894h-.958V64.55c0-.51-.127-.83-.319-1.085-.191-.256-.447-.32-.83-.32-.319 0-.638.064-.958.256a2.206 2.206 0 0 0-.766.766v4.086h-.958v-5.746h.703l.255.702Zm10.854 2.043c0 .447-.064.894-.192 1.213a2.4 2.4 0 0 1-.574.958 4.124 4.124 0 0 1-.83.639c-.319.127-.702.191-1.149.191-.447 0-.83-.064-1.15-.191-.319-.128-.638-.383-.894-.639a2.411 2.411 0 0 1-.574-.957 3.71 3.71 0 0 1-.192-1.214c0-.447.064-.893.192-1.277.128-.383.319-.702.574-.957.256-.256.511-.447.894-.639.32-.127.703-.191 1.15-.191.447 0 .83.064 1.149.191.319.128.638.383.894.639.255.255.447.574.51.957.128.447.192.83.192 1.277Zm-1.022 0a3.86 3.86 0 0 0-.127-.957 1.528 1.528 0 0 0-.383-.703c-.128-.191-.32-.319-.575-.447-.255-.127-.447-.127-.702-.127-.256 0-.511.064-.703.127-.191.064-.383.256-.574.447a6.765 6.765 0 0 0-.383.703 3.856 3.856 0 0 0-.128.957c0 .383.064.639.128.958.064.255.191.51.383.702.127.192.319.32.574.447.192.128.447.128.703.128.255 0 .511-.064.702-.128a3.45 3.45 0 0 0 .575-.447c.127-.191.255-.447.383-.702.127-.255.127-.575.127-.958Z" fill="#F2F2F2"/></g><defs><clipPath id="a"><path fill="#fff" d="M0 0h250.982v80H0z"/></clipPath></defs></svg>