<svg width="60" height="60" fill="none" xmlns="http://www.w3.org/2000/svg"><g clip-path="url(#a)" fill="#fff"><path d="M28.063 0h3.75c.156.031.296.078.453.094 4.5.344 8.75 1.578 12.593 3.922C54.422 9.828 59.5 18.359 59.844 29.563c.203 6.687-1.797 12.796-5.782 18.171-4.75 6.407-11.062 10.36-18.906 11.797-1.11.203-2.234.313-3.343.469h-3.75c-.125-.031-.266-.078-.391-.094-5.672-.437-10.828-2.312-15.39-5.703C5.874 49.437 1.905 43.11.468 35.22c-.203-1.11-.313-2.235-.469-3.36v-3.75c.094-.718.156-1.422.266-2.14.859-6.094 3.312-11.485 7.437-16.047 4.61-5.094 10.328-8.281 17.14-9.469C25.907.266 27 .156 28.064 0ZM3 29.984c-.016 14.922 12.047 27 26.938 27 14.875 0 26.906-12.03 26.937-26.953.031-14.906-12-27-26.906-27.031C15.094 2.984 3.016 15.063 3 29.984Z"/><path d="M20.953 30V19.344c0-1.25.672-2.11 1.813-2.297.656-.11 1.203.172 1.734.515 4.063 2.72 8.125 5.438 12.203 8.141 1.219.813 2.438 1.61 3.64 2.438 1.47 1 1.47 2.718 0 3.703-5.312 3.562-10.624 7.093-15.937 10.656-.734.5-1.5.656-2.312.234-.828-.437-1.14-1.172-1.14-2.078V30Zm3.031 9.172c4.61-3.078 9.141-6.11 13.735-9.172-4.61-3.078-9.14-6.11-13.735-9.172v18.344Z"/></g><defs><clipPath id="a"><path fill="#fff" d="M0 0h59.859v60H0z"/></clipPath></defs></svg>