<svg width="40" height="40" viewBox="0 0 40 40" fill="none" xmlns="http://www.w3.org/2000/svg">
<g clip-path="url(#clip0_50_12)">
<path d="M31.1088 35.7315C30.7853 35.7524 30.5766 35.9298 30.5557 36.2742C30.5453 36.4724 30.5453 36.6603 30.5453 36.8586C30.5453 38.1317 29.8565 38.8205 28.5938 38.8205C20.0887 38.8205 11.5941 38.8205 3.08896 38.8205C1.86799 38.8205 1.1688 38.1317 1.1688 36.9212C1.1688 27.6543 1.1688 18.3874 1.1688 9.11005C1.1688 8.94308 1.17923 8.77611 1.18967 8.5674C1.36708 8.5674 1.50274 8.5674 1.6384 8.5674C3.18289 8.5674 4.7378 8.5674 6.28229 8.5674C7.72241 8.5674 8.5364 7.75341 8.5364 6.32372C8.5364 4.80011 8.5364 3.2765 8.5364 1.75289C8.5364 1.16849 8.5364 1.16849 9.13123 1.16849C15.5909 1.16849 22.0506 1.16849 28.4999 1.16849C29.8461 1.16849 30.514 1.83638 30.514 3.18258C30.514 5.65584 30.514 8.1291 30.514 10.6024C30.514 11.0198 30.7227 11.2494 31.0671 11.2598C31.4219 11.2702 31.6828 11.0198 31.6828 10.6024C31.6828 7.99343 31.7036 5.39495 31.6723 2.79646C31.6514 1.492 30.7749 0.448428 29.5226 0.0831791C29.4391 0.0623077 29.3556 0.0205649 29.2721 -0.0107422C22.3637 -0.000306495 15.4031 -0.000306495 8.45291 -0.000306495C7.55544 0.218843 6.90843 0.803242 6.28229 1.43982C4.54996 3.20345 2.8072 4.95665 1.04357 6.68897C0.333942 7.38816 0 8.19171 0 9.19354C0.0208714 13.1278 0.0104357 17.0516 0.0104357 20.9859C0.0104357 26.3185 0.0104357 31.6616 0.0104357 36.9942C0.0104357 38.6952 1.24185 39.9788 2.91156 39.9788C11.5419 39.9893 20.1722 39.9893 28.8025 39.9788C30.7435 39.9788 32.1732 38.0795 31.7036 36.1802C31.6201 35.8985 31.4219 35.7106 31.1088 35.7315ZM7.34673 2.14945C7.35716 2.19119 7.38847 2.26424 7.38847 2.33729C7.38847 3.70436 7.39891 5.07144 7.38847 6.43852C7.38847 7.02291 7.08583 7.37773 6.53274 7.38816C5.06131 7.40904 3.60031 7.3986 2.10801 7.3986C3.87164 5.63497 5.60397 3.89221 7.34673 2.14945Z" fill="#C4C4CD"/>
<path d="M39.2069 20.8399C39.9687 19.5563 39.4782 18.0431 38.1111 17.4587C37.558 17.2187 37.2867 16.843 37.2241 16.2482C37.0676 14.7454 35.8257 13.8271 34.3647 14.1506C33.7594 14.2863 33.3107 14.1297 32.9142 13.6706C31.9645 12.5853 30.3678 12.5644 29.4078 13.6393C28.9799 14.1193 28.5207 14.2758 27.8842 14.1402C26.4649 13.8271 25.1917 14.7663 25.0561 16.2064C24.9935 16.843 24.7117 17.2291 24.1377 17.4796C22.8124 18.0536 22.3115 19.5667 23.0524 20.8086C23.3759 21.3512 23.4072 21.8417 23.0524 22.3739C22.7707 22.8018 22.6663 23.2818 22.7289 23.7932C22.8437 24.722 23.3238 25.3899 24.1899 25.7447C24.6595 25.9429 24.9726 26.256 25.0248 26.7778C25.1709 28.0927 25.7448 28.7606 27.0597 29.1154C27.0597 29.2824 27.0597 29.418 27.0597 29.5641C27.0597 31.1399 27.0597 32.7157 27.0597 34.2915C27.0597 34.8133 27.2267 35.2411 27.6859 35.502C28.1659 35.7734 28.6251 35.7003 29.0843 35.4081C29.6687 35.0429 30.2635 34.6985 30.8375 34.3228C31.067 34.1663 31.234 34.1871 31.4636 34.3332C32.048 34.7194 32.6428 35.095 33.2585 35.429C33.509 35.5646 33.8221 35.6586 34.1038 35.6481C34.7926 35.6064 35.2204 35.0742 35.2204 34.3019C35.2309 32.6844 35.2309 31.0773 35.2204 29.4598C35.2204 29.2302 35.2517 29.105 35.5231 29.0215C36.5458 28.7188 37.1302 28.0092 37.2345 26.9343C37.2867 26.3604 37.5476 25.9847 38.0903 25.7551C39.4886 25.1603 39.9791 23.6471 39.2069 22.3531C38.8938 21.8208 38.8938 21.3512 39.2069 20.8399ZM34.0099 34.5315C33.4672 34.1976 32.935 33.9367 32.4863 33.5819C31.5679 32.8514 30.7018 32.8514 29.7834 33.5819C29.3347 33.9367 28.8025 34.1976 28.239 34.5315C28.239 32.6218 28.239 30.8164 28.239 28.9902C28.6564 28.938 29.0008 29.0737 29.2408 29.3867C30.2113 30.6494 32.0897 30.6181 33.0185 29.3867C33.2481 29.0841 33.582 28.938 34.0099 28.9797C34.0099 30.8164 34.0099 32.6322 34.0099 34.5315ZM38.1529 22.8644C38.612 23.6367 38.372 24.3358 37.5476 24.7011C36.6919 25.0768 36.1388 25.7134 36.097 26.6526C36.0553 27.5187 35.3665 28.1344 34.396 27.8735C33.5403 27.644 32.7263 27.8944 32.1837 28.5936C31.6097 29.3241 30.6287 29.3032 30.0652 28.5832C29.5226 27.884 28.719 27.6857 27.8424 27.8735C26.8197 28.0927 26.2979 27.6857 26.1831 26.6421C26.0892 25.7655 25.6196 25.1185 24.8056 24.7533C23.8351 24.3045 23.6368 23.7097 24.1586 22.7914C24.6073 21.9983 24.6073 21.2051 24.1586 20.412C23.6368 19.4937 23.8351 18.8989 24.8056 18.4501C25.6405 18.064 26.1101 17.3961 26.1831 16.4778C26.2666 15.5594 26.851 15.1107 27.7589 15.3194C28.7294 15.5281 29.5226 15.2568 30.1696 14.5159C30.7435 13.8584 31.4949 13.8584 32.0793 14.5263C32.7367 15.2672 33.5299 15.5281 34.5004 15.3194C35.377 15.1211 35.9509 15.5281 36.0449 16.4256C36.1492 17.4379 36.6501 18.1475 37.5998 18.5232C38.1007 18.7214 38.3511 19.0971 38.372 19.7546C38.3198 19.8798 38.2572 20.1198 38.132 20.3285C37.652 21.1738 37.652 22.0087 38.1529 22.8644Z" fill="#C4C4CD"/>
<path d="M26.7467 7.05431C26.7467 6.54296 26.7467 6.04204 26.7467 5.5307C26.7467 4.54974 26.2458 4.04883 25.2544 4.04883C23.3134 4.04883 21.3723 4.04883 19.4417 4.04883C17.4485 4.04883 15.4553 4.04883 13.4725 4.04883C12.669 4.04883 12.1367 4.56018 12.1159 5.35329C12.095 6.0003 12.095 6.65775 12.1159 7.30476C12.1367 7.95178 12.5646 8.45269 13.2012 8.53617C13.6186 8.58835 14.0569 8.57792 14.4848 8.55705C14.8187 8.53617 15.0483 8.24398 15.0066 7.94134C14.9648 7.61783 14.777 7.41956 14.4326 7.40912C14.1613 7.39868 13.8899 7.39868 13.6082 7.40912C13.3577 7.41956 13.2534 7.32563 13.2638 7.07518C13.2742 6.56383 13.2742 6.06292 13.2638 5.55157C13.2534 5.29068 13.3682 5.22806 13.6082 5.22806C17.4903 5.2385 21.3619 5.2385 25.244 5.22806C25.5049 5.22806 25.5779 5.32198 25.5675 5.57244C25.557 6.01074 25.5675 6.45947 25.5675 6.89777C25.5675 7.40912 25.5675 7.40912 25.0561 7.40912C22.4576 7.40912 19.8487 7.40912 17.2502 7.40912C16.8432 7.40912 16.5928 7.62827 16.5719 7.96221C16.551 8.31703 16.8119 8.56748 17.2294 8.57792C17.5424 8.58835 17.8555 8.57792 18.1686 8.57792C20.5062 8.57792 22.8542 8.57792 25.1918 8.57792C26.2354 8.56748 26.7363 8.077 26.7467 7.05431Z" fill="#C4C4CD"/>
<path d="M20.5583 22.9996C20.5061 22.7909 20.3287 22.5926 20.1513 22.4465C20.0678 22.3735 19.8799 22.4152 19.7338 22.4152C17.3128 22.4152 14.8917 22.4152 12.4706 22.4152C12.0114 22.4152 11.5627 22.4152 11.1035 22.4152C9.09987 22.4152 7.09622 22.4152 5.09256 22.4152C4.67514 22.4152 4.40381 22.6552 4.40381 22.9996C4.40381 23.344 4.67514 23.5736 5.09256 23.584C5.15518 23.584 5.21779 23.584 5.29084 23.584C10.0913 23.584 14.8917 23.584 19.6921 23.584C19.8382 23.584 19.9843 23.5944 20.12 23.5631C20.4122 23.4796 20.6209 23.2814 20.5583 22.9996Z" fill="#C4C4CD"/>
<path d="M20.1618 18.3243C20.0157 18.2826 19.8487 18.2826 19.7026 18.2826C14.9022 18.2826 10.1018 18.2826 5.30134 18.2826C5.13436 18.2826 4.91522 18.2617 4.81086 18.3452C4.64389 18.4913 4.46648 18.7105 4.44561 18.9192C4.4143 19.1905 4.62302 19.3992 4.92565 19.441C5.05088 19.4618 5.18654 19.4514 5.31177 19.4514C7.70155 19.4514 10.1018 19.4514 12.4915 19.4514C14.8813 19.4514 17.2815 19.4514 19.6713 19.4514C19.7965 19.4514 19.9322 19.4618 20.0574 19.441C20.3496 19.4097 20.5374 19.2323 20.5688 18.94C20.6001 18.6374 20.454 18.4183 20.1618 18.3243Z" fill="#C4C4CD"/>
<path d="M20.1826 27.6438C20.3496 27.5081 20.5375 27.2786 20.5375 27.0803C20.5375 26.9133 20.3287 26.7046 20.1513 26.5689C20.047 26.4959 19.8487 26.5272 19.6922 26.5272C17.3024 26.5272 14.9022 26.5272 12.5124 26.5272C12.262 26.5272 12.0219 26.5272 11.7715 26.5272C9.54867 26.5272 7.32587 26.5272 5.10306 26.5272C4.6752 26.5272 4.41431 26.7568 4.41431 27.1011C4.41431 27.4455 4.6752 27.6751 5.09263 27.696C5.15524 27.696 5.21786 27.696 5.29091 27.696C10.0913 27.696 14.8917 27.696 19.6922 27.696C19.8591 27.7064 20.0783 27.7273 20.1826 27.6438Z" fill="#C4C4CD"/>
<path d="M5.14481 15.3502C5.19698 15.3502 5.24916 15.3502 5.30134 15.3502C10.1018 15.3502 14.9022 15.3502 19.7026 15.3502C19.8591 15.3502 20.0157 15.3502 20.1618 15.3084C20.454 15.2354 20.5896 15.0162 20.5688 14.724C20.5583 14.4423 20.4018 14.2544 20.1305 14.2022C19.9844 14.1709 19.8174 14.1814 19.6609 14.1814C17.2815 14.1814 14.9022 14.1814 12.5228 14.1814C11.8237 14.1814 11.114 14.1814 10.4148 14.1814C8.66164 14.1814 6.898 14.1814 5.14481 14.1814C4.68563 14.1814 4.41431 14.4005 4.41431 14.7553C4.41431 15.1101 4.68563 15.3397 5.14481 15.3502Z" fill="#C4C4CD"/>
<path d="M8.8077 32.5586C7.58673 32.5586 6.36575 32.5586 5.14477 32.5586C4.85258 32.5586 4.60212 32.6212 4.47689 32.9134C4.28905 33.3413 4.60212 33.7274 5.14477 33.7274C7.55542 33.7274 9.95563 33.7274 12.3663 33.7274C12.8463 33.7274 13.1176 33.4978 13.1072 33.1221C13.0968 32.7569 12.8463 32.5586 12.3663 32.5586C11.1766 32.5586 9.99737 32.5586 8.8077 32.5586Z" fill="#C4C4CD"/>
<path d="M31.1087 16.6866C28.4163 16.697 26.2248 18.8885 26.2144 21.5809C26.204 24.2838 28.4163 26.4961 31.1296 26.4961C33.8638 26.4961 36.0448 24.2942 36.0344 21.5496C36.0239 18.8572 33.8116 16.6761 31.1087 16.6866ZM31.1296 25.3273C29.0633 25.3273 27.3728 23.6263 27.3936 21.5705C27.4145 19.5042 29.0842 17.8554 31.14 17.8658C33.2167 17.8658 34.876 19.5459 34.8656 21.6226C34.8551 23.668 33.1854 25.3273 31.1296 25.3273Z" fill="#C4C4CD"/>
</g>
<defs>
<clipPath id="clip0_50_12">
<rect width="39.5617" height="40" fill="white"/>
</clipPath>
</defs>
</svg>
